<svg xmlns="http://www.w3.org/2000/svg" viewBox="0 0 500 500"><g id="freepik--Shadows--inject-37"><polygon id="freepik--Shadow--inject-37" points="243.24 226.34 140.12 286.01 305.19 381.06 408.21 321.39 243.24 226.34" style="fill:#e0e0e0"></polygon><path id="freepik--shadow--inject-37" d="M462.4,276.63l-55.09,31.81a2.92,2.92,0,0,1-2.64,0L254.75,221.88a.8.8,0,0,1,0-1.52l55.09-31.81a2.9,2.9,0,0,1,2.63,0L462.4,275.11A.8.8,0,0,1,462.4,276.63Z" style="fill:#e0e0e0"></path><path id="freepik--shadow--inject-37" d="M189.66,262.38c-2.7-1.87-5.3-3.62-7.89-5.64-2.87-2.26-6.07-4.12-8.63-6.72-2.85-2.9-4.77-6.56-7-9.92-2-3-4.47-5.84-7.66-7.39l2.77-1.6,26-15a1.25,1.25,0,0,0,0-2.36l-82.15-47.43a4.51,4.51,0,0,0-4.08,0L31.61,206.36a1.25,1.25,0,0,0,0,2.36l82.15,47.43a4.53,4.53,0,0,0,4.09,0l5.65-3.26,14.28-8.25c3.5,2.48,7.45,4.35,11,6.82,1.21.84,2.37,1.76,3.5,2.7s2.14,1.85,3.2,2.78l9.92,8.78c6.48,5.74,15.84,10.68,24.42,5.85a5.62,5.62,0,0,0,3-3.52C193.23,265.81,191.54,263.68,189.66,262.38Z" style="fill:#e0e0e0"></path><ellipse id="freepik--shadow--inject-37" cx="452.87" cy="297.81" rx="22.52" ry="13" style="fill:#e0e0e0"></ellipse><path id="freepik--shadow--inject-37" d="M289.79,379.18c-13.36-7.71-35-7.71-48.36,0-7.45,4.3-10.74,10.1-9.88,15.72l-116.7-67.38a9.72,9.72,0,0,0-8.79,0l-77.8,44.92c-2.43,1.4-2.43,3.67,0,5.07l164.39,94.91a9.66,9.66,0,0,0,8.79,0l77.8-44.91c2.43-1.4,2.43-3.68,0-5.08l-16.69-9.63c9.74.5,19.78-1.4,27.24-5.7C303.14,399.39,303.14,386.89,289.79,379.18Z" style="fill:#e0e0e0"></path></g><g id="freepik--Carpet--inject-37"><g id="freepik--carpet--inject-37"><polygon points="244.53 225.71 145.72 282.89 303.89 373.97 402.61 316.79 244.53 225.71" style="fill:#B0BEC5"></polygon><polygon points="244.53 225.71 145.72 282.89 303.89 373.97 402.61 316.79 244.53 225.71" style="fill:#fff;opacity:0.8"></polygon><path d="M303.5,374.55,145.41,283.27a.58.58,0,0,1-.3-.52.6.6,0,0,1,.3-.53l98.8-57a.61.61,0,0,1,.61,0l158.09,91.27a.61.61,0,0,1,0,1.05l-98.8,57.05a.68.68,0,0,1-.31.08A.64.64,0,0,1,303.5,374.55Zm-59-148.14-97.59,56.34L303.8,373.32,401.39,317Z" style="fill:#fff"></path><path d="M244.52,226.31a.61.61,0,0,0,.3-1.13l-4.35-2.51a.6.6,0,1,0-.6,1.05l4.34,2.51A.6.6,0,0,0,244.52,226.31Z" style="fill:#fff"></path><path d="M239,229.48a.61.61,0,0,0,.31-1.14L235,225.83a.61.61,0,1,0-.61,1l4.35,2.52A.64.64,0,0,0,239,229.48Z" style="fill:#fff"></path><path d="M233.52,232.64a.61.61,0,0,0,.31-1.13L229.48,229a.6.6,0,0,0-.83.22.61.61,0,0,0,.22.83l4.35,2.51A.56.56,0,0,0,233.52,232.64Z" style="fill:#fff"></path><path d="M228,235.81a.6.6,0,0,0,.52-.3.62.62,0,0,0-.22-.84L224,232.16a.61.61,0,0,0-.83.22.62.62,0,0,0,.22.83l4.35,2.52A.68.68,0,0,0,228,235.81Z" style="fill:#fff"></path><path d="M222.53,239a.63.63,0,0,0,.53-.3.62.62,0,0,0-.22-.83l-4.35-2.52a.61.61,0,0,0-.61,1.06l4.35,2.51A.54.54,0,0,0,222.53,239Z" style="fill:#fff"></path><path d="M217,242.14a.61.61,0,0,0,.31-1.14L213,238.49a.61.61,0,1,0-.61,1l4.35,2.52A.67.67,0,0,0,217,242.14Z" style="fill:#fff"></path><path d="M211.54,245.3a.61.61,0,0,0,.3-1.13l-4.35-2.52a.61.61,0,0,0-.61,1.06l4.35,2.51A.58.58,0,0,0,211.54,245.3Z" style="fill:#fff"></path><path d="M206,248.47a.61.61,0,0,0,.3-1.14L202,244.82a.61.61,0,1,0-.61,1.05l4.34,2.51A.61.61,0,0,0,206,248.47Z" style="fill:#fff"></path><path d="M200.54,251.63a.62.62,0,0,0,.53-.3.6.6,0,0,0-.22-.83L196.5,248a.61.61,0,0,0-.61,1.06l4.35,2.51A.67.67,0,0,0,200.54,251.63Z" style="fill:#fff"></path><path d="M195.05,254.8a.59.59,0,0,0,.52-.31.61.61,0,0,0-.22-.83L191,251.15a.61.61,0,1,0-.61,1l4.35,2.51A.59.59,0,0,0,195.05,254.8Z" style="fill:#fff"></path><path d="M189.55,258a.63.63,0,0,0,.53-.3.61.61,0,0,0-.22-.83l-4.36-2.52a.61.61,0,1,0-.61,1.05l4.36,2.52A.64.64,0,0,0,189.55,258Z" style="fill:#fff"></path><path d="M184.05,261.12a.6.6,0,0,0,.53-.3.61.61,0,0,0-.22-.83L180,257.48a.61.61,0,1,0-.61,1l4.35,2.51A.56.56,0,0,0,184.05,261.12Z" style="fill:#fff"></path><path d="M178.56,264.29a.61.61,0,0,0,.3-1.13l-4.35-2.52a.61.61,0,0,0-.83.22.61.61,0,0,0,.22.83l4.35,2.52A.68.68,0,0,0,178.56,264.29Z" style="fill:#fff"></path><path d="M173.06,267.45a.61.61,0,0,0,.53-.3.62.62,0,0,0-.23-.83L169,263.81a.61.61,0,1,0-.61,1.05l4.35,2.51A.6.6,0,0,0,173.06,267.45Z" style="fill:#fff"></path><path d="M167.56,270.62a.61.61,0,0,0,.31-1.14L163.52,267a.61.61,0,0,0-.61,1l4.35,2.52A.64.64,0,0,0,167.56,270.62Z" style="fill:#fff"></path><path d="M162.07,273.78a.61.61,0,0,0,.3-1.13L158,270.14a.59.59,0,0,0-.83.22.61.61,0,0,0,.22.83l4.35,2.51A.58.58,0,0,0,162.07,273.78Z" style="fill:#fff"></path><path d="M156.57,277a.59.59,0,0,0,.52-.31.61.61,0,0,0-.22-.83l-4.35-2.51a.61.61,0,1,0-.61,1.05l4.35,2.52A.71.71,0,0,0,156.57,277Z" style="fill:#fff"></path><path d="M151.07,280.11a.62.62,0,0,0,.53-.3.6.6,0,0,0-.22-.83L147,276.47a.61.61,0,1,0-.61,1l4.35,2.51A.54.54,0,0,0,151.07,280.11Z" style="fill:#fff"></path><path d="M145.57,283.28a.61.61,0,0,0,.31-1.14l-4.35-2.51a.61.61,0,1,0-.61,1.05l4.35,2.51A.58.58,0,0,0,145.57,283.28Z" style="fill:#fff"></path><path d="M407,320.13a.62.62,0,0,0,.53-.3.61.61,0,0,0-.22-.83L403,316.48a.61.61,0,1,0-.61,1l4.35,2.52A.56.56,0,0,0,407,320.13Z" style="fill:#fff"></path><path d="M401.52,323.3A.59.59,0,0,0,402,323a.61.61,0,0,0-.22-.83l-4.35-2.51a.61.61,0,1,0-.61,1.05l4.35,2.51A.59.59,0,0,0,401.52,323.3Z" style="fill:#fff"></path><path d="M396,326.46a.63.63,0,0,0,.53-.3.62.62,0,0,0-.22-.83L392,322.81a.61.61,0,0,0-.61,1.05l4.35,2.52A.54.54,0,0,0,396,326.46Z" style="fill:#fff"></path><path d="M390.52,329.62a.62.62,0,0,0,.53-.3.61.61,0,0,0-.22-.83L386.48,326a.59.59,0,0,0-.83.22.61.61,0,0,0,.22.83l4.35,2.51A.54.54,0,0,0,390.52,329.62Z" style="fill:#fff"></path><path d="M385,332.79a.6.6,0,0,0,.52-.3.62.62,0,0,0-.22-.84L381,329.14a.61.61,0,1,0-.61,1.05l4.35,2.52A.68.68,0,0,0,385,332.79Z" style="fill:#fff"></path><path d="M379.53,336a.62.62,0,0,0,.53-.3.61.61,0,0,0-.22-.83l-4.35-2.51a.61.61,0,1,0-.61,1.05l4.35,2.51A.54.54,0,0,0,379.53,336Z" style="fill:#fff"></path><path d="M374,339.12a.61.61,0,0,0,.31-1.14L370,335.47a.61.61,0,0,0-.83.22.6.6,0,0,0,.22.83l4.35,2.52A.67.67,0,0,0,374,339.12Z" style="fill:#fff"></path><path d="M368.54,342.28a.61.61,0,0,0,.3-1.13l-4.35-2.52a.61.61,0,0,0-.61,1.06l4.35,2.51A.58.58,0,0,0,368.54,342.28Z" style="fill:#fff"></path><path d="M363,345.45a.63.63,0,0,0,.53-.3.62.62,0,0,0-.23-.84L359,341.8a.61.61,0,0,0-.83.22.62.62,0,0,0,.22.83l4.35,2.52A.71.71,0,0,0,363,345.45Z" style="fill:#fff"></path><path d="M357.54,348.61a.62.62,0,0,0,.53-.3.61.61,0,0,0-.22-.83L353.5,345a.61.61,0,0,0-.61,1.06l4.35,2.51A.54.54,0,0,0,357.54,348.61Z" style="fill:#fff"></path><path d="M352.05,351.78a.59.59,0,0,0,.52-.31.61.61,0,0,0-.22-.83L348,348.13a.61.61,0,0,0-.61,1.05l4.35,2.51A.59.59,0,0,0,352.05,351.78Z" style="fill:#fff"></path><path d="M346.55,354.94a.61.61,0,0,0,.3-1.13l-4.35-2.52a.61.61,0,0,0-.61,1.06l4.35,2.51A.6.6,0,0,0,346.55,354.94Z" style="fill:#fff"></path><path d="M341.05,358.11a.61.61,0,0,0,.31-1.14L337,354.46a.61.61,0,1,0-.61,1.05l4.35,2.51A.55.55,0,0,0,341.05,358.11Z" style="fill:#fff"></path><path d="M335.55,361.27a.62.62,0,0,0,.53-.3.6.6,0,0,0-.22-.83l-4.35-2.52a.61.61,0,0,0-.61,1.06l4.35,2.51A.56.56,0,0,0,335.55,361.27Z" style="fill:#fff"></path><path d="M330.06,364.44a.59.59,0,0,0,.52-.31.61.61,0,0,0-.22-.83L326,360.79a.61.61,0,0,0-.61,1l4.35,2.51A.59.59,0,0,0,330.06,364.44Z" style="fill:#fff"></path><path d="M324.56,367.6a.63.63,0,0,0,.53-.3.62.62,0,0,0-.22-.83L320.51,364a.61.61,0,0,0-.83.22.62.62,0,0,0,.22.83l4.36,2.52A.64.64,0,0,0,324.56,367.6Z" style="fill:#fff"></path><path d="M319.06,370.77a.61.61,0,0,0,.31-1.14L315,367.12a.59.59,0,0,0-.83.22.61.61,0,0,0,.22.83l4.35,2.51A.58.58,0,0,0,319.06,370.77Z" style="fill:#fff"></path><path d="M313.57,373.93a.6.6,0,0,0,.52-.3.62.62,0,0,0-.22-.84l-4.35-2.51a.61.61,0,1,0-.61,1.05l4.35,2.52A.68.68,0,0,0,313.57,373.93Z" style="fill:#fff"></path><path d="M308.07,377.09a.63.63,0,0,0,.53-.3.62.62,0,0,0-.23-.83L304,373.45a.61.61,0,1,0-.61,1.05l4.35,2.51A.6.6,0,0,0,308.07,377.09Z" style="fill:#fff"></path><path d="M284,363.22a.68.68,0,0,0,.31-.08l98.8-57.05a.6.6,0,0,0,.22-.83.62.62,0,0,0-.83-.22l-98.8,57a.61.61,0,0,0-.22.83A.59.59,0,0,0,284,363.22Z" style="fill:#fff"></path><path d="M264.28,351.81a.68.68,0,0,0,.31-.08l98.8-57.05a.6.6,0,0,0,.22-.83.61.61,0,0,0-.83-.22L264,350.68a.61.61,0,0,0,.3,1.13Z" style="fill:#fff"></path><path d="M244.53,340.4a.67.67,0,0,0,.3-.08l98.8-57.05a.61.61,0,1,0-.61-1l-98.8,57a.61.61,0,0,0,.31,1.13Z" style="fill:#fff"></path><path d="M224.77,329a.67.67,0,0,0,.3-.08l98.8-57.05a.61.61,0,1,0-.61-1.05l-98.8,57a.61.61,0,0,0,.31,1.14Z" style="fill:#fff"></path><path d="M205,317.58a.64.64,0,0,0,.3-.08l98.8-57.05a.6.6,0,0,0,.22-.83.61.61,0,0,0-.83-.22l-98.8,57.05a.6.6,0,0,0-.22.83A.62.62,0,0,0,205,317.58Z" style="fill:#fff"></path><path d="M185.25,306.17a.64.64,0,0,0,.3-.08l98.8-57a.6.6,0,0,0,.23-.83.62.62,0,0,0-.84-.22L184.94,305a.6.6,0,0,0-.22.83A.62.62,0,0,0,185.25,306.17Z" style="fill:#fff"></path><path d="M165.49,294.76a.64.64,0,0,0,.3-.08l98.81-57.05a.61.61,0,0,0,.22-.83.61.61,0,0,0-.83-.22l-98.81,57a.6.6,0,0,0-.22.83A.62.62,0,0,0,165.49,294.76Z" style="fill:#fff"></path><path d="M323.56,363.22A.57.57,0,0,0,324,363a.58.58,0,0,0,.18-.43V340.53l28.9,5.56a.63.63,0,0,0,.5-.13.62.62,0,0,0,.22-.47l0-22.07L382.74,329a.63.63,0,0,0,.5-.13.62.62,0,0,0,.22-.47V305.56a.61.61,0,1,0-1.21,0v22.09l-28.92-5.56a.61.61,0,0,0-.72.6l0,22.06-28.9-5.56a.63.63,0,0,0-.5.13.62.62,0,0,0-.22.47V362L284,362h0a.61.61,0,0,0-.61.61.61.61,0,0,0,.61.61l39.52,0Z" style="fill:#fff"></path><path d="M284,340.4a.6.6,0,0,0,.43-.18.6.6,0,0,0,.18-.43V317.71l28.9,5.56a.61.61,0,0,0,.72-.6l0-22.06,28.91,5.56a.64.64,0,0,0,.51-.13.6.6,0,0,0,.22-.47V282.75a.61.61,0,0,0-1.22,0v22.09l-28.91-5.57a.58.58,0,0,0-.5.13.6.6,0,0,0-.23.47l0,22.07-28.9-5.56a.61.61,0,0,0-.51.12.62.62,0,0,0-.22.47v22.22l-38.91,0h0a.61.61,0,1,0,0,1.21l39.52,0Z" style="fill:#fff"></path><path d="M244.51,317.58a.61.61,0,0,0,.43-.17.6.6,0,0,0,.18-.43V294.89L274,300.45a.6.6,0,0,0,.5-.13.59.59,0,0,0,.22-.47l0-22.06,28.92,5.56a.59.59,0,0,0,.5-.13.6.6,0,0,0,.22-.47V259.93a.61.61,0,0,0-.61-.61.61.61,0,0,0-.61.61V282l-28.91-5.56a.59.59,0,0,0-.5.12.62.62,0,0,0-.22.47l0,22.07-28.9-5.56a.6.6,0,0,0-.5.13.59.59,0,0,0-.22.47v22.21l-38.91,0h0a.61.61,0,1,0,0,1.21l39.52,0Z" style="fill:#fff"></path><path d="M205,294.77a.6.6,0,0,0,.43-.18.6.6,0,0,0,.18-.43V272.07l28.9,5.56a.6.6,0,0,0,.72-.59l0-22.07,28.91,5.56a.61.61,0,0,0,.5-.12.6.6,0,0,0,.23-.47V237.11a.61.61,0,0,0-.61-.61.61.61,0,0,0-.61.61V259.2l-28.91-5.56a.61.61,0,0,0-.51.12.62.62,0,0,0-.22.47l0,22.07-28.9-5.56a.61.61,0,0,0-.51.13.6.6,0,0,0-.22.47v22.21l-38.92,0h0a.6.6,0,0,0-.6.61.61.61,0,0,0,.6.61l39.52,0Z" style="fill:#fff"></path></g></g><g id="freepik--Pictures--inject-37"><g id="freepik--Picture--inject-37"><g id="freepik--Frame--inject-37"><polygon points="224.54 84.51 223.18 85.32 195.23 69.19 196.59 68.38 224.54 84.51" style="fill:#fafafa"></polygon><polygon points="196.59 68.38 223.18 83.72 223.18 55.89 196.59 40.55 196.59 68.38" style="fill:#fff"></polygon><path d="M192.66,70.67l33.08,19.1V54.4L192.66,35.3Zm2.57-30.92,27.94,16.14V85.32l-28-16.13Z" style="fill:#f0f0f0"></path><polygon points="195.23 69.19 196.59 68.38 196.59 40.55 195.23 39.75 195.23 69.19" style="fill:#e0e0e0"></polygon><polygon points="192.66 35.3 194.04 34.51 227.13 53.61 225.75 54.4 192.66 35.3" style="fill:#fafafa"></polygon><polygon points="227.13 53.61 225.75 54.4 225.75 89.78 227.13 88.98 227.13 53.61" style="fill:#e0e0e0"></polygon></g><g id="freepik--Land--inject-37"><polygon points="197.63 67.55 222.14 81.7 222.14 74.62 216.01 60.47 212.19 64.01 213.57 69.94 205.1 51.84 197.63 60.47 197.63 67.55" style="fill:#f0f0f0"></polygon><path d="M212.42,53.64a4,4,0,0,1,1.82,3.14c0,1.16-.82,1.62-1.82,1a4,4,0,0,1-1.81-3.14C210.61,53.53,211.42,53.06,212.42,53.64Z" style="fill:#f0f0f0"></path></g></g><g id="freepik--picture--inject-37"><g id="freepik--frame--inject-37"><polygon points="278.14 82.13 276.78 82.94 248.84 66.81 250.2 66 278.14 82.13" style="fill:#fafafa"></polygon><polygon points="250.2 66 276.78 81.34 276.78 53.51 250.2 38.17 250.2 66" style="fill:#fff"></polygon><path d="M246.27,68.29l33.08,19.1V52l-33.08-19.1Zm2.57-30.92,27.94,16.14V82.94L248.84,66.81Z" style="fill:#f0f0f0"></path><polygon points="248.84 66.81 250.2 66 250.2 38.17 248.84 37.37 248.84 66.81" style="fill:#e0e0e0"></polygon><polygon points="246.26 32.92 247.65 32.13 280.73 51.23 279.35 52.02 246.26 32.92" style="fill:#fafafa"></polygon><polygon points="280.73 51.23 279.35 52.02 279.35 87.39 280.73 86.6 280.73 51.23" style="fill:#e0e0e0"></polygon></g><g id="freepik--land--inject-37"><polygon points="251.24 65.17 275.74 79.31 275.74 72.24 269.61 58.09 265.8 61.63 267.17 67.56 258.71 49.46 251.24 58.09 251.24 65.17" style="fill:#f0f0f0"></polygon><path d="M266,51.26a4,4,0,0,1,1.81,3.14c0,1.16-.81,1.62-1.81,1.05a4,4,0,0,1-1.81-3.14C264.22,51.15,265,50.68,266,51.26Z" style="fill:#f0f0f0"></path></g></g></g><g id="freepik--Television--inject-37"><g id="freepik--tv-stand--inject-37"><path d="M263.87,222.39l139.92,80.78a4.87,4.87,0,0,0,4.4,0L445,281.9a4.86,4.86,0,0,0,2.2-3.8V211.75A4.86,4.86,0,0,0,445,208L305.11,127.16a4.87,4.87,0,0,0-4.4,0l-36.84,21.27a4.88,4.88,0,0,0-2.2,3.81v66.34A4.88,4.88,0,0,0,263.87,222.39Z" style="fill:#263238"></path><path d="M306.63,195.94a2.06,2.06,0,0,1-.68-1.17l-41.23,23.81a2,2,0,0,0,.67,1.17L403,299.17l41.23-23.81Z" style="fill:#37474f"></path><g id="freepik--V--inject-37"><path id="freepik--shadow--inject-37" d="M358.59,270.28l37.19-21.47a.45.45,0,0,0,0-.86l-44.07-25.3a1.61,1.61,0,0,0-1.48,0L313.12,244a.45.45,0,0,0,0,.86l44,25.38A1.61,1.61,0,0,0,358.59,270.28Z" style="fill:#263238"></path><path d="M360.42,266.48l-1-.59a1.65,1.65,0,0,1,.87-.06C360.52,266,360.42,266.48,360.42,266.48Z"></path><path d="M361.13,265.83a1.25,1.25,0,0,0-1.84,0c-1,.92-1.06,1.83-1.47,1.82s-.41-7.36-.41-7.36l3.95,3.68Z"></path><path d="M319.68,239.13l-.06,0,.63-.36L347.54,223l39.77,25.74c.66.38.78.92.26,1.22l-.93.53L361.13,265.2l-.18-.13Z" style="fill:#455a64"></path><path d="M357.73,256.82l2-.41v7.91c-1.19.51-1.95,1-2.07,2Z" style="fill:#B0BEC5"></path><path d="M360.58,264.42l25.27-14.59a1.73,1.73,0,0,0,.79-1.37v-7.8l-25.51,14.86a2.37,2.37,0,0,1-1.21,1.45c-.91.35-.22.7-.22.7v6.65C360.48,264.23,360.58,264.42,360.58,264.42Z" style="fill:#ebebeb"></path><path d="M358.25,256.55c.26-.16.46-.16.46,0v.24c0,.28.42.27.94,0s.93-.76.93-1v-.25c0-.14.36-.45.79-.71l-41.11-23.55c-.26.14-.64.37-.64.37a.57.57,0,0,0-.16.34v.24c0,.28-.41.74-.93,1s-.93.31-.93,0V233c0-.14-.21-.13-.47,0Z" style="fill:#37474f"></path><path d="M319.68,231.59l-.06,0,.63-.37,27.29-15.76,39.77,23c.66.38.78.92.26,1.22l-.93.53-25.51,15.37Z" style="fill:#455a64"></path><path d="M317.59,232.73l41.08,23.72-1.44,1.12-41-23.64a1.57,1.57,0,0,1,.55-.76Z" style="fill:#455a64"></path><path d="M316.44,244.55l-.07-.05-.05,0a.44.44,0,0,1-.08-.11l0-.06a.94.94,0,0,1-.1-.23,1.71,1.71,0,0,1-.09-.27l-.06-.31a1.11,1.11,0,0,1,0-.19s0-.09,0-.15,0-.23,0-.36V236a5.62,5.62,0,0,1,.38-2.07l41,23.64.18,10.64-41-23.65Z" style="fill:#455a64"></path><path d="M357.23,257.57h0L322.05,241.1c-1.94-.92-2.89,1-2.43,3a9.32,9.32,0,0,0,2.11,3.52h0l-5.27-3h0l-.07-.05-.05,0a.44.44,0,0,1-.08-.11l0-.06a.94.94,0,0,1-.1-.23,1.71,1.71,0,0,1-.09-.27l-.06-.31a1.11,1.11,0,0,1,0-.19s0-.09,0-.15,0-.23,0-.36V236a5.62,5.62,0,0,1,.38-2.07Z" style="opacity:0.1"></path><path d="M356.85,259.64h.92a4.08,4.08,0,0,1,.45-2,1.17,1.17,0,0,0,.75.25,2.36,2.36,0,0,0,1.14-.36,3.44,3.44,0,0,0,1.06-.93.35.35,0,0,0,.05-.08,1.49,1.49,0,0,0,.28-.79l24.2-14,.82-.48,1.05-.6a.55.55,0,0,0,.32-.47v-1.08a.57.57,0,0,1-.32.49h0l-2.78,1.6-23.41,13.51c-.43.26-.79.57-.79.71v.25a.8.8,0,0,1-.21.44,2.73,2.73,0,0,1-.72.6c-.52.3-.93.31-.93,0v-.24c0-.14-.21-.14-.47,0l-.46.27C357.27,257.11,356.85,258.38,356.85,259.64Z" style="fill:#37474f"></path><path d="M357.77,259.64v6.79c0,.1,0,.19,0,.29l0,.22a0,0,0,0,0,0,0,2.66,2.66,0,0,1,1.38-1.73,2.32,2.32,0,0,1,1.12-.34,1.21,1.21,0,0,1,.82.3l.08-.05.16-.09,23.41-13.52,1.34-.77.39-.23,1.13-.65a.54.54,0,0,0,.25-.44v1.07a.52.52,0,0,1-.23.41h0l-.42.24-.26.15-.45.27-.28.16-.19.11-.35.2L367.11,262.8l-5.94,3.43c-.42.25-.76.33-.79.21v-.29c0-.3-.42-.3-.93,0a1.21,1.21,0,0,0-.73.94v.29a.43.43,0,0,1-.14.35l-.14.08-.29.17-.36.21a.41.41,0,0,1-.47,0,.1.1,0,0,1,0,0,.33.33,0,0,1-.09-.11h0l0-.06a.74.74,0,0,1-.1-.22l-.09-.27a2.87,2.87,0,0,1,0-.31,1.25,1.25,0,0,1,0-.19c0-.05,0-.1,0-.15s0-.23,0-.36v-6.79Z" style="fill:#37474f"></path><path d="M316.28,233.93,355.2,256.4l29.42-17a.48.48,0,0,0,0-.91l-38.51-22.24-25.85,14.93h0l-.63.37a.57.57,0,0,0-.16.34v.24c0,.28-.42.74-.93,1l-.08,0-.86-.49-.41.23-.05,0h0l-.3.18A1.64,1.64,0,0,0,316.28,233.93Z" style="opacity:0.1"></path><path d="M382.43,239.58l-1.17-.62,1.07-.26A.8.8,0,0,1,382.43,239.58Z" style="fill:#B0BEC5"></path><path d="M382.43,239.58l-1.17-.62,1.07-.26A.8.8,0,0,1,382.43,239.58Z" style="opacity:0.5"></path><path d="M351.41,255.21a2.63,2.63,0,0,0,2.38,0l26.74-15.44-40-22.73-.94-.54-26.73,15.06a.72.72,0,0,0,0,1.37Z" style="fill:#B0BEC5"></path><path d="M361.45,226.42l9.32,5.37,6-3.49,7,4.06V237c0,.62-.69,1.49-.94,1.35a6.82,6.82,0,0,0-1.34.47,10.45,10.45,0,0,0-1.94,1.44l-21.42-12Z" style="fill:#B0BEC5"></path><path d="M361.45,226.42l9.32,5.37,6-3.49,7,4.06V237c0,.62-.69,1.49-.94,1.35a6.82,6.82,0,0,0-1.34.47,10.45,10.45,0,0,0-1.94,1.44l-21.42-12Z" style="opacity:0.15"></path><path d="M380,232.92V238l.08,0a2.33,2.33,0,0,1,1.14-.36,1.14,1.14,0,0,1,.75.18v-6Z" style="fill:#37474f"></path><path d="M378.67,239.76a1.62,1.62,0,0,1,.33-.87,3.9,3.9,0,0,1,.33-.38.57.57,0,0,0,.11-.11l.15-.12.12-.09L380,238V233l-1.31.75v6.06Z" style="fill:#e0e0e0"></path><path d="M383.83,237c0,.62-.69,1.49-.94,1.35h0l-.94-.61v-3.87l.94-1.61.52-.19.42.25Z" style="opacity:0.4"></path><path d="M352.6,248.73v5.8a1.6,1.6,0,0,0,.8-.19l2.93-1.69,22.34-12.89v-6.08Z" style="fill:#ebebeb"></path><path d="M313.51,226.93v4.38a1.77,1.77,0,0,0,.79,1.38l34.58,20,2.93,1.69a1.57,1.57,0,0,0,.79.19v-5.15Z" style="fill:#f5f5f5"></path><path d="M340.51,209.5l40,23.1v.54c0,.3.42.41.93.11s.93-.67.93-1.18l.05-.51L341.67,208l-.17-.1a.59.59,0,0,0-.07.25v.25C341.43,208.72,341,209.19,340.51,209.5Z" style="fill:#B0BEC5"></path><path d="M340.51,209.5l40,23.1v.54c0,.3.42.41.93.11s.93-.67.93-1.18l.05-.51L341.67,208l-.17-.1a.59.59,0,0,0-.07.25v.25C341.43,208.72,341,209.19,340.51,209.5Z" style="opacity:0.1"></path><path d="M353.79,248,379.94,233c.33-.18.63-.32.76-.25l-.17-.1-40-23.1-.47-.27a1.5,1.5,0,0,0-1.26.18l-25.94,15a.73.73,0,0,0,0,1.38L351.41,248A2.63,2.63,0,0,0,353.79,248Z" style="fill:#B0BEC5"></path><path d="M341.5,207.92l.17.1,40.77,23.54a.38.38,0,0,1,.09-.11l.14-.08.29-.17.36-.21a.39.39,0,0,1,.47,0s0,0,0,0a1.09,1.09,0,0,1,.13.17,1.6,1.6,0,0,1,.1.23,2.76,2.76,0,0,1,.08.27,1.55,1.55,0,0,1,.06.31,1.08,1.08,0,0,1,0,.19s0,.09,0,.15,0,.23,0,.36V231.6a2.43,2.43,0,0,0-1.19-1.83l-38.57-22.28a2.42,2.42,0,0,0-2.13-.15l-.48.29h0l-.21.11h0A.39.39,0,0,0,341.5,207.92Z" style="fill:#B0BEC5"></path><path d="M353.79,255.2l1.62-.93,24.2-14a1.54,1.54,0,0,1,.33-.87,3.44,3.44,0,0,1,1.06-.93,2.33,2.33,0,0,1,1.14-.36,1.19,1.19,0,0,1,.75.25,4.08,4.08,0,0,0,.45-2h.91c0,1.26-.41,2.53-.93,2.82l-.46.27c-.26.16-.47.16-.47,0v-.24c0-.28-.41-.27-.93,0s-.93.76-.93,1v.25c0,.14-.36.45-.79.71L356.33,254.8l-2.54,1.46h0a2.55,2.55,0,0,1-1.19.28v-1.06A2.33,2.33,0,0,0,353.79,255.2Z" style="fill:#B0BEC5"></path><path d="M353.79,255.2l1.62-.93,24.2-14a1.54,1.54,0,0,1,.33-.87,3.44,3.44,0,0,1,1.06-.93,2.33,2.33,0,0,1,1.14-.36,1.19,1.19,0,0,1,.75.25,4.08,4.08,0,0,0,.45-2h.91c0,1.26-.41,2.53-.93,2.82l-.46.27c-.26.16-.47.16-.47,0v-.24c0-.28-.41-.27-.93,0s-.93.76-.93,1v.25c0,.14-.36.45-.79.71L356.33,254.8l-2.54,1.46h0a2.55,2.55,0,0,1-1.19.28v-1.06A2.33,2.33,0,0,0,353.79,255.2Z" style="opacity:0.30000000000000004"></path><path d="M353.79,248.05h0l1.62-.93L374,236.38l5.94-3.43c.42-.25.76-.34.79-.21V233c0,.29.42.29.93,0a1.25,1.25,0,0,0,.73-.94v-.29a.43.43,0,0,1,.14-.35l.14-.08.29-.17.36-.21a.39.39,0,0,1,.47,0s0,0,0,0l.09.11,0,.06a1.6,1.6,0,0,1,.1.23,2.76,2.76,0,0,1,.08.27,1.55,1.55,0,0,1,.06.31,1.08,1.08,0,0,1,0,.19s0,.09,0,.15,0,.23,0,.36v3.64h-.91v-3.64c0-.1,0-.2,0-.29l0-.23v0a2.62,2.62,0,0,1-1.38,1.72,2.32,2.32,0,0,1-1.12.35,1.21,1.21,0,0,1-.82-.3l-.08.05-.16.09-23.41,13.52-2.54,1.46h0s0,0,0,0a2.46,2.46,0,0,1-1.17.27v-1A2.55,2.55,0,0,0,353.79,248.05Z" style="fill:#B0BEC5"></path><path d="M353.79,248.05h0l1.62-.93L374,236.38l5.94-3.43c.42-.25.76-.34.79-.21V233c0,.29.42.29.93,0a1.25,1.25,0,0,0,.73-.94v-.29a.43.43,0,0,1,.14-.35l.14-.08.29-.17.36-.21a.39.39,0,0,1,.47,0s0,0,0,0l.09.11,0,.06a1.6,1.6,0,0,1,.1.23,2.76,2.76,0,0,1,.08.27,1.55,1.55,0,0,1,.06.31,1.08,1.08,0,0,1,0,.19s0,.09,0,.15,0,.23,0,.36v3.64h-.91v-3.64c0-.1,0-.2,0-.29l0-.23v0a2.62,2.62,0,0,1-1.38,1.72,2.32,2.32,0,0,1-1.12.35,1.21,1.21,0,0,1-.82-.3l-.08.05-.16.09-23.41,13.52-2.54,1.46h0s0,0,0,0a2.46,2.46,0,0,1-1.17.27v-1A2.55,2.55,0,0,0,353.79,248.05Z" style="opacity:0.30000000000000004"></path><path d="M312.35,225.07v1.07a.81.81,0,0,0,.47.68h0l36,20.81,2.53,1.46h0a2.39,2.39,0,0,0,1.18.28v-1a2.44,2.44,0,0,1-1.19-.29l-1.61-.93h0l-37-21.34A.82.82,0,0,1,312.35,225.07Z" style="fill:#B0BEC5"></path><path d="M312.35,225.07v1.07a.81.81,0,0,0,.47.68h0l36,20.81,2.53,1.46h0a2.39,2.39,0,0,0,1.18.28v-1a2.44,2.44,0,0,1-1.19-.29l-1.61-.93h0l-37-21.34A.82.82,0,0,1,312.35,225.07Z" style="opacity:0.2"></path><path d="M312.35,232.23v1.08a.8.8,0,0,0,.47.67h0l36,20.81,2.53,1.46h0a2.51,2.51,0,0,0,1.18.28v-1.06a2.33,2.33,0,0,1-1.19-.29l-1.61-.93h0l-37-21.34A.81.81,0,0,1,312.35,232.23Z" style="fill:#B0BEC5"></path><path d="M312.35,232.23v1.08a.8.8,0,0,0,.47.67h0l36,20.81,2.53,1.46h0a2.51,2.51,0,0,0,1.18.28v-1.06a2.33,2.33,0,0,1-1.19-.29l-1.61-.93h0l-37-21.34A.81.81,0,0,1,312.35,232.23Z" style="opacity:0.2"></path></g><polygon points="305.95 161.6 264.72 185.41 367.8 244.92 409.04 221.12 305.95 161.6" style="fill:#37474f"></polygon><polygon points="264.72 185.41 264.72 189.56 367.45 248.87 367.45 244.72 264.72 185.41" style="fill:#455a64"></polygon><path d="M333.58,198.41l-19.87,11.47a3.94,3.94,0,0,1-3.57,0l-38.25-22.09a1.09,1.09,0,0,1,0-2.06l19.87-11.47a3.94,3.94,0,0,1,3.57,0l38.25,22.09A1.09,1.09,0,0,1,333.58,198.41Z" style="fill:#263238"></path><g id="freepik--Console--inject-37"><path d="M313.46,207.56l17.72-10.23a3.52,3.52,0,0,0,1.59-2.76v.21a3.52,3.52,0,0,0-1.59-2.76l-35.65-20.58a3.56,3.56,0,0,0-3.18,0l-17.72,10.24a3.5,3.5,0,0,0-1.59,2.75v-.2a3.53,3.53,0,0,0,1.59,2.76l35.64,20.57A3.52,3.52,0,0,0,313.46,207.56Z" style="fill:#B0BEC5"></path><path d="M313.46,207.56l17.72-10.23a3.52,3.52,0,0,0,1.59-2.76v.21a3.52,3.52,0,0,0-1.59-2.76l-35.65-20.58a3.56,3.56,0,0,0-3.18,0l-17.72,10.24a3.5,3.5,0,0,0-1.59,2.75v-.2a3.53,3.53,0,0,0,1.59,2.76l35.64,20.57A3.52,3.52,0,0,0,313.46,207.56Z" style="opacity:0.15"></path><path d="M311.87,180.87,331.19,192a3.52,3.52,0,0,1,1.59,2.76v-.21a3.52,3.52,0,0,1-1.59,2.76l-17.72,10.23a3.21,3.21,0,0,1-1.6.38Z" style="fill:#263238;opacity:0.2"></path><path d="M331.19,193.86l-17.73,10.23a3.5,3.5,0,0,1-3.18,0l-35.64-20.58a1,1,0,0,1,0-1.83l17.72-10.24a3.56,3.56,0,0,1,3.18,0L331.19,192A1,1,0,0,1,331.19,193.86Z" style="fill:#B0BEC5"></path><path d="M331.19,193.86l-17.73,10.23a3.5,3.5,0,0,1-3.18,0l-35.64-20.58a1,1,0,0,1,0-1.83l17.72-10.24a3.56,3.56,0,0,1,3.18,0L331.19,192A1,1,0,0,1,331.19,193.86Z" style="opacity:0.4"></path><path d="M331.19,190.5v1.69l-18.4,10.62a1.63,1.63,0,0,1-.66.23,1.79,1.79,0,0,1-1.17-.23l-36.32-21v-1.76l35.64,20.64a3.52,3.52,0,0,0,3.18,0Z" style="fill:#B0BEC5"></path><path d="M331.19,190.5v1.69l-18.4,10.62a1.63,1.63,0,0,1-.66.23,1.79,1.79,0,0,1-1.17-.23l-36.32-21v-1.76l35.64,20.64a3.52,3.52,0,0,0,3.18,0Z" style="fill:#fff;opacity:0.6000000000000001"></path><path d="M331.19,190.5v1.69l-18.4,10.62a1.63,1.63,0,0,1-.66.23h-.26v-1.94a3.28,3.28,0,0,0,1.59-.38Z" style="fill:#B0BEC5;opacity:0.2"></path><path d="M313.46,200.73l17.73-10.23a3.53,3.53,0,0,0,1.59-2.76v-3.28a3.53,3.53,0,0,0-1.59-2.76l-35.65-20.57a3.5,3.5,0,0,0-3.18,0l-17.72,10.23a3.51,3.51,0,0,0-1.59,2.75v3.28a3.39,3.39,0,0,0,1.59,2.7l35.64,20.64A3.5,3.5,0,0,0,313.46,200.73Z" style="fill:#B0BEC5"></path><path d="M313.46,200.73l17.73-10.23a3.53,3.53,0,0,0,1.59-2.76v-3.28a3.53,3.53,0,0,0-1.59-2.76l-35.65-20.57a3.5,3.5,0,0,0-3.18,0l-17.72,10.23a3.51,3.51,0,0,0-1.59,2.75v3.28a3.39,3.39,0,0,0,1.59,2.7l35.64,20.64A3.5,3.5,0,0,0,313.46,200.73Z" style="opacity:0.15"></path><path d="M311.87,170.55l19.32,11.15a3.53,3.53,0,0,1,1.59,2.76v3.28a3.53,3.53,0,0,1-1.59,2.76l-17.73,10.23a3.28,3.28,0,0,1-1.59.38Z" style="fill:#263238;opacity:0.2"></path><path d="M331.19,183.54l-17.73,10.23a3.5,3.5,0,0,1-3.18,0L274.64,173.2a1,1,0,0,1,0-1.84l17.72-10.23a3.5,3.5,0,0,1,3.18,0l35.65,20.57A1,1,0,0,1,331.19,183.54Z" style="fill:#B0BEC5"></path><path d="M331.19,183.54l-17.73,10.23a3.5,3.5,0,0,1-3.18,0L274.64,173.2a1,1,0,0,1,0-1.84l17.72-10.23a3.5,3.5,0,0,1,3.18,0l35.65,20.57A1,1,0,0,1,331.19,183.54Z" style="opacity:0.4"></path><path d="M306.47,175.41c2,1.13,2,3,0,4.09a7.94,7.94,0,0,1-7.11,0c-2-1.13-2-3,0-4.09A7.88,7.88,0,0,1,306.47,175.41Z" style="fill:#fafafa"></path><path d="M277.53,176.61a1.35,1.35,0,0,1,.62,1.08c0,.4-.28.57-.62.37a1.35,1.35,0,0,1-.63-1.08C276.9,176.58,277.18,176.41,277.53,176.61Z" style="fill:#fafafa"></path><path d="M277.53,179a1.37,1.37,0,0,1,.62,1.08c0,.4-.28.57-.62.38a1.37,1.37,0,0,1-.63-1.08C276.9,179,277.18,178.81,277.53,179Z" style="fill:#fafafa"></path></g><polygon points="367.45 278.67 408.68 254.87 408.68 190.51 367.45 214.32 367.45 278.67" style="fill:#263238"></polygon><polygon points="364.76 209.22 364.76 280.63 367.45 282.19 367.45 210.77 364.76 209.22" style="fill:#455a64"></polygon><g id="freepik--Books--inject-37"><path d="M372.42,277.61l24.84-14.31a1.86,1.86,0,0,1,1.69,0l15.7,9c.47.27.47.7,0,1L392.5,286.05a1.89,1.89,0,0,1-1.7,0l-6.24-3.61a1.86,1.86,0,0,0-1.69,0l-1,.57a1.86,1.86,0,0,1-1.69,0l-7.78-4.43C372,278.31,372,277.88,372.42,277.61Z" style="fill:#263238"></path><g id="freepik--Book--inject-37"><polygon points="396.28 228.82 376.75 240.24 376.65 277.69 396.19 266.27 396.28 228.82" style="fill:#B0BEC5"></polygon><path d="M377.37,240.86l18.91-11a7.88,7.88,0,0,0,4.31,2.37l-18.75,10.94A19,19,0,0,1,377.37,240.86Z" style="fill:#f5f5f5"></path><path d="M383.66,243.12a4,4,0,0,1-3.63,0l-3.17-1.84a1.11,1.11,0,0,1,0-2.1l18.64-10.82.78.45L378,239.53c-.61.35-.61.92,0,1.26l2.95,1.69a2.43,2.43,0,0,0,2.18,0l18.32-10.69.89.51Z" style="fill:#B0BEC5"></path><path d="M383.66,243.12a4,4,0,0,1-3.63,0l-3.17-1.84a1.11,1.11,0,0,1,0-2.1l18.64-10.82.78.45L378,239.53c-.61.35-.61.92,0,1.26l2.95,1.69a2.43,2.43,0,0,0,2.18,0l18.32-10.69.89.51Z" style="fill:#fff;opacity:0.6000000000000001"></path><path d="M402.29,232.29l-.1,37.45-18.63,10.82a4,4,0,0,1-3.63,0l-3.17-1.83a1.28,1.28,0,0,1-.75-1.05l.1-37.45a1.27,1.27,0,0,0,.74,1l3.18,1.84a4,4,0,0,0,3.63,0Z" style="fill:#B0BEC5"></path><path d="M402.29,232.29l-.1,37.45-18.63,10.82a4,4,0,0,1-3.63,0l-3.17-1.83a1.28,1.28,0,0,1-.75-1.05l.1-37.45a1.27,1.27,0,0,0,.74,1l3.18,1.84a4,4,0,0,0,3.63,0Z" style="fill:#fff;opacity:0.4"></path><path d="M381.84,243.56a3.7,3.7,0,0,1-1.81-.43l-3.18-1.84a1.27,1.27,0,0,1-.74-1l-.1,37.45a1.28,1.28,0,0,0,.75,1.05l3.17,1.83a3.71,3.71,0,0,0,1.82.43Z" style="fill:#B0BEC5"></path><path d="M381.84,243.56a3.7,3.7,0,0,1-1.81-.43l-3.18-1.84a1.27,1.27,0,0,1-.74-1l-.1,37.45a1.28,1.28,0,0,0,.75,1.05l3.17,1.83a3.71,3.71,0,0,0,1.82.43Z" style="fill:#fff;opacity:0.7000000000000001"></path></g><g id="freepik--book--inject-37"><polygon points="403.52 235.23 385.4 245.82 385.31 280.54 403.43 269.95 403.52 235.23" style="fill:#B0BEC5"></polygon><polygon points="403.52 235.23 385.4 245.82 385.31 280.54 403.43 269.95 403.52 235.23" style="opacity:0.35000000000000003"></polygon><path d="M386,246.39l17.53-10.18a7.33,7.33,0,0,0,4,2.2l-17.38,10.14A17.82,17.82,0,0,1,386,246.39Z" style="fill:#fff"></path><path d="M391.81,248.48a3.69,3.69,0,0,1-3.36,0l-2.95-1.7a1,1,0,0,1,0-1.95l17.28-10,.73.42-17,9.93a.62.62,0,0,0,0,1.17l2.74,1.56a2.21,2.21,0,0,0,2,0l17-9.91.83.48Z" style="fill:#B0BEC5"></path><path d="M391.81,248.48a3.69,3.69,0,0,1-3.36,0l-2.95-1.7a1,1,0,0,1,0-1.95l17.28-10,.73.42-17,9.93a.62.62,0,0,0,0,1.17l2.74,1.56a2.21,2.21,0,0,0,2,0l17-9.91.83.48Z" style="opacity:0.2"></path><path d="M409.09,238.45,409,273.16l-17.28,10a3.72,3.72,0,0,1-3.36,0l-2.95-1.7a1.18,1.18,0,0,1-.69-1l.09-34.72a1.18,1.18,0,0,0,.69,1l2.95,1.7a3.69,3.69,0,0,0,3.36,0Z" style="fill:#B0BEC5"></path><path d="M409.09,238.45,409,273.16l-17.28,10a3.72,3.72,0,0,1-3.36,0l-2.95-1.7a1.18,1.18,0,0,1-.69-1l.09-34.72a1.18,1.18,0,0,0,.69,1l2.95,1.7a3.69,3.69,0,0,0,3.36,0Z" style="opacity:0.30000000000000004"></path><path d="M390.13,248.89a3.39,3.39,0,0,1-1.68-.4l-2.95-1.7a1.18,1.18,0,0,1-.69-1l-.09,34.72a1.18,1.18,0,0,0,.69,1l2.95,1.7a3.51,3.51,0,0,0,1.68.4Z" style="fill:#B0BEC5"></path><path d="M390.13,248.89a3.39,3.39,0,0,1-1.68-.4l-2.95-1.7a1.18,1.18,0,0,1-.69-1l-.09,34.72a1.18,1.18,0,0,0,.69,1l2.95,1.7a3.51,3.51,0,0,0,1.68.4Z" style="opacity:0.1"></path></g></g><path d="M404.32,300.47l-2.45,1.59,1.93,1.11a4.85,4.85,0,0,0,4.39,0l19.58-11.3,17.26-10a4.86,4.86,0,0,0,2.2-3.8V211.75a4.5,4.5,0,0,0-.65-2.17L404,234Z" style="fill:#263238"></path><path d="M403.79,231.75,263.87,151c-1.21-.7-2.2-.13-2.2,1.27v66.34a4.88,4.88,0,0,0,2.2,3.81l139.92,80.78c1.22.7,2.2.13,2.2-1.27V235.56A4.85,4.85,0,0,0,403.79,231.75ZM403,299.17,265.39,219.75a2,2,0,0,1-.67-1.17V155l137.55,79.41a2,2,0,0,1,.68,1.17Z" style="fill:#455a64"></path><path d="M446.58,209.58l-41.29,23.71a4.43,4.43,0,0,0-1.5-1.54L263.87,151c-1-.59-1.86-.28-2.13.64a5,5,0,0,1,2.13-3.18l36.84-21.26a4.81,4.81,0,0,1,4.4,0L445,208A4.43,4.43,0,0,1,446.58,209.58Z" style="fill:#37474f"></path></g><g id="freepik--Pot--inject-37"><path d="M290.05,146.48c3.53,2,3.53,5.34,0,7.38a14.15,14.15,0,0,1-12.77,0c-3.52-2-3.52-5.34,0-7.38A14.15,14.15,0,0,1,290.05,146.48Z" style="fill:#263238"></path><path d="M278.05,150.62c-3.07-3.13-4.87-11-1.88-13.44h15.25c3,2.48,1.19,10.3-1.88,13.44l-.09.09-.1.1-.28.25-.07.05-.23.18c-.14.09-.27.18-.4.25a10.1,10.1,0,0,1-9.15,0h0a3.34,3.34,0,0,1-.4-.25l-.22-.16-.09-.08-.26-.23-.13-.12Z" style="fill:#ebebeb"></path><path d="M290.09,136.18c3.48,2,3.48,5.26,0,7.27a13.9,13.9,0,0,1-12.59,0c-3.48-2-3.48-5.26,0-7.27A13.9,13.9,0,0,1,290.09,136.18Z" style="fill:#fafafa"></path><path d="M287.63,137.6c2.11,1.22,2.11,3.2,0,4.43a8.49,8.49,0,0,1-7.67,0c-2.11-1.23-2.11-3.21,0-4.43A8.49,8.49,0,0,1,287.63,137.6Z" style="fill:#ebebeb"></path><path d="M280,139.7a8.49,8.49,0,0,1,7.67,0,3.58,3.58,0,0,1,1.26,1.16,3.51,3.51,0,0,1-1.26,1.17,8.49,8.49,0,0,1-7.67,0,3.51,3.51,0,0,1-1.26-1.17A3.58,3.58,0,0,1,280,139.7Z" style="fill:#e0e0e0"></path><path d="M287.16,140.86a17.41,17.41,0,0,0,2.77-3.68c1.28-2.26,1.52-5.3.85-5.67s-3.35,2.65-3.35,2.65a16.08,16.08,0,0,0,.28-3.86c-.11-2-.6-3.85-1.18-4.22s-1.87,2.17-2.42,4-.89,3.35-.89,3.35a27.64,27.64,0,0,0-1-4.24c-.67-1.91-1.28-2.34-1.75-2.15s-.79,1.08-.92,3.63a25,25,0,0,0,.11,3.64s-.95-1-2-2.05-1.66-1.27-2-1.06-.42,1.95,1.37,5.19a17.92,17.92,0,0,0,3.39,4.45S282.92,142.46,287.16,140.86Z" style="fill:#B0BEC5"></path></g><g id="freepik--TV--inject-37"><path id="freepik--shadow--inject-37" d="M309.39,137.46l-2,1.16a1.34,1.34,0,0,0,0,2.54l39.43,22.77a1.34,1.34,0,0,1,0,2.53l-5.93,3.42a1.34,1.34,0,0,0,0,2.54l21.88,12.63a4.85,4.85,0,0,0,4.39,0l5.93-3.42a4.85,4.85,0,0,1,4.39,0l39.62,22.88a4.87,4.87,0,0,0,4.4,0l2-1.17a1.34,1.34,0,0,0,0-2.53L313.78,137.46A4.85,4.85,0,0,0,309.39,137.46Z" style="fill:#263238"></path><path d="M356.61,139.08l14.93,8.62a2.82,2.82,0,0,1,1.2,1.72l3.71,26.38a1.77,1.77,0,0,1-.81,1.72L366,183.08a2.22,2.22,0,0,1-2,0L343.43,171.2a1.89,1.89,0,0,1,0-3.33l7.41-4.28a2.56,2.56,0,0,0,1.12-1.73l1.64-21.12a2.49,2.49,0,0,1,1.06-1.7A2.16,2.16,0,0,1,356.61,139.08Z" style="fill:#37474f"></path><path d="M356.61,139.08l14.93,8.62a2.82,2.82,0,0,1,1.2,1.72l3.71,26.38a1.77,1.77,0,0,1-.81,1.72L366,183.08a2.22,2.22,0,0,1-2,0L343.43,171.2a1.89,1.89,0,0,1,0-3.33l7.41-4.28a2.56,2.56,0,0,0,1.12-1.73l1.64-21.12a2.49,2.49,0,0,1,1.06-1.7A2.16,2.16,0,0,1,356.61,139.08Z" style="opacity:0.15"></path><path d="M365,179.31v4a2.05,2.05,0,0,1-1-.24L343.43,171.2a2.17,2.17,0,0,1-1-1.67,2,2,0,0,1,.4-1.08h3.36Z" style="fill:#37474f"></path><path d="M354.72,140.16l14.93,8.62a2.8,2.8,0,0,1,1.21,1.72l3.36,24.41a1.78,1.78,0,0,1-.8,1.72L366,180.9a2.22,2.22,0,0,1-2,0L343.43,169a.61.61,0,0,1,0-1.15l7.41-4.28a2.56,2.56,0,0,0,1.12-1.73l1.64-21.12A.7.7,0,0,1,354.72,140.16Z" style="fill:#37474f"></path><path d="M354.72,140.16a.7.7,0,0,0-1.12.58l-1.12,14.41,20.66,11.93-2.28-16.58a2.8,2.8,0,0,0-1.21-1.72Z" style="opacity:0.15"></path><path d="M343.43,167.87l7.41-4.28a2.31,2.31,0,0,0,.73-.73l22.51,13a1.69,1.69,0,0,1-.66.78L366,180.9a2.22,2.22,0,0,1-2,0L343.43,169A.61.61,0,0,1,343.43,167.87Z" style="fill:#455a64"></path><path d="M421.43,191.05l.21-.12a3.12,3.12,0,0,0,1.4-2.43V110.38a3.11,3.11,0,0,0-1.4-2.43L314.44,46.31a3.12,3.12,0,0,0-2.81,0h0a3.09,3.09,0,0,0-1.4,2.43v78.12a3.12,3.12,0,0,0,1.4,2.43l107,61.76A3.09,3.09,0,0,0,421.43,191.05Z" style="fill:#455a64"></path><path d="M418.15,111.59l4.48-2.59a2.89,2.89,0,0,1,.41,1.38V188.5a3.12,3.12,0,0,1-1.4,2.43l-.21.12a3.09,3.09,0,0,1-2.81,0l-.47-.28Z" style="fill:#263238"></path><path d="M420,190.24V112.12a3.11,3.11,0,0,0-1.41-2.43l-107-61.76c-.77-.45-1.4-.09-1.4.81v78.12a3.12,3.12,0,0,0,1.4,2.43l107,61.76C419.4,191.5,420,191.13,420,190.24Z" style="fill:#37474f"></path><path d="M365.13,156.74l-5.72-3.31c-.43-.25-.78-.07-.78.39a1.66,1.66,0,0,0,.78,1.29l5.72,3.31c.43.24.78.07.78-.4A1.64,1.64,0,0,0,365.13,156.74Z" style="fill:#e0e0e0"></path><path d="M416.43,111.65,314,52.39c-.44-.25-.8,0-.8.47v69.88a1.77,1.77,0,0,0,.81,1.39l102.42,59.13c.44.26.8.05.8-.46V113A1.79,1.79,0,0,0,416.43,111.65Z" style="fill:#fff"></path><path d="M344.44,86.66l-.19-.37,0-.07c-2.75-5.23-6.4-9.35-10.29-11.59-3.72-2.15-7.26-2.33-10-.5l-.23.16-.12.08c-2.75,2.08-4.27,6.09-4.27,11.29a36,36,0,0,0,4.27,16.23c2.76,5.27,6.43,9.41,10.32,11.66s7.57,2.34,10.33.26,4.27-6.1,4.27-11.29A35.84,35.84,0,0,0,344.44,86.66Zm-8.93,25.6c-.32-.14-.65-.28-1-.45l-.12-.06v-8.93a17.73,17.73,0,0,1,1.79,1.22l.28.22a23.61,23.61,0,0,1,2.93,2.84,14.82,14.82,0,0,1-.87,2.32C337.69,111.2,336.64,112.15,335.51,112.26Zm-3.17-36.34c.32.14.65.28,1,.45l.1,0v8.89A18.45,18.45,0,0,1,331.67,84l-.28-.24a24.68,24.68,0,0,1-2.88-3,16.15,16.15,0,0,1,.79-2.06C330.16,77,331.21,76,332.34,75.92ZM334.42,77l.12.07c.32.21.65.44,1,.67a19.87,19.87,0,0,1,3,6.35c.33,1.06.62,2.17.87,3.31a9.23,9.23,0,0,1-2.93-.53l-.29-.1a14.32,14.32,0,0,1-1.78-.85Zm-3.2,7.92.3.25a19.87,19.87,0,0,0,1.89,1.39v6.58l-6.08-3.5a34.45,34.45,0,0,1,.9-7.78A25.55,25.55,0,0,0,331.22,84.93Zm2.19,9.57V101a13.77,13.77,0,0,0-1.89-.81l-.3-.09a9.36,9.36,0,0,0-3-.39,50.18,50.18,0,0,1-.89-8.74Zm-2,7,.28.09a12.68,12.68,0,0,1,1.74.73v8.88l-.1-.06c-.32-.21-.65-.44-1-.68a19.7,19.7,0,0,1-3-6.34c-.29-1-.55-1.94-.79-3A8.61,8.61,0,0,1,331.39,101.46Zm5.24,1.64-.3-.24a20.16,20.16,0,0,0-1.91-1.3V95.08l6.09,3.52a35.26,35.26,0,0,1-.82,7.45A24.82,24.82,0,0,0,336.63,103.1Zm-2.21-9.36V87.19a14.36,14.36,0,0,0,1.91.91l.3.1a9.85,9.85,0,0,0,3.06.59,50.24,50.24,0,0,1,.83,8.47Zm4.8-9.95a30.81,30.81,0,0,0-1.72-4.35,29.46,29.46,0,0,1,5.34,7.13,6.52,6.52,0,0,1-2.06.74l-.25,0-.38,0C339.88,86.14,339.57,84.94,339.22,83.79Zm-8.87-8.47a7.24,7.24,0,0,0-1.72,2.36,17,17,0,0,0-.84,2.21l-.34-.44-.25-.35a31.28,31.28,0,0,1-1.89-3A6.93,6.93,0,0,1,330.35,75.32Zm-5.73,1.25A34.53,34.53,0,0,0,326.74,80l.26.36c.16.22.33.43.49.64a36.54,36.54,0,0,0-.95,8.24l-5.63-3.26C321,81.66,322.33,78.36,324.62,76.57Zm1.92,14a52.3,52.3,0,0,0,.95,9.27l-.49.07-.26.06a6.79,6.79,0,0,0-2.14.93,32.52,32.52,0,0,1-3.69-13.58Zm.66,10.78a1.83,1.83,0,0,1,.25-.06c.11,0,.22,0,.34,0q.38,1.65.84,3.18a30.49,30.49,0,0,0,1.72,4.36,29,29,0,0,1-5.06-6.62A6.58,6.58,0,0,1,327.2,101.31Zm12,9.18a16.38,16.38,0,0,0,.93-2.5l.38.46.25.34a34,34,0,0,1,2.06,3.14,6.91,6.91,0,0,1-5.34.93A7.19,7.19,0,0,0,339.22,110.49Zm4.29.92a36.63,36.63,0,0,0-2.3-3.51l-.27-.35c-.16-.21-.34-.41-.51-.62a36.27,36.27,0,0,0,.88-7.87l5.63,3.25C346.81,106.49,345.55,109.64,343.51,111.41Zm-2.2-13.7a52.8,52.8,0,0,0-.88-8.94l.51,0,.27,0a7.06,7.06,0,0,0,2.3-.83A32.26,32.26,0,0,1,346.94,101Z" style="fill:#B0BEC5"></path><path d="M344.44,86.66l-.19-.37,0-.07c-2.75-5.23-6.4-9.35-10.29-11.59-3.72-2.15-7.26-2.33-10-.5l-.23.16-.12.08c-2.75,2.08-4.27,6.09-4.27,11.29a36,36,0,0,0,4.27,16.23c2.76,5.27,6.43,9.41,10.32,11.66s7.57,2.34,10.33.26,4.27-6.1,4.27-11.29A35.84,35.84,0,0,0,344.44,86.66Zm-8.93,25.6c-.32-.14-.65-.28-1-.45l-.12-.06v-8.93a17.73,17.73,0,0,1,1.79,1.22l.28.22a23.61,23.61,0,0,1,2.93,2.84,14.82,14.82,0,0,1-.87,2.32C337.69,111.2,336.64,112.15,335.51,112.26Zm-3.17-36.34c.32.14.65.28,1,.45l.1,0v8.89A18.45,18.45,0,0,1,331.67,84l-.28-.24a24.68,24.68,0,0,1-2.88-3,16.15,16.15,0,0,1,.79-2.06C330.16,77,331.21,76,332.34,75.92ZM334.42,77l.12.07c.32.21.65.44,1,.67a19.87,19.87,0,0,1,3,6.35c.33,1.06.62,2.17.87,3.31a9.23,9.23,0,0,1-2.93-.53l-.29-.1a14.32,14.32,0,0,1-1.78-.85Zm-3.2,7.92.3.25a19.87,19.87,0,0,0,1.89,1.39v6.58l-6.08-3.5a34.45,34.45,0,0,1,.9-7.78A25.55,25.55,0,0,0,331.22,84.93Zm2.19,9.57V101a13.77,13.77,0,0,0-1.89-.81l-.3-.09a9.36,9.36,0,0,0-3-.39,50.18,50.18,0,0,1-.89-8.74Zm-2,7,.28.09a12.68,12.68,0,0,1,1.74.73v8.88l-.1-.06c-.32-.21-.65-.44-1-.68a19.7,19.7,0,0,1-3-6.34c-.29-1-.55-1.94-.79-3A8.61,8.61,0,0,1,331.39,101.46Zm5.24,1.64-.3-.24a20.16,20.16,0,0,0-1.91-1.3V95.08l6.09,3.52a35.26,35.26,0,0,1-.82,7.45A24.82,24.82,0,0,0,336.63,103.1Zm-2.21-9.36V87.19a14.36,14.36,0,0,0,1.91.91l.3.1a9.85,9.85,0,0,0,3.06.59,50.24,50.24,0,0,1,.83,8.47Zm4.8-9.95a30.81,30.81,0,0,0-1.72-4.35,29.46,29.46,0,0,1,5.34,7.13,6.52,6.52,0,0,1-2.06.74l-.25,0-.38,0C339.88,86.14,339.57,84.94,339.22,83.79Zm-8.87-8.47a7.24,7.24,0,0,0-1.72,2.36,17,17,0,0,0-.84,2.21l-.34-.44-.25-.35a31.28,31.28,0,0,1-1.89-3A6.93,6.93,0,0,1,330.35,75.32Zm-5.73,1.25A34.53,34.53,0,0,0,326.74,80l.26.36c.16.22.33.43.49.64a36.54,36.54,0,0,0-.95,8.24l-5.63-3.26C321,81.66,322.33,78.36,324.62,76.57Zm1.92,14a52.3,52.3,0,0,0,.95,9.27l-.49.07-.26.06a6.79,6.79,0,0,0-2.14.93,32.52,32.52,0,0,1-3.69-13.58Zm.66,10.78a1.83,1.83,0,0,1,.25-.06c.11,0,.22,0,.34,0q.38,1.65.84,3.18a30.49,30.49,0,0,0,1.72,4.36,29,29,0,0,1-5.06-6.62A6.58,6.58,0,0,1,327.2,101.31Zm12,9.18a16.38,16.38,0,0,0,.93-2.5l.38.46.25.34a34,34,0,0,1,2.06,3.14,6.91,6.91,0,0,1-5.34.93A7.19,7.19,0,0,0,339.22,110.49Zm4.29.92a36.63,36.63,0,0,0-2.3-3.51l-.27-.35c-.16-.21-.34-.41-.51-.62a36.27,36.27,0,0,0,.88-7.87l5.63,3.25C346.81,106.49,345.55,109.64,343.51,111.41Zm-2.2-13.7a52.8,52.8,0,0,0-.88-8.94l.51,0,.27,0a7.06,7.06,0,0,0,2.3-.83A32.26,32.26,0,0,1,346.94,101Z" style="opacity:0.4"></path><path d="M356.83,96a4.71,4.71,0,0,1,1.41,3.32c0,1.6-.85,2.53-2.79,1.42l-3.35-1.94V88.46l3.36,1.94a5.09,5.09,0,0,1,2.37,4.06c0,1.16-.58,1.55-1,1.51Zm-1.72-1.73c.51.29.84.07.84-.54a1.81,1.81,0,0,0-.85-1.52L354,91.59v2Zm.17,4.31c.65.37,1,.08,1-.62a2,2,0,0,0-1-1.75L354,95.48v2.37Z" style="fill:#455a64"></path><path d="M361.83,101l-.39-.22-.44-.26V104l-1.87-1.08V92.51l3,1.71a6.12,6.12,0,0,1,3.1,5.31c0,1.42-.52,2.17-1.47,2.1l1.78,4.94-2.21-1.28Zm.38-1.76c.69.39,1.07.15,1.07-.72a2.2,2.2,0,0,0-1.08-2l-1.2-.69v2.71Z" style="fill:#455a64"></path><path d="M366.3,96.65,372,99.93v2.31l-3.8-2.19v1.77l2.8,1.62v2.08l-2.8-1.62v1.9L372,108v2.32L366.3,107Z" style="fill:#455a64"></path><path d="M375.07,110.38l-.46,1.45-2-1.14,3-8.64,2.13,1.22,3,12.12-2-1.16-.47-2Zm2.07-3.14c-.24-1-.42-1.75-.43-1.78l0,0s-.19.55-.44,1.27l-.55,1.75,2,1.16Z" style="fill:#455a64"></path><path d="M384.34,113.07l-.93.85v3l-1.86-1.08V105.46l1.86,1.07V111l0,0,.84-.85,2-2,2.23,1.28-2.77,2.6,2.92,7.87-2.18-1.26Z" style="fill:#455a64"></path><path d="M389.39,110l1.86,1.08v10.38l-1.86-1.08Z" style="fill:#455a64"></path><path d="M394.38,117l0,0s0,1.31,0,2.66v3.55l-1.87-1.08V111.78l1.89,1.09,3.31,8,0,0s0-1.36,0-2.48v-3.6l1.87,1.07v10.38l-1.9-1.1Z" style="fill:#455a64"></path><path d="M406.73,130.37c0-.59,0-.64,0-.72h0a2.41,2.41,0,0,1-2.19-.33c-2.17-1.25-4-4.49-4-7.72s1.71-4.4,4-3a8.46,8.46,0,0,1,3.63,5.08l-1.85-.4a4.45,4.45,0,0,0-1.87-2.39c-1.25-.73-2.06,0-2.06,1.86a5.06,5.06,0,0,0,2.27,4.35c1.07.62,1.74.38,2,.08v-.49l-2-1.13v-2.32l3.69,2.14v6Z" style="fill:#455a64"></path><path d="M355.71,112.73l0,0s0,2.2,0,4.49v6l-3.16-1.83V103.82l3.2,1.84,5.61,13.53.06,0s0-2.29,0-4.2v-6.09l3.16,1.82v17.57l-3.22-1.86Z" style="fill:#B0BEC5"></path><path d="M366.65,112l9.59,5.54v3.91l-6.43-3.71v3l4.74,2.73V127l-4.74-2.74v3.21l6.53,3.77v3.92l-9.69-5.6Z" style="fill:#B0BEC5"></path><path d="M388,134.59c-.53-2.64-.78-4.21-.79-4.27l-.08,0s-.26,1.33-.77,3.55l-1.45,6.24L381.27,138l-3.84-19.78,3.52,2,1.48,8.36c.51,2.88.83,4.8.85,4.86l.08,0s.34-1.48.73-3.26l1.32-5.77,3.84,2.22,1.3,7.32c.39,2.24.71,4,.73,4.07l.06,0s.35-1.53.84-3.73l1.56-6.75,3.15,1.82-3.84,15.34-3.47-2Z" style="fill:#B0BEC5"></path><path d="M400.52,143.61a5.2,5.2,0,0,0,2.61,3.62c1.21.7,1.94.57,1.94-.56,0-1.68-1.58-2.49-3.2-3.95-1.79-1.61-4-4-4-7.71s2-4.2,5-2.49a11.06,11.06,0,0,1,5.34,7.67l-3-.66a4.87,4.87,0,0,0-2.39-3.36c-1.2-.69-1.71-.36-1.71.57,0,1.48,1.26,2.43,3.11,4s4.08,4,4.08,7.75c0,3.62-1.9,4.33-5.12,2.47a11.31,11.31,0,0,1-5.65-8Z" style="fill:#B0BEC5"></path><polygon points="313.2 117.57 417.23 177.63 417.23 170.89 313.2 110.83 313.2 117.57" style="fill:#B0BEC5"></polygon><polygon points="313.2 117.57 417.23 177.63 417.23 170.89 313.2 110.83 313.2 117.57" style="opacity:0.15"></polygon><path d="M319.65,117.35l12.93,7.43a1.68,1.68,0,0,1,.78,1.29c0,.47-.35.65-.78.4L319.65,119a1.65,1.65,0,0,1-.77-1.27C318.88,117.28,319.22,117.11,319.65,117.35Z" style="fill:#fafafa"></path><path d="M366.22,144.25l12.93,7.43a1.65,1.65,0,0,1,.77,1.29c0,.47-.34.65-.77.4l-12.93-7.47a1.62,1.62,0,0,1-.77-1.27C365.45,144.18,365.79,144,366.22,144.25Z" style="fill:#fafafa"></path><path d="M340.49,129.4,358.9,140a1.65,1.65,0,0,1,.78,1.29c0,.46-.35.64-.77.4l-18.42-10.64a1.66,1.66,0,0,1-.78-1.27C339.71,129.32,340.06,129.15,340.49,129.4Z" style="fill:#fafafa"></path><path d="M336.51,127a1.64,1.64,0,0,1,.74,1.28c0,.47-.33.66-.74.43a1.67,1.67,0,0,1-.74-1.28C335.77,127,336.11,126.8,336.51,127Z" style="fill:#fafafa"></path><path d="M387.59,156.58,406,167.18a1.67,1.67,0,0,1,.77,1.29c0,.47-.34.65-.77.4l-18.42-10.63a1.67,1.67,0,0,1-.77-1.27C386.81,156.51,387.16,156.34,387.59,156.58Z" style="fill:#fafafa"></path><path d="M383.61,154.24a1.64,1.64,0,0,1,.74,1.28c0,.47-.33.67-.74.43a1.64,1.64,0,0,1-.74-1.28C382.87,154.2,383.2,154,383.61,154.24Z" style="fill:#fafafa"></path><path d="M409.9,169.41a1.67,1.67,0,0,1,.74,1.28c0,.47-.34.66-.74.43a1.64,1.64,0,0,1-.74-1.28C409.16,169.37,409.49,169.18,409.9,169.41Z" style="fill:#fafafa"></path><path d="M362.54,142a1.64,1.64,0,0,1,.74,1.28c0,.47-.33.66-.74.43a1.64,1.64,0,0,1-.74-1.28C361.8,142,362.13,141.81,362.54,142Z" style="fill:#fafafa"></path></g><g id="freepik--picture--inject-37"><g id="freepik--frame--inject-37"><polygon points="404.36 220.68 403.48 221.11 387.19 211.7 388.07 211.28 404.36 220.68" style="fill:#B0BEC5"></polygon><polygon points="404.36 220.68 403.48 221.11 387.19 211.7 388.07 211.28 404.36 220.68" style="opacity:0.2"></polygon><polygon points="388.07 211.28 403.56 220.22 405.82 197.04 390.32 188.11 388.07 211.28" style="fill:#B0BEC5"></polygon><g style="opacity:0.8"><polygon points="388.07 211.28 403.56 220.22 405.82 197.04 390.32 188.11 388.07 211.28" style="fill:#fff"></polygon></g><path d="M385.53,212.47l19.29,11.14,2.66-27.34-19.29-11.13Zm4-24.83,16.29,9.41-2.34,24.06-16.29-9.41Z" style="fill:#B0BEC5"></path><polygon points="387.19 211.7 388.07 211.28 390.32 188.11 389.53 187.64 387.19 211.7" style="fill:#B0BEC5"></polygon><polygon points="387.19 211.7 388.07 211.28 390.32 188.11 389.53 187.64 387.19 211.7" style="opacity:0.35000000000000003"></polygon><polygon points="388.19 185.14 389.08 184.73 408.37 195.86 407.48 196.27 388.19 185.14" style="fill:#B0BEC5"></polygon><polygon points="388.19 185.14 389.08 184.73 408.37 195.86 407.48 196.27 388.19 185.14" style="fill:#fff;opacity:0.6000000000000001"></polygon><polygon points="408.37 195.86 407.48 196.27 404.82 223.61 405.71 223.2 408.37 195.86" style="fill:#B0BEC5"></polygon><polygon points="408.37 195.86 407.48 196.27 404.82 223.61 405.71 223.2 408.37 195.86" style="opacity:0.35000000000000003"></polygon></g><g id="freepik--land--inject-37"><polygon points="388.75 210.84 403.04 219.09 403.42 215.18 400.76 203.71 398.23 207.62 398.75 210.92 394.53 198.75 389.13 206.93 388.75 210.84" style="fill:#B0BEC5"></polygon><path d="M401,198.88a2,2,0,0,1,.94,1.77c-.06.63-.58.88-1.17.54a2,2,0,0,1-.94-1.76C399.87,198.79,400.39,198.54,401,198.88Z" style="fill:#B0BEC5"></path></g></g></g><g id="freepik--Plant--inject-37"><g id="freepik--pot--inject-37"><path d="M440.32,300.23c-6.72-6.93-10.66-35.13-4.11-40.62h33.32c6.55,5.49,2.61,33.68-4.1,40.62l-.18.19-.23.22c-.19.19-.4.37-.61.55l-.16.13-.51.39c-.29.2-.57.39-.87.56-5.52,3.22-14.48,3.22-20,0h0a8.13,8.13,0,0,1-.87-.57l-.48-.36-.19-.16a7.54,7.54,0,0,1-.59-.52l-.27-.27Z" style="fill:#B0BEC5"></path><g style="opacity:0.5"><path d="M440.32,300.23c-6.72-6.93-10.66-35.13-4.11-40.62h33.32c6.55,5.49,2.61,33.68-4.1,40.62l-.18.19-.23.22c-.19.19-.4.37-.61.55l-.16.13-.51.39c-.29.2-.57.39-.87.56-5.52,3.22-14.48,3.22-20,0h0a8.13,8.13,0,0,1-.87-.57l-.48-.36-.19-.16a7.54,7.54,0,0,1-.59-.52l-.27-.27Z" style="fill:#fff"></path></g><path d="M466.64,257.39c7.6,4.44,7.6,11.64,0,16.08s-19.93,4.44-27.54,0-7.6-11.64,0-16.07S459,253,466.64,257.39Z" style="fill:#B0BEC5"></path><g style="opacity:0.7000000000000001"><path d="M466.64,257.39c7.6,4.44,7.6,11.64,0,16.08s-19.93,4.44-27.54,0-7.6-11.64,0-16.07S459,253,466.64,257.39Z" style="fill:#fff"></path></g><path d="M463,259.53c5.59,3.26,5.59,8.55,0,11.81s-14.64,3.26-20.22,0-5.58-8.55,0-11.81S457.4,256.27,463,259.53Z" style="fill:#B0BEC5"></path><g style="opacity:0.30000000000000004"><path d="M463,259.53c5.59,3.26,5.59,8.55,0,11.81s-14.64,3.26-20.22,0-5.58-8.55,0-11.81S457.4,256.27,463,259.53Z"></path></g><path d="M442.76,265.13c5.58-3.26,14.64-3.26,20.22,0a9.4,9.4,0,0,1,3.35,3.1,9.33,9.33,0,0,1-3.35,3.11c-5.58,3.26-14.64,3.26-20.22,0a9.29,9.29,0,0,1-3.34-3.11A9.36,9.36,0,0,1,442.76,265.13Z" style="fill:#f5f5f5"></path><g id="freepik--Plants--inject-37"><path d="M450.14,250.9a9.08,9.08,0,0,1-.85-2.43,5.75,5.75,0,0,1,1.78-5.61c.65-.49,1.5-.86,1.78-1.63a2.68,2.68,0,0,0,0-1.35c-.31-1.73-.89-3.51-.41-5.21a5.82,5.82,0,0,1,3.23-3.46A17.22,17.22,0,0,1,460.4,230a7.59,7.59,0,0,0,2.49-.71c.93-.52,1.22-1.45,1.8-2.25a15.52,15.52,0,0,1,2.28-2.44,8.93,8.93,0,0,1,6.18-2.66c4.9.21,4.76,4.43,3.34,7.63s-1.78,4.24,1.28,7.57,3.07,7.43-.59,9.73-6,2.61-4.58,7c1.29,4,2.09,7.33-1.56,11.55a12,12,0,0,1-9.63,4.52,16.23,16.23,0,0,1-4.72-1.11c-1.11-.55-.36-1.41-.74-2.51-.8-2.36-1.61-4.71-2.42-7.07a53,53,0,0,0-1.92-5.57C451.14,252.72,450.6,251.83,450.14,250.9Z" style="fill:#B0BEC5"></path><g style="opacity:0.15"><path d="M450.14,250.9a9.08,9.08,0,0,1-.85-2.43,5.75,5.75,0,0,1,1.78-5.61c.65-.49,1.5-.86,1.78-1.63a2.68,2.68,0,0,0,0-1.35c-.31-1.73-.89-3.51-.41-5.21a5.82,5.82,0,0,1,3.23-3.46A17.22,17.22,0,0,1,460.4,230a7.59,7.59,0,0,0,2.49-.71c.93-.52,1.22-1.45,1.8-2.25a15.52,15.52,0,0,1,2.28-2.44,8.93,8.93,0,0,1,6.18-2.66c4.9.21,4.76,4.43,3.34,7.63s-1.78,4.24,1.28,7.57,3.07,7.43-.59,9.73-6,2.61-4.58,7c1.29,4,2.09,7.33-1.56,11.55a12,12,0,0,1-9.63,4.52,16.23,16.23,0,0,1-4.72-1.11c-1.11-.55-.36-1.41-.74-2.51-.8-2.36-1.61-4.71-2.42-7.07a53,53,0,0,0-1.92-5.57C451.14,252.72,450.6,251.83,450.14,250.9Z"></path></g><path d="M456.81,268.82a.35.35,0,0,0,.24-.34c-.21-24.21,13.14-38.67,13.27-38.81a.37.37,0,0,0,0-.52.36.36,0,0,0-.51,0c-.14.15-13.68,14.8-13.47,39.32a.35.35,0,0,0,.36.36A.25.25,0,0,0,456.81,268.82Z" style="fill:#fff"></path><path d="M460.69,246.3a.15.15,0,0,0,.07,0c4.34-2.73,12.09-4.77,12.17-4.79a.37.37,0,0,0-.18-.71c-.32.08-7.93,2.09-12.37,4.88a.36.36,0,0,0-.11.5A.34.34,0,0,0,460.69,246.3Z" style="fill:#fff"></path><path d="M462,243h0a.38.38,0,0,0,.2-.48,27.87,27.87,0,0,0-4-6.73.36.36,0,0,0-.51-.05.37.37,0,0,0,0,.52,27.48,27.48,0,0,1,3.89,6.54A.35.35,0,0,0,462,243Z" style="fill:#fff"></path><path d="M454.33,270.58a20.42,20.42,0,0,1-10.63.39c-6.09-1.32-9.83-7-9.83-7s6.6-2.65,10.45-2.9a34.08,34.08,0,0,0-11.56.24S429.23,260,429.9,254c0,0,3.33-2.45,11-1.49A24.42,24.42,0,0,0,430.32,249c-.53,0,.19-7.76.83-11.22s1.91-2.93,4.66-2.63,10.87,2.15,11.91,4.14,0,7.08,0,7.08a11.61,11.61,0,0,0,2.25-6.65,18.07,18.07,0,0,1,4.69,2.56,10.9,10.9,0,0,1,2.93,3.66c-.39,2.73-1.67,6.89-3.47,9.21a12.42,12.42,0,0,0,5-7.44,16.88,16.88,0,0,1,3.21,9.49C462.29,263.28,459.58,267.8,454.33,270.58Z" style="fill:#B0BEC5"></path><path d="M454.21,270.91a.35.35,0,0,1-.22-.3c-.92-11.56-13.85-29.61-19.56-33.23a.35.35,0,0,1,.36-.59c5.81,3.68,18.95,22,19.89,33.76a.36.36,0,0,1-.32.38Z" style="fill:#fff"></path></g></g></g><g id="freepik--character-2--inject-37"><g id="freepik--Character--inject-37"><g id="freepik--Legs--inject-37"><path d="M200.77,449.42c0-.42-.36-.84-1.07-1.16a7.23,7.23,0,0,0-5.18,0c-.71.32-1.07.74-1.07,1.16l1.07,16.42h0c0,.29.26.58.75.8a5.13,5.13,0,0,0,3.66,0c.49-.22.74-.51.75-.8h0Z" style="fill:#455a64"></path><path d="M200.34,456l.43-6.59c0-.42-.36-.84-1.07-1.16a7.23,7.23,0,0,0-5.18,0c-.71.32-1.07.74-1.07,1.16l.43,6.59C195.34,457.38,198.61,457.38,200.34,456Z" style="fill:#263238"></path><path d="M45.34,360.22c0-.42-.36-.84-1.07-1.16a7.23,7.23,0,0,0-5.18,0c-.72.32-1.07.74-1.07,1.16l1.07,16.42h0c0,.29.26.58.76.8a5.13,5.13,0,0,0,3.66,0c.49-.22.74-.51.75-.8h0Z" style="fill:#455a64"></path><path d="M44.91,366.81l.43-6.59c0-.42-.36-.84-1.08-1.16a7.2,7.2,0,0,0-5.17,0c-.72.32-1.07.74-1.07,1.16l.43,6.59C39.9,368.18,43.18,368.18,44.91,366.81Z" style="fill:#263238"></path><path d="M270.93,408.38c0-.42-.36-.84-1.07-1.16a7.23,7.23,0,0,0-5.18,0c-.71.32-1.07.74-1.07,1.16l1.07,16.42h0c0,.29.26.58.76.8a5.13,5.13,0,0,0,3.66,0c.49-.22.74-.51.75-.8h0Z" style="fill:#455a64"></path><path d="M270.5,415l.43-6.59c0-.42-.36-.84-1.07-1.16a7.23,7.23,0,0,0-5.18,0c-.71.32-1.07.74-1.07,1.16L264,415C265.5,416.34,268.77,416.34,270.5,415Z" style="fill:#263238"></path></g><polygon points="33.7 317.56 110.79 273.06 115.33 275.67 115.33 317.56 38.24 362.07 33.7 359.45 33.7 317.56" style="fill:#B0BEC5"></polygon><polygon points="115.33 275.67 38.24 320.18 38.24 362.07 115.33 317.56 115.33 275.67" style="fill:#B0BEC5"></polygon><polygon points="115.33 275.67 38.24 320.18 38.24 362.07 115.33 317.56 115.33 275.67" style="opacity:0.1"></polygon><polygon points="33.7 317.56 38.24 320.18 115.33 275.67 110.79 273.06 33.7 317.56" style="fill:#fff;opacity:0.4"></polygon><path d="M124.4,317.22v-36a10.71,10.71,0,0,0-4.84-8.38l-3.93-2.27a10.7,10.7,0,0,0-9.67,0L43.07,306.92a10.68,10.68,0,0,0-4.83,8.37v36a10.68,10.68,0,0,0,4.83,8.37L47,361.9a10.68,10.68,0,0,0,9.66,0l62.89-36.31A10.69,10.69,0,0,0,124.4,317.22Z" style="fill:#263238"></path><path d="M115.63,270.61l3.93,2.27c2.67,1.55,2.67,4,0,5.59l-62.89,36.3a10.62,10.62,0,0,1-9.66,0l-3.94-2.27c-2.67-1.54-2.67-4,0-5.58L106,270.61A10.7,10.7,0,0,1,115.63,270.61Z" style="fill:#455a64"></path><g id="freepik--legs--inject-37"><path d="M238.6,383c0-.13-2-7.52-2-7.52s.67.68,4.94-.45a23.83,23.83,0,0,0,4.65-1.95l1.22,5.4c1.14,2.09,4.92,1.13,9.05.66.7-.08,1.41-.2,2.13-.32h0c2.23-.12,4.47,1.22,2.15,3.13s-6.15,2.62-9.68,3.26C246.8,386,239.36,387.2,238.6,383Z" style="fill:#ffa8a7"></path><path d="M268.28,382.33a4.35,4.35,0,0,1,.31,2.28c-.08.82-2.11,3.61-5.71,5.32s-8,1.83-10.13,2.43-4,1.8-6.45,2.39-4.88.92-7.34-.7a5.37,5.37,0,0,1-.81-2.47C238.54,391.15,268.28,382.33,268.28,382.33Z" style="fill:#263238"></path><path d="M248,379.19c1.58,1.1,4.86.34,8.4-.06,3.34-.38,7.1-1.56,9.37-.77s4.16,3.46,1.1,6.88a13.23,13.23,0,0,1-4.27,3.27c-3.81,1.37-7.23,1.48-9.68,2.08-3.19.79-4.94,2.2-7.89,2.55-3.82.44-6.23-.54-6.89-1.56s-1.28-9.24.36-9.07c0,0,.69,2.66,6.93.07C248.16,381.45,248.12,379.79,248,379.19Z" style="fill:#37474f"></path><path d="M258.6,383.61s-.36-3.48-2.93-4.39a1.35,1.35,0,0,0-1.41.18s2.38.35,3.16,4.42c0,0,.12.27.64.17C258.24,384,258.62,383.89,258.6,383.61Z" style="fill:#fafafa"></path><path d="M252.07,379.67s0-.11.6-.23a1.09,1.09,0,0,1,.71.08s1.91.83,2.27,4.46a.66.66,0,0,1-.59.56.53.53,0,0,1-.68-.36S254,380.36,252.07,379.67Z" style="fill:#fafafa"></path><path d="M250,379.75s.11-.22.56-.22.69.22.69.22a6.54,6.54,0,0,1,1.38,4.43s.06.52-.66.57-.61-.53-.61-.53S251.14,380.36,250,379.75Z" style="fill:#fafafa"></path><path d="M237.63,334.22c2.37,10.07,9.74,40.24,9.74,40.24s-5.39,4.85-11.25,2.64c-6.23-16.47-17.41-27.72-17.34-39.78Z" style="fill:#B0BEC5"></path><path d="M237.63,334.22c2.37,10.07,9.74,40.24,9.74,40.24s-5.39,4.85-11.25,2.64c-6.23-16.47-17.41-27.72-17.34-39.78Z" style="opacity:0.4"></path><path d="M260.06,393.43c-.64-.95-3-7.52-3-7.52s2.5,1.43,6.81.4c2.18-.52,4.23-2.89,4.23-2.89l1.84,6.32c1.08,2.11,4.59,1.41,8.74,1,.7-.06,1.41-.16,2.13-.26h0c2.24-.06,4.45,1.33,2.08,3.18s-6.21,2.47-9.76,3C268.87,397.37,262.45,397,260.06,393.43Z" style="fill:#ffa8a7"></path><path d="M292.21,393.24a4.66,4.66,0,0,1,.28,2.44c-.11.88-2.37,3.83-6.28,5.57s-8.69,1.75-10.94,2.34-4.33,1.82-7,2.4-5.26.85-7.86-.95a5.92,5.92,0,0,1-.81-2.68C260.05,401.92,292.21,393.24,292.21,393.24Z" style="fill:#263238"></path><path d="M270.57,389.27a7.24,7.24,0,0,0,.79.48,2.29,2.29,0,0,0,.87.18,12.14,12.14,0,0,0,2.09.05c1.75-.08,3.49-.35,5.23-.5,3.6-.32,7.66-1.48,10.08-.58s4.62,3.81,1.23,7.41a16.57,16.57,0,0,1-4.53,3.44c-4,1.67-8.17,1.36-10.82,1.95-3.45.76-5.36,2.23-8.53,2.52-4.12.37-6.68-.74-7.37-1.86-.38-.62.05-3.84-.47-6.34-.44-2.16-.32-3.63.45-3.53a3.65,3.65,0,0,0,.6.76,2.77,2.77,0,0,0,.91.72,7.07,7.07,0,0,0,1.55.52,9,9,0,0,0,2.86.4,1.53,1.53,0,0,0,.78-.25,1.69,1.69,0,0,0,.45-1c.07-.32.13-.64.2-1a1.37,1.37,0,0,1,.18-.49,1.22,1.22,0,0,1,.48-.39,4.23,4.23,0,0,0,1.57-1.19,3.66,3.66,0,0,0,.46-1.48.33.33,0,0,1,.1-.24c.12-.1.29,0,.42.06Z" style="fill:#37474f"></path><path d="M281.78,394.35s-.29-3.74-3-4.8a1.43,1.43,0,0,0-1.52.17s2.54.43,3.27,4.82c0,0,.13.29.69.21C281.39,394.72,281.8,394.65,281.78,394.35Z" style="fill:#fafafa"></path><path d="M274.88,390s0-.13.65-.23a1.16,1.16,0,0,1,.76.1s2,.94,2.32,4.85a.69.69,0,0,1-.65.58.58.58,0,0,1-.73-.4S276.91,390.74,274.88,390Z" style="fill:#fafafa"></path><path d="M272.67,390s.12-.23.61-.21.74.25.74.25a7,7,0,0,1,1.36,4.8s.05.55-.72.59-.64-.59-.64-.59S273.86,390.66,272.67,390Z" style="fill:#fafafa"></path><path d="M258,343.81c2.47,7.57,8.75,29.12,11.62,40.2,0,0-5.16,4.64-11.8,4.24-3.51-8.28-19.55-31.23-17.6-41,1.23-6.21,8-4.4,8-4.4Z" style="fill:#B0BEC5"></path><path d="M258,343.81c2.47,7.57,8.75,29.12,11.62,40.2,0,0-5.16,4.64-11.8,4.24-3.51-8.28-19.55-31.23-17.6-41,1.23-6.21,8-4.4,8-4.4Z" style="opacity:0.30000000000000004"></path><path d="M243.49,354.89c2.3-1.62,5.48-4.27,6.07-5.91a14,14,0,0,1-6.07,8.26Z" style="opacity:0.30000000000000004"></path></g><g id="freepik--Sit--inject-37"><polygon points="189.59 325.42 189.59 332.29 119.86 372.55 63.73 340.14 63.73 333.27 189.59 325.42" style="fill:#263238"></polygon><path d="M65.73,330.49l62.89-36.31a10.7,10.7,0,0,1,9.67,0l49.3,28.44c2.67,1.55,2.67,4,0,5.59l-62.89,36.3a10.64,10.64,0,0,1-9.67,0l-49.3-28.44C63.06,334.53,63.06,332,65.73,330.49Z" style="fill:#37474f"></path><polygon points="250.61 360.63 250.61 367.5 180.88 407.76 124.75 375.35 124.75 368.49 250.61 360.63" style="fill:#263238"></polygon><path d="M126.75,365.7l62.89-36.3a10.64,10.64,0,0,1,9.67,0l49.3,28.44c2.67,1.54,2.67,4,0,5.58l-62.89,36.31a10.7,10.7,0,0,1-9.67,0l-49.3-28.44C124.08,369.75,124.08,367.25,126.75,365.7Z" style="fill:#37474f"></path></g><g id="freepik--Top--inject-37"><path d="M171.82,333.3c8.42-.85,32.44-6.88,38.3-7.88,11.21-1.92,16.92-2.2,20.14-1.19s6,4.62,7,8.48c1.17,4.56,1.77,6.88,1.77,6.88s-24.62,8.66-37.08,10.12S171.82,333.3,171.82,333.3Z" style="fill:#B0BEC5"></path><path d="M171.82,333.3c8.42-.85,32.44-6.88,38.3-7.88,11.21-1.92,16.92-2.2,20.14-1.19s6,4.62,7,8.48c1.17,4.56,1.77,6.88,1.77,6.88s-24.62,8.66-37.08,10.12S171.82,333.3,171.82,333.3Z" style="opacity:0.4"></path><path d="M171.82,333.3c-.47,11.9-.07,23,5.64,29,3.85,4,23.16,14.5,35.62,10.37,12.28-4.06,37.7-22.93,40.25-24.83s4.87-3.2,4.62-4c-3.42-11.38-8.43-12.27-17.72-10.23-11.36,2.5-36.31,12.68-36.31,12.68Z" style="fill:#B0BEC5"></path><path d="M171.82,333.3c-.47,11.9-.07,23,5.64,29,3.85,4,23.16,14.5,35.62,10.37,12.28-4.06,37.7-22.93,40.25-24.83s4.87-3.2,4.62-4c-3.42-11.38-8.43-12.27-17.72-10.23-11.36,2.5-36.31,12.68-36.31,12.68Z" style="opacity:0.30000000000000004"></path><polygon points="220.44 270.32 216.93 284.43 200.97 279.36 205.52 263.81 220.44 270.32" style="fill:#ffa8a7"></polygon><path d="M229.91,252.15s3.5,5.06,3.13,5.58-2.86,1-2.86,1Z" style="fill:#f28f8f"></path><path d="M229.88,255.49a4.2,4.2,0,1,1,4.19-4.19A4.2,4.2,0,0,1,229.88,255.49Zm0-7.62a3.43,3.43,0,1,0,3.43,3.43A3.44,3.44,0,0,0,229.88,247.87Z" style="fill:#263238"></path><path d="M220.17,238.13c6.89,1.29,8.94,4.26,9.84,15.15.93,11.37-.15,15-1.61,16.54-1,1.06-6.59,1.38-9.44.66-3.57-.9-11.64-3.55-15.52-9.19-4.57-6.64-5.94-15.75-1.3-19.6C208.66,236.26,217.36,237.6,220.17,238.13Z" style="fill:#ffa8a7"></path><path d="M220.3,270.74a13,13,0,0,0,7.79-.69,10.25,10.25,0,0,1-5-.18c-2.82-.8-3.35-1.78-3.35-1.78Z" style="fill:#f28f8f"></path><path d="M231.28,242.58l0,0a15.76,15.76,0,0,1-6.58,2.24,13.62,13.62,0,0,1-1,5.43c-.4,1.22-1.83,5.06-3.39,2.95-1.13-1.52-2.16-2.9-4.32-2.53-3.56.61-3.93,5.18-1.62,7.89s4.39,1.61,4.39,1.61.33,4.9-2.26,8.37a11.63,11.63,0,0,1-9.28.59c-3.42-1.13-8.36-5.44-10.18-8.81-5-9.26-5-18.14,1-20.87.56-4.44,4-6.5,7.95-7.5,5.48-1.39,11.17,2,16.46-.23,1.12-.47,2.14-1.15,3.29-1.56a2.23,2.23,0,0,1,2,0,2.43,2.43,0,0,1,.84,1.51,4.25,4.25,0,0,1-.21,3.16,9.69,9.69,0,0,1,2.49-.92,2.81,2.81,0,0,1,3.52,2.76A6.72,6.72,0,0,1,231.28,242.58Z" style="fill:#263238"></path><path d="M198,241l-4.16-2.33A2.38,2.38,0,1,1,198,241Z" style="fill:#263238"></path><rect x="220.2" y="251.65" width="13.56" height="0.65" transform="translate(-42.38 45.92) rotate(-10.57)" style="fill:#263238"></rect><path d="M203.13,272c-8.43-4.6-14.83-1.09-17.59,4.82-2.5,5.35-6.62,20.81-6.62,20.81C183.33,293.28,203.13,272,203.13,272Z" style="fill:#455a64"></path><path d="M202.47,274.24l.66-2.22c-9.51-4.52-17.4,2.82-22.54,15.71-5.5,13.78-8.87,29.35-8.91,48.41a43.73,43.73,0,0,0,17.2,12.75c11.48,4.55,27.5,2.62,32.49-9.28,0,0,0-7.94.36-14.8a69.35,69.35,0,0,1,5.23-21c2.71-6.32,6.3-18.07-1.08-22.45-2.16-1.28-4.37-2.14-7.32-3.54C211.85,280,201.6,276.91,202.47,274.24Z" style="fill:#B0BEC5"></path><path d="M202.47,274.24l.66-2.22c-9.51-4.52-17.4,2.82-22.54,15.71-5.5,13.78-8.87,29.35-8.91,48.41a43.73,43.73,0,0,0,17.2,12.75c11.48,4.55,27.5,2.62,32.49-9.28,0,0,0-7.94.36-14.8a69.35,69.35,0,0,1,5.23-21c2.71-6.32,6.3-18.07-1.08-22.45-2.16-1.28-4.37-2.14-7.32-3.54C211.85,280,201.6,276.91,202.47,274.24Z" style="fill:#fff;opacity:0.6000000000000001"></path><path d="M218,294.72c-2.49,6.19.82,16.65.82,16.65s-2.46,12.86-2.46,19.26-3.18,13.21-11.83,10.58-15.09-7.84-22.16-17.55-6.42-17.23-5.22-26a132.6,132.6,0,0,0-5.43,38.47,43.73,43.73,0,0,0,17.2,12.75c11.48,4.55,27.5,2.62,32.49-9.28,0,0,0-7.94.36-14.8a69.35,69.35,0,0,1,5.23-21c.27-.63.55-1.31.83-2C224.34,296.75,219.5,290.87,218,294.72Z" style="fill:#B0BEC5;opacity:0.2"></path><path d="M218,294.72c-2.49,6.19.82,16.65.82,16.65s-2.46,12.86-2.46,19.26-3.18,13.21-11.83,10.58-15.09-7.84-22.16-17.55-6.42-17.23-5.22-26a132.6,132.6,0,0,0-5.43,38.47,43.73,43.73,0,0,0,17.2,12.75c11.48,4.55,27.5,2.62,32.49-9.28,0,0,0-7.94.36-14.8a69.35,69.35,0,0,1,5.23-21c.27-.63.55-1.31.83-2C224.34,296.75,219.5,290.87,218,294.72Z" style="opacity:0.05"></path><path d="M236.76,340.9c3.65-1.39,5.89-5.51,6.34-8.19s-.75-7-2.17-9.47S236.76,340.9,236.76,340.9Z" style="fill:#f28f8f"></path><path d="M241,323.66c-1-6.44-2.75-16.39-4.89-26.89-2.08-10.2-3.78-12.12-9.11-14.33-12.9,7.68-6.56,25.13-6.56,25.13s4.95,20.23,7.6,26.65c1.73,4.17,5.13,8.85,9.67,6.23S242.05,330.09,241,323.66Z" style="fill:#ffa8a7"></path><path d="M226.83,282c3.52,1.65,4.81,2.31,6.53,4.95s2.85,8.7,3.91,14.06,3.07,16.52,3.07,16.52-.8,2.6-7.26,4.31-9.87-1-9.87-1l-5-19s-1.49-8.52,1.51-13.73S226.83,282,226.83,282Z" style="fill:#455a64"></path></g><path d="M269.51,401V365a10.68,10.68,0,0,0-4.83-8.38l-3.94-2.27a10.7,10.7,0,0,0-9.67,0L188.18,390.7a10.68,10.68,0,0,0-4.83,8.37v36a10.68,10.68,0,0,0,4.83,8.38l3.94,2.27a10.7,10.7,0,0,0,9.67,0l62.89-36.31A10.68,10.68,0,0,0,269.51,401Z" style="fill:#263238"></path><path d="M260.74,354.39l3.94,2.27c2.67,1.54,2.67,4,0,5.59l-62.89,36.3a10.7,10.7,0,0,1-9.67,0l-3.94-2.27c-2.67-1.54-2.67-4,0-5.58l62.89-36.31A10.7,10.7,0,0,1,260.74,354.39Z" style="fill:#455a64"></path><path d="M215.09,359.8v72.62a10.68,10.68,0,0,1-4.83,8.37l-8.47,4.89a10.7,10.7,0,0,1-9.67,0L47.61,362.25a10.71,10.71,0,0,1-4.84-8.38V281.26a10.72,10.72,0,0,1,4.83-8.38L56.08,268a10.68,10.68,0,0,1,9.66,0l144.52,83.44A10.68,10.68,0,0,1,215.09,359.8Z" style="fill:#263238"></path><path d="M210.26,357l-8.47,4.89a10.7,10.7,0,0,1-9.67,0L47.6,278.47c-2.66-1.55-2.66-4,0-5.59L56.08,268a10.68,10.68,0,0,1,9.66,0l144.52,83.44C212.93,353,212.93,355.47,210.26,357Z" style="fill:#455a64"></path><path d="M197,370.27v72.62c0,3.08-2.16,4.33-4.83,2.79L47.61,362.25a10.71,10.71,0,0,1-4.84-8.38V281.26c0-3.09,2.17-4.34,4.83-2.79L192.12,361.9A10.68,10.68,0,0,1,197,370.27Z" style="fill:#37474f"></path><polygon points="38.24 288.76 42.77 286.14 196.95 375.16 196.95 448.47 192.42 451.09 38.24 362.07 38.24 288.76" style="fill:#B0BEC5"></polygon><polygon points="192.42 451.09 192.42 377.78 38.24 288.76 38.24 362.07 192.42 451.09" style="fill:#B0BEC5"></polygon><polygon points="42.77 286.14 38.24 288.76 192.42 377.78 196.95 375.16 42.77 286.14" style="fill:#fff;opacity:0.4"></polygon><polygon points="196.95 375.16 196.95 448.47 192.42 451.09 192.42 377.78 196.95 375.16" style="opacity:0.2"></polygon><polygon points="192.42 409.2 269.51 364.69 274.05 367.31 274.05 409.2 196.95 453.71 192.42 451.09 192.42 409.2" style="fill:#B0BEC5"></polygon><polygon points="274.05 367.31 196.96 411.82 196.95 453.71 274.05 409.2 274.05 367.31" style="fill:#B0BEC5"></polygon><polygon points="274.05 367.31 196.96 411.82 196.95 453.71 274.05 409.2 274.05 367.31" style="opacity:0.2"></polygon><polygon points="192.42 409.2 196.96 411.82 274.05 367.31 269.51 364.69 192.42 409.2" style="fill:#fff;opacity:0.4"></polygon></g><g id="freepik--Exclamation--inject-37"><path d="M214.89,219.78a.81.81,0,0,1,.42-.49.84.84,0,0,1,.64,0l3.73,1.24a.86.86,0,0,1,.49.43.84.84,0,0,1,.05.64l-1,3a.77.77,0,0,1-.42.48.8.8,0,0,1-.64,0l-3.73-1.24a.81.81,0,0,1-.49-.42.84.84,0,0,1-.05-.64Zm5.36-16.14a.83.83,0,0,1,.43-.49.84.84,0,0,1,.64-.05l3.73,1.24a.82.82,0,0,1,.48.43.8.8,0,0,1,.05.64l-4.24,12.76a.81.81,0,0,1-.42.49.87.87,0,0,1-.65.05l-3.73-1.24a.85.85,0,0,1-.48-.43.8.8,0,0,1-.05-.64Z" style="fill:#B0BEC5"></path><path d="M203.17,223.63a.79.79,0,0,1,.12-.63.81.81,0,0,1,.52-.37l3.84-.86a.79.79,0,0,1,.63.12.8.8,0,0,1,.38.52l.68,3.08a.83.83,0,0,1-.11.63.81.81,0,0,1-.53.37l-3.84.86a.86.86,0,0,1-1-.64ZM199.48,207a.83.83,0,0,1,.11-.63.81.81,0,0,1,.53-.37l3.83-.86a.81.81,0,0,1,.64.12.79.79,0,0,1,.37.52l2.92,13.13a.79.79,0,0,1-.11.63.81.81,0,0,1-.53.37l-3.84.86a.86.86,0,0,1-1-.64Z" style="fill:#B0BEC5"></path><g style="opacity:0.2"><path d="M203.17,223.63a.79.79,0,0,1,.12-.63.81.81,0,0,1,.52-.37l3.84-.86a.79.79,0,0,1,.63.12.8.8,0,0,1,.38.52l.68,3.08a.83.83,0,0,1-.11.63.81.81,0,0,1-.53.37l-3.84.86a.86.86,0,0,1-1-.64ZM199.48,207a.83.83,0,0,1,.11-.63.81.81,0,0,1,.53-.37l3.83-.86a.81.81,0,0,1,.64.12.79.79,0,0,1,.37.52l2.92,13.13a.79.79,0,0,1-.11.63.81.81,0,0,1-.53.37l-3.84.86a.86.86,0,0,1-1-.64Z"></path></g></g></g><g id="freepik--character-1--inject-37"><g id="freepik--character--inject-37"><path d="M171.65,178.74h0A9,9,0,0,1,167.3,188l-50.91,26.54-.15,2.94-2.32,1.34,3,1.72,56.28-32.58Z" style="fill:#B0BEC5"></path><g style="opacity:0.1"><path d="M171.65,178.74h0A9,9,0,0,1,167.3,188l-50.91,26.54-.15,2.94-2.32,1.34,3,1.72,56.28-32.58Z"></path></g><path d="M119.49,108.12l-13,7.51L162,150.72a14.8,14.8,0,0,1,6.67,10l8.08,52.32a.9.9,0,0,0,1.34.63h0c.31-.17.48-.5.38-1.78l-4.63-55.59a14.37,14.37,0,0,0-5.45-9.42Z" style="fill:#B0BEC5"></path><path d="M119.49,108.12l-13,7.51L162,150.72a14.8,14.8,0,0,1,6.67,10l8.08,52.32a.9.9,0,0,0,1.34.63h0c.31-.17.48-.5.38-1.78l-4.63-55.59a14.37,14.37,0,0,0-5.45-9.42Z" style="opacity:0.2"></path><path d="M172.18,181.91a8.77,8.77,0,0,1-4.26,9.05l-47.5,27.45,2.54,5.24,45.88-26.49a4.3,4.3,0,0,1,6.4,3Z" style="fill:#B0BEC5"></path><path d="M172.18,181.91a8.77,8.77,0,0,1-4.26,9.05l-47.5,27.45,2.54,5.24,45.88-26.49a4.3,4.3,0,0,1,6.4,3Z" style="opacity:0.2"></path><path d="M113.11,218.42l-.64-3.83-48-27.7,5.81-3.36-2.9-1.68-2.18,1.26a4.35,4.35,0,0,1-6.17-5.49l.2-.47-.31.74h0l-4.34,10,3.78,2.52,3.19-1.84Z" style="fill:#B0BEC5"></path><path d="M113.11,218.42l-.64-3.83-48-27.7,5.81-3.36-2.9-1.68-2.18,1.26a4.35,4.35,0,0,1-6.17-5.49l.2-.47-.31.74h0l-4.34,10,3.78,2.52,3.19-1.84Z" style="opacity:0.1"></path><path d="M113.73,215.32,64.68,187a6.86,6.86,0,0,1-3.1-5.37v-2.89a6.86,6.86,0,0,1,3.1-5.37L113.73,145a6.84,6.84,0,0,1,6.2,0l49,28.32a6.86,6.86,0,0,1,3.1,5.37v2.93A6.87,6.87,0,0,1,169,187l-49,28.3A6.84,6.84,0,0,1,113.73,215.32Z" style="fill:#455a64"></path><path d="M114.64,215.71a5,5,0,0,1-.91-.39L64.68,187a6.87,6.87,0,0,1-3.1-5.37v-2.89a6.94,6.94,0,0,1,2.52-5c-1.1,1-.91,2.31.58,3.17l48.82,28.18Z" style="fill:#37474f"></path><path d="M172.08,178.72v2.93A6.82,6.82,0,0,1,169,187l-49,28.31a6.9,6.9,0,0,1-5.29.39l-1.14-10.6.23.14a6.84,6.84,0,0,0,6.2,0l49-28.32c1.49-.86,1.69-2.19.58-3.17A6.92,6.92,0,0,1,172.08,178.72Z" style="fill:#263238"></path><path d="M131.18,155.1,82.12,183.42a6.39,6.39,0,0,1-3.63.72,5,5,0,0,1-.54-.06l-.11,0-.33-.06h0l-.49-.12a5,5,0,0,1-1-.45L73.4,182a8.72,8.72,0,0,1-3.73-5.31L62.21,135a4.81,4.81,0,0,1-.06-.77c0-.1,0-.2,0-.31a5.76,5.76,0,0,1,.34-1.52,5.62,5.62,0,0,1,1.64-2.34l.21-.16a3,3,0,0,1,.33-.21l49.05-28.32a6.84,6.84,0,0,1,6.2,0l2.52,1.46a6.55,6.55,0,0,1,1.49,1.21l.25.27a10.74,10.74,0,0,1,.91,1.22l.17.28.14.25c.07.13.13.24.19.37a2.43,2.43,0,0,1,.16.37c0,.1.09.2.13.3a.88.88,0,0,1,0,.15l.09.27c0,.12.07.24.1.36l.06.26,7.46,41.64A5.46,5.46,0,0,1,131.18,155.1Z" style="fill:#455a64"></path><path d="M70.94,140.05l7.46,41.64a2.34,2.34,0,0,0,3.73,1.73l49.05-28.32a5.47,5.47,0,0,0,2.47-5.31l-7.46-41.64a2.36,2.36,0,0,0-3.74-1.73l-49,28.32A5.44,5.44,0,0,0,70.94,140.05Z" style="fill:#263238"></path><path d="M80.86,183.92a7.47,7.47,0,0,1-2.37.22,5,5,0,0,1-.54-.06,3.39,3.39,0,0,1-.44-.08h0l-.49-.12a5,5,0,0,1-1-.45L73.4,182a8.72,8.72,0,0,1-3.73-5.31L62.21,135a4.81,4.81,0,0,1-.06-.77c0-.1,0-.2,0-.31a5.76,5.76,0,0,1,.34-1.52l8.75,5a4.91,4.91,0,0,0-.31,2.66l7.46,41.64a2.33,2.33,0,0,0,2.45,2.16S80.86,183.9,80.86,183.92Z" style="fill:#37474f"></path><g id="freepik--character--inject-37"><g id="freepik--legs--inject-37"><path d="M157.16,228c-.07-7.41,6.2-26.14,6.2-26.14l-13.11-8.92s-.93,4.62-2.11,10.83-2.73,8.67-2.73,8.67-2.75,3.06-2.8,5.19,1.48,7.07,2.35,10.88,1.4,6.71,3.42,10.44,11.54,7,11.23,3.3C159.18,237.12,157.38,234.05,157.16,228Z" style="fill:#ffa8a7"></path><path d="M145.41,212.44c-.81-.09-1.81,1.25-2.54,2.22s-2.45,1.64-2.3,4.22,2.32,4.64,2.52,8.17,0,9.55,4.86,14.1,10.24,5.27,12.29,4.23a2.51,2.51,0,0,0,1.29-1.46,2.05,2.05,0,0,0-.21-1.65c-.52-1.33-1-2.68-1.41-4a55,55,0,0,1-2.07-8.56c-.25-1.88-.21-3.6-.66-3.92a7.38,7.38,0,0,0-3.75-1.45c-2-.4-3.12-.4-3.43-.24s-.35.8-.41,1.24-.17,1.17-.26,1.76a.85.85,0,0,1-.12.39.33.33,0,0,1-.34.17c-.14,0-.22-.2-.27-.33a34.57,34.57,0,0,1-1.44-6.56,21.59,21.59,0,0,0-1.12-3.94c-.29-.83-.75-2-.95-2.75a1.57,1.57,0,0,1,0-1.18Z" style="fill:#37474f"></path><path d="M168.26,230s3.58,10.42,5.74,14.3a43.91,43.91,0,0,0,8.33,11.07c.77.73,2.51,2,3.14,2.62a1.26,1.26,0,0,1,.08,1.94c-1.27,1.5-7.21,2.47-10.84.32s-7.42-6.58-9.64-8.38l-2.92-2.41c-.73-.61-.67-1-.52-1.91l-.3-1.55c-.41-3.17-4.67-10.34-4.67-10.34Z" style="fill:#ffa8a7"></path><path d="M161.33,246c-.71.38-.78,2.05-.83,3.27s-1.09,2.73.5,4.78,4.54,2.51,6.7,5.3,5.4,7.88,12,8.86,11.42-1.47,12.52-3.48a2.53,2.53,0,0,0,.24-1.94c-.19-.67-.55-.85-1.11-1.23-1.18-.81-2.34-1.65-3.46-2.54a54.47,54.47,0,0,1-6.55-5.87c-1.27-1.41-2.21-2.85-2.77-2.86a7.38,7.38,0,0,0-3.91.93,7.76,7.76,0,0,0-3,1.75c-.23.42.17.85.37,1.25l.78,1.6a1.06,1.06,0,0,1,.13.39.36.36,0,0,1-.19.33.52.52,0,0,1-.42-.12,33.64,33.64,0,0,1-4.89-4.59,18.77,18.77,0,0,0-2.81-2.46c-.72-.52-1.64-1.06-2.36-1.58-.53-.38-.72-.54-.79-.81Z" style="fill:#37474f"></path><path d="M163.27,212.2c.95-5.07,2.37-12.84,3.26-18,1.42-8.27,2.41-16.9,1-20.65-1.35-3.54-8.63-8.21-16.3-13s-21.3-12.31-21.3-12.31l-40.8,5.82c.83,7.08,1.16,10.55,4.63,16.91,3.35,6.16,8.1,10.11,17.44,15.13,8.39,4.5,18.33,9.35,20.53,10.5,2.78,1.45,5.38,2.58,6.62,7,1.18,4.17,2.75,11.47,7.88,20.22l11.1,18.94s9.61,1.18,14.89-6.33C172.19,236.38,167.91,224.65,163.27,212.2Z" style="fill:#B0BEC5"></path><path d="M163.27,212.2c.95-5.07,2.37-12.84,3.26-18,1.42-8.27,2.41-16.9,1-20.65-1.35-3.54-8.63-8.21-16.3-13s-21.3-12.31-21.3-12.31l-40.8,5.82c.83,7.08,1.16,10.55,4.63,16.91,3.35,6.16,8.1,10.11,17.44,15.13,8.39,4.5,18.33,9.35,20.53,10.5,2.78,1.45,5.38,2.58,6.62,7,1.18,4.17,2.75,11.47,7.88,20.22l11.1,18.94s9.61,1.18,14.89-6.33C172.19,236.38,167.91,224.65,163.27,212.2Z" style="fill:#fff;opacity:0.7000000000000001"></path><path d="M162.18,209.26c-4.36-11.67-8.77-23.22-10-25.69-2.65-5.25-25.54-20-26.26-20.49h0l1.08-1.54a15.31,15.31,0,0,0,2.28-6,16.51,16.51,0,0,1-1.06,6.84c3.52,2.36,12.46,8.36,16.05,10.92,4.5,3.21,9.28,7.09,11.23,12.58C156.92,189.93,160.45,202.84,162.18,209.26Z" style="fill:#B0BEC5;opacity:0.15"></path><path d="M162.18,209.26c-4.36-11.67-8.77-23.22-10-25.69-2.65-5.25-25.54-20-26.26-20.49h0l1.08-1.54a15.31,15.31,0,0,0,2.28-6,16.51,16.51,0,0,1-1.06,6.84c3.52,2.36,12.46,8.36,16.05,10.92,4.5,3.21,9.28,7.09,11.23,12.58C156.92,189.93,160.45,202.84,162.18,209.26Z" style="opacity:0.15"></path><path d="M154.77,238.82l2.12,4.09s11.49,1.86,15.61-6.48l-1.53-4C169,237.1,160.39,240.08,154.77,238.82Z" style="fill:#B0BEC5"></path><path d="M154.77,238.82l2.12,4.09s11.49,1.86,15.61-6.48l-1.53-4C169,237.1,160.39,240.08,154.77,238.82Z" style="fill:#fff;opacity:0.8"></path></g><g id="freepik--top--inject-37"><path d="M113.4,101.15c4.57-1,10-.24,13.14,4.21s8,20.15,11.15,28.5c.87,2.28-8.44,11.83-12.38,5.95C118.17,129.14,113.4,101.15,113.4,101.15Z" style="fill:#f28f8f"></path><path d="M113.24,101c3-.54,5.58-.71,8.33.29s4.63,2.4,6.78,6.76a110.48,110.48,0,0,1,4.24,10.27s-8,5.49-15.86,5.5Z" style="fill:#B0BEC5"></path><g id="freepik--Chest--inject-37"><path d="M98.57,103.61,87.38,106c-1.88.72-3.07,11.84-2.83,25.56.22,13.25,4.7,31.93,4.7,31.93s10.93,4.1,26.09-1.33c13.41-4.81,16.81-13.32,16.81-13.32L126.91,142l-.19-12a15.58,15.58,0,0,0,.49-14c-3.45-7.65-14-15-14-15l-4.92.44Z" style="fill:#fafafa"></path><path d="M98.26,132.24a10.71,10.71,0,0,0,9.58,4.26,10.56,10.56,0,0,0,8.24-5.46s-.84,6.68-8.78,7.14S98.26,132.24,98.26,132.24Z" style="opacity:0.1"></path></g><g id="freepik--Head--inject-37"><path d="M115.55,69.18c2.08,1.19,5.56,6.37,4.65,17.2-.8,9.45-3.66,11.23-5.15,11.91s-3.62.52-6.55.22v3.82c3.77,5.75,5,9.51,6.6,15a124.39,124.39,0,0,0-18.82-12.63l-.15-12.77s-1.62,1.63-4.47-.77c-2.35-2-3.19-5.39-1.41-7.25a4,4,0,0,1,6.44,1.17S95.54,74,101.45,70.62,115.21,72.76,115.55,69.18Z" style="fill:#ffa8a7"></path><path d="M117.82,82.68a1.25,1.25,0,1,1-1.36-1.19A1.27,1.27,0,0,1,117.82,82.68Z" style="fill:#263238"></path><path d="M108.83,83.64a1.25,1.25,0,1,1-1.36-1.18A1.27,1.27,0,0,1,108.83,83.64Z" style="fill:#263238"></path><path d="M111.78,92.52a1.26,1.26,0,1,1-1.37-1.19A1.29,1.29,0,0,1,111.78,92.52Z" style="fill:#b16668"></path><path d="M108.5,98.51c-3-.33-9.09-2-10.09-4.38a6.31,6.31,0,0,0,2.19,3c1.85,1.53,7.9,3.15,7.9,3.15Z" style="fill:#f28f8f"></path><path d="M120.19,79.66h0a33,33,0,0,0-1.52-5.52.61.61,0,0,0,0-.11c-.08,6.76-9,6.34-9,6.34,1.71-4.42-.49-6.24-.49-6.24-2.3,5.73-6.77,6.72-6.77,6.72,0-4.07-1.7-6.06-1.7-6.06.79,7.12-4,10.3-4,10.3a4,4,0,0,0-6.43-1.17c-1.78,1.86-.94,5.27,1.41,7.25,2.85,2.4,4.47.77,4.47.77l.09,7.79c-.34-3.15-10.09-9.17-10.86-20.23-.6-8.71,2.34-14.78,11.06-18,8.41-3,15.67,1.82,15.67,1.82,4.5-.26,8.42,2.65,9.79,7.69A9.9,9.9,0,0,1,120.19,79.66Z" style="fill:#e0e0e0"></path><path d="M105,80.49l2.48-1.83a1.48,1.48,0,0,0-2.12-.37A1.63,1.63,0,0,0,105,80.49Z" style="fill:#455a64"></path><path d="M118.89,79.46,116.16,78a1.48,1.48,0,0,1,2-.68A1.62,1.62,0,0,1,118.89,79.46Z" style="fill:#455a64"></path><polygon points="111.47 81.97 112.81 89.92 116.97 87.91 111.47 81.97" style="fill:#f28f8f"></polygon></g><path d="M145.33,136.09c1.73-.47,2.79,1.51,2.58,4.74s-2.27,9.2-7.22,7.56S145.33,136.09,145.33,136.09Z" style="fill:#f28f8f"></path><path d="M128.92,130.33a3.74,3.74,0,0,1,2.66-1.91,17.07,17.07,0,0,1,11.85,1.4c1.34.79,2,1.66,2.14,2.49h.05c-.07,5.35-1.74,11.37-4,14.54l-.05.06,0,.05h0a4.05,4.05,0,0,1-1.72,1.27,10,10,0,0,1-9-1.06,4.18,4.18,0,0,1-1.37-1.65h0s0,0,0-.05l0-.08c-1.48-3.62-1.69-9.86-.51-15.08Z" style="fill:#f5f5f5"></path><path d="M131.58,128.42c-3.43,1-3.71,3.33-.61,5.14A17.13,17.13,0,0,0,142.82,135c3.44-1,3.71-3.34.61-5.15A17.07,17.07,0,0,0,131.58,128.42Z" style="fill:#fafafa"></path><path d="M132.62,129.44c-2.75.62-2.92,2.12-.4,3.37a16.84,16.84,0,0,0,9.56,1.13c2.75-.61,2.93-2.12.4-3.36A16.93,16.93,0,0,0,132.62,129.44Z" style="fill:#e6e6e6"></path><path d="M132.38,131.48a5,5,0,0,0-1.4.5,5,5,0,0,0,1.24.83,16.84,16.84,0,0,0,9.56,1.13,4.69,4.69,0,0,0,1.4-.51,5.31,5.31,0,0,0-1.24-.82A16.84,16.84,0,0,0,132.38,131.48Z" style="fill:#37474f"></path><path d="M82.4,155.48c-2.1-7.23-2.25-15.43-4.28-31.57-1.37-10.91,1.43-16.67,10.19-18.18C97.64,115.94,94,128.59,94,128.59l1.79,18s22.15-.68,26.73-3.76c1.58-1.07,3.7-6.73,5.64-6.67a30.22,30.22,0,0,0,.09,3.81c0,.79,3.88,2.6,8.11,2.38s8.35-3.23,7.43.54c-.36,1.5-1,4.32-3.36,6.18s-10.64,2.53-13,3.56c0,0-19.85,7.92-31.11,8.64C88.1,161.83,84.5,162.71,82.4,155.48Z" style="fill:#ffa8a7"></path><path d="M89.36,105.57c-6,.5-9.29,3-11,7.39s.42,19.69.42,19.69.82,2.34,8,2.37,8.63-2,8.63-2l-.14-8.2S96.93,112.64,89.36,105.57Z" style="fill:#B0BEC5"></path></g></g><path d="M111.87,210.86a3.58,3.58,0,0,1-5.31,3.68l-45.73-26.4a6.56,6.56,0,0,1-3.16-6.82l9.73-23H61.58L45.67,203.94a1.12,1.12,0,0,0,1.61,1.33,1.13,1.13,0,0,0,.47-.52l4.33-10.24a5.22,5.22,0,0,1,6.43-1l50.83,29.35a12.6,12.6,0,0,1,6,8.72Z" style="fill:#B0BEC5"></path><path d="M120.42,218.41a2.27,2.27,0,0,1-3.56-1.86h0l-.24-2.52.07.74-2.24-23.19a14.78,14.78,0,0,0-5.53-10.34l-44.8-35.56-.88-4.93a12.36,12.36,0,0,0,1.08,20.13L102.53,185a14.8,14.8,0,0,1,6.67,10L118,246.83a.9.9,0,0,0,1.79-.22l-1.27-13.16c-.32-3.91,1.07-7.84,4.47-9.8" style="fill:#B0BEC5"></path><path d="M120.42,218.41a2.27,2.27,0,0,1-3.56-1.86h0l-.24-2.52.07.74-2.24-23.19a14.78,14.78,0,0,0-5.53-10.34l-44.8-35.56-.88-4.93a12.36,12.36,0,0,0,1.08,20.13L102.53,185a14.8,14.8,0,0,1,6.67,10L118,246.83a.9.9,0,0,0,1.79-.22l-1.27-13.16c-.32-3.91,1.07-7.84,4.47-9.8" style="opacity:0.2"></path></g><g id="freepik--exclamation--inject-37"><path d="M79.08,58.18a.78.78,0,0,1,.08-.63.79.79,0,0,1,.5-.4l3.79-1.06a.85.85,0,0,1,.64.08.79.79,0,0,1,.4.5l.85,3a.87.87,0,0,1-.59,1L81,61.8a.74.74,0,0,1-.63-.08.77.77,0,0,1-.4-.5ZM74.51,41.8a.85.85,0,0,1,.58-1l3.79-1.06a.8.8,0,0,1,.64.08.83.83,0,0,1,.4.5l3.61,13a.8.8,0,0,1-.08.64.83.83,0,0,1-.5.4l-3.79,1.05a.85.85,0,0,1-1-.58Z" style="fill:#B0BEC5"></path><path d="M73.72,71.61a.85.85,0,0,1,0-1.19l2.7-2.86a.82.82,0,0,1,.59-.25.76.76,0,0,1,.6.22l2.29,2.17a.81.81,0,0,1,.26.59.8.8,0,0,1-.23.6l-2.7,2.85a.77.77,0,0,1-.59.26.8.8,0,0,1-.6-.22ZM61.38,59.91a.77.77,0,0,1-.26-.59.83.83,0,0,1,.22-.6l2.71-2.85a.77.77,0,0,1,.59-.26.83.83,0,0,1,.6.22L75,65.09a.79.79,0,0,1,.26.58.81.81,0,0,1-.23.61l-2.7,2.85a.85.85,0,0,1-1.19,0Z" style="fill:#B0BEC5"></path><g style="opacity:0.6000000000000001"><path d="M73.72,71.61a.85.85,0,0,1,0-1.19l2.7-2.86a.82.82,0,0,1,.59-.25.76.76,0,0,1,.6.22l2.29,2.17a.81.81,0,0,1,.26.59.8.8,0,0,1-.23.6l-2.7,2.85a.77.77,0,0,1-.59.26.8.8,0,0,1-.6-.22ZM61.38,59.91a.77.77,0,0,1-.26-.59.83.83,0,0,1,.22-.6l2.71-2.85a.77.77,0,0,1,.59-.26.83.83,0,0,1,.6.22L75,65.09a.79.79,0,0,1,.26.58.81.81,0,0,1-.23.61l-2.7,2.85a.85.85,0,0,1-1.19,0Z" style="fill:#fff"></path></g></g></g></svg>