<svg width="333" height="167" viewBox="0 0 333 167" fill="none" xmlns="http://www.w3.org/2000/svg">
<path d="M42.0106 57.0211C55.2712 57.0211 66.0211 46.2712 66.0211 33.0106C66.0211 19.7499 55.2712 9 42.0106 9C28.7499 9 18 19.7499 18 33.0106C18 46.2712 28.7499 57.0211 42.0106 57.0211Z" fill="#FAFAFA"/>
<path d="M21 136.301C21 134.529 21.6946 132.829 22.9311 131.574C24.1676 130.32 25.845 129.614 27.5949 129.612C28.2356 129.613 28.8726 129.71 29.4853 129.9C29.3883 129.22 29.3393 128.533 29.3386 127.845C29.3386 125.986 29.7001 124.146 30.4025 122.429C31.105 120.711 32.1345 119.151 33.4324 117.837C34.7302 116.523 36.2709 115.481 37.9664 114.771C39.6619 114.06 41.479 113.695 43.3138 113.696C44.1824 113.694 45.0493 113.773 45.9034 113.932C47.2822 111.641 49.3587 109.867 51.8199 108.875C54.2811 107.884 56.9936 107.73 59.5487 108.437C62.1038 109.143 64.3629 110.672 65.9856 112.793C67.6084 114.913 68.5067 117.511 68.5453 120.194H68.7438C71.7291 120.194 74.5922 121.395 76.7031 123.534C78.8141 125.672 80 128.572 80 131.597C80 134.621 78.8141 137.522 76.7031 139.66C74.5922 141.799 71.7291 143 68.7438 143H27.405C25.6861 142.95 24.0544 142.221 22.858 140.97C21.6615 139.719 20.9948 138.044 21 136.301V136.301Z" fill="#F0F0F0"/>
<path d="M37.3162 20.6623C37.3204 20.01 37.1711 19.3659 36.8802 18.782C36.5893 18.1982 36.1651 17.691 35.6419 17.3015C35.1186 16.9121 34.5111 16.6512 33.8683 16.5401C33.2256 16.429 32.5657 16.4707 31.9421 16.662C32.0041 16.2385 32.0359 15.8112 32.0371 15.3832C32.0348 13.0406 31.1026 10.7946 29.4453 9.1389C27.7879 7.48319 25.5411 6.55316 23.1984 6.55316C22.6508 6.55371 22.1043 6.60286 21.5654 6.70004C20.6929 5.27049 19.3794 4.16325 17.8228 3.5452C16.2662 2.92715 14.5509 2.83176 12.9354 3.27342C11.3199 3.71508 9.8917 4.66985 8.86605 5.99385C7.84039 7.31784 7.27286 8.93933 7.24896 10.614H7.11936C5.23119 10.614 3.42035 11.364 2.08521 12.6992C0.750074 14.0343 0 15.8451 0 17.7333C0 19.6215 0.750074 21.4323 2.08521 22.7675C3.42035 24.1026 5.23119 24.8527 7.11936 24.8527H33.2554C34.3455 24.8233 35.3809 24.3684 36.1399 23.5852C36.8989 22.802 37.3211 21.7528 37.3162 20.6623V20.6623Z" fill="#F0F0F0"/>
<path d="M194.385 10.9478C194.387 10.5425 194.293 10.1425 194.111 9.78006C193.93 9.41759 193.666 9.10271 193.341 8.86073C193.016 8.61874 192.638 8.45638 192.239 8.3867C191.84 8.31702 191.43 8.34196 191.042 8.45951C191.079 8.19617 191.1 7.93063 191.102 7.66462C191.091 6.21773 190.509 4.83372 189.484 3.81302C188.458 2.79231 187.071 2.21729 185.624 2.21278C185.285 2.21364 184.947 2.24545 184.614 2.30782C184.072 1.41727 183.255 0.727013 182.287 0.341208C181.319 -0.0445978 180.251 -0.105018 179.246 0.169063C178.24 0.443144 177.351 1.03685 176.712 1.86061C176.074 2.68437 175.721 3.69347 175.706 4.73566H175.628C175.03 4.70924 174.433 4.80421 173.873 5.01482C173.312 5.22543 172.801 5.54734 172.368 5.96112C171.936 6.3749 171.592 6.87198 171.356 7.42239C171.121 7.9728 171 8.56513 171 9.16366C171 9.7622 171.121 10.3545 171.356 10.9049C171.592 11.4554 171.936 11.9524 172.368 12.3662C172.801 12.78 173.312 13.1019 173.873 13.3125C174.433 13.5231 175.03 13.6181 175.628 13.5917H191.88C192.561 13.5691 193.206 13.2789 193.675 12.7841C194.144 12.2892 194.399 11.6295 194.385 10.9478V10.9478Z" fill="#F0F0F0"/>
<path d="M222 158.73C221.999 157.49 222.287 156.268 222.843 155.16C223.399 154.052 224.206 153.09 225.2 152.35C226.194 151.611 227.348 151.114 228.569 150.9C229.789 150.686 231.043 150.76 232.23 151.118C232.108 150.311 232.047 149.497 232.048 148.681C232.048 146.471 232.484 144.282 233.329 142.24C234.175 140.198 235.415 138.343 236.978 136.78C238.541 135.217 240.396 133.977 242.438 133.132C244.48 132.286 246.669 131.85 248.879 131.85C249.919 131.853 250.957 131.949 251.981 132.136C253.628 129.389 256.127 127.255 259.099 126.06C262.071 124.865 265.352 124.675 268.442 125.517C271.532 126.36 274.262 128.189 276.216 130.727C278.17 133.265 279.241 136.372 279.266 139.575H279.508C281.316 139.529 283.116 139.846 284.8 140.506C286.484 141.167 288.019 142.158 289.314 143.421C290.609 144.684 291.638 146.193 292.341 147.86C293.044 149.527 293.406 151.317 293.406 153.126C293.406 154.935 293.044 156.726 292.341 158.393C291.638 160.06 290.609 161.569 289.314 162.832C288.019 164.095 286.484 165.086 284.8 165.747C283.116 166.407 281.316 166.724 279.508 166.678H229.741C227.669 166.626 225.699 165.766 224.252 164.281C222.805 162.795 221.997 160.803 222 158.73V158.73Z" fill="#F0F0F0"/>
<path d="M182.228 92.8485C185.408 92.7621 187.698 89.1333 185.27 85.7637C184.699 85.2338 184.004 84.8569 183.249 84.668C182.493 84.4792 181.702 84.4846 180.95 84.6837C181.121 83.3475 181.006 81.9901 180.613 80.7016C180.22 79.4132 179.557 78.223 178.669 77.2101C175.844 74.7736 173.036 74.2639 170.573 74.7218C169.705 73.2866 168.393 72.1735 166.835 71.551C165.277 70.9285 163.559 70.8305 161.941 71.272C160.323 71.7134 158.893 72.6702 157.867 73.9973C156.841 75.3245 156.276 76.9498 156.257 78.6271H156.127C149.915 78.6271 145.56 86.5845 152.671 92.8658H182.228V92.8485Z" fill="#F0F0F0"/>
<path d="M54.0001 43.9901C54.0006 43.5865 54.0954 43.1886 54.2769 42.828C54.4584 42.4675 54.7216 42.1544 55.0455 41.9136C55.3694 41.6727 55.7451 41.5109 56.1426 41.4409C56.5401 41.3709 56.9484 41.3947 57.3351 41.5104C57.2975 41.2471 57.2773 40.9815 57.2746 40.7155C57.2746 39.2582 57.8536 37.8605 58.8841 36.8299C59.9146 35.7994 61.3123 35.2205 62.7697 35.2205C63.1117 35.2213 63.4529 35.2531 63.7892 35.3155C64.3285 34.4228 65.1442 33.7303 66.1126 33.3429C67.081 32.9556 68.1493 32.8946 69.1555 33.1691C70.1618 33.4436 71.0511 34.0387 71.6886 34.8641C72.3261 35.6896 72.6771 36.7004 72.6884 37.7434H72.7662C73.3641 37.7169 73.9612 37.8119 74.5215 38.0225C75.0817 38.2331 75.5935 38.555 76.026 38.9688C76.4584 39.3826 76.8026 39.8797 77.0378 40.4301C77.2729 40.9805 77.3941 41.5728 77.3941 42.1714C77.3941 42.7699 77.2729 43.3622 77.0378 43.9126C76.8026 44.4631 76.4584 44.9601 76.026 45.3739C75.5935 45.7877 75.0817 46.1096 74.5215 46.3202C73.9612 46.5308 73.3641 46.6258 72.7662 46.5994H56.5229C55.8445 46.5813 55.2003 46.2979 54.7286 45.81C54.2569 45.3221 53.9953 44.6687 54.0001 43.9901V43.9901Z" fill="#F0F0F0"/>
<path d="M327.898 60.9889C331.891 60.8783 334.775 56.2298 331.728 51.9134C331.006 51.2217 330.122 50.731 329.159 50.4887C328.197 50.2463 327.189 50.2605 326.234 50.5299C326.452 48.8172 326.31 47.0769 325.817 45.4243C325.323 43.7718 324.49 42.245 323.372 40.9452C319.814 37.8241 316.278 37.1711 313.177 37.7577C312.081 35.922 310.428 34.499 308.466 33.7036C306.505 32.9081 304.343 32.7835 302.306 33.3484C300.269 33.9133 298.468 35.1371 297.175 36.835C295.882 38.5329 295.167 40.6128 295.138 42.7603H294.975C287.152 42.7603 281.669 52.9537 290.623 61H327.855L327.898 60.9889Z" fill="#F0F0F0"/>
</svg>
