<svg width="181" height="205" viewBox="0 0 181 205" fill="none" xmlns="http://www.w3.org/2000/svg">
<path fill-rule="evenodd" clip-rule="evenodd" d="M99.7891 9.03801C118.293 14.9241 128.702 32.5593 143.252 45.2913C155.947 56.401 174.032 62.9322 179.496 78.7903C184.983 94.7147 173.86 110.723 171.539 127.387C168.5 149.205 179.299 175.538 163.814 191.387C148.456 207.107 121.879 199.692 99.7891 200.826C76.2099 202.036 50.4967 210.984 30.74 198.217C10.7984 185.33 1.34063 159.869 0.0462351 136.369C-1.10218 115.52 19.4807 100.469 24.2353 80.123C29.7705 56.4367 11.9442 25.9592 29.7665 9.19111C47.0894 -7.10714 77.0151 1.79348 99.7891 9.03801Z" fill="#151A39"/>
<path d="M90.2397 167.178C125.894 167.178 154.797 150.49 154.797 129.905C154.797 109.321 125.894 92.6333 90.2397 92.6333C54.5858 92.6333 25.6826 109.321 25.6826 129.905C25.6826 150.49 54.5858 167.178 90.2397 167.178Z" fill="#F0F0F0"/>
<path d="M127.315 142.838C123.081 140.394 123.081 136.432 127.315 133.988C131.548 131.544 138.412 131.544 142.645 133.988C146.878 136.432 146.878 140.394 142.645 142.838C138.412 145.282 131.548 145.282 127.315 142.838Z" fill="#E0E0E0"/>
<path d="M41.2129 143.178L30.0775 136.75C29.4501 136.388 29.4501 135.799 30.0775 135.438L94.8484 98.042C95.2004 97.8636 95.5895 97.7707 95.9841 97.7707C96.3787 97.7707 96.7678 97.8636 97.1198 98.042L108.258 104.47C108.885 104.832 108.885 105.421 108.258 105.783L43.4871 143.178C43.1346 143.356 42.7451 143.449 42.35 143.449C41.9549 143.449 41.5654 143.356 41.2129 143.178V143.178Z" fill="#E0E0E0"/>
<path d="M81.2388 131.719L90.8124 126.185C91.7988 125.615 92.292 124.869 92.292 124.121C92.292 123.373 92.292 122.79 92.292 122.79L82.3622 117.189C82.0848 117.01 81.8538 116.767 81.6881 116.482C81.5224 116.196 81.4266 115.875 81.4087 115.545V103.738L64.6947 113.4V125.201C64.7139 125.53 64.8102 125.851 64.9758 126.136C65.1414 126.422 65.3717 126.665 65.6482 126.845L74.0984 131.711C76.0657 132.859 79.266 132.859 81.2388 131.719Z" fill="#E25353"/>
<g opacity="0.6">
<path opacity="0.6" d="M81.2388 131.719L90.8124 126.185C91.7988 125.615 92.292 124.869 92.292 124.121C92.292 123.373 92.292 122.79 92.292 122.79L82.3622 117.189C82.0848 117.01 81.8538 116.767 81.6881 116.482C81.5224 116.196 81.4266 115.875 81.4087 115.545V103.738L64.6947 113.4V125.201C64.7139 125.53 64.8102 125.851 64.9758 126.136C65.1414 126.422 65.3717 126.665 65.6482 126.845L74.0984 131.711C76.0657 132.859 79.266 132.859 81.2388 131.719Z" fill="black"/>
</g>
<path opacity="0.3" d="M68.7033 127.292V128.618L65.64 126.85C65.3636 126.67 65.1335 126.427 64.9683 126.142C64.8031 125.856 64.7075 125.536 64.6892 125.206V113.4L67.8731 111.561C67.9388 112.369 68.0101 113.205 68.0786 114.027L65.84 115.315V124.535C65.8578 124.865 65.9534 125.186 66.1192 125.472C66.2849 125.757 66.516 126 66.7935 126.179L68.7033 127.292Z" fill="black"/>
<path d="M65.84 124.538C65.8588 124.867 65.955 125.188 66.1206 125.474C66.2862 125.759 66.5168 126.002 66.7935 126.182L74.0874 130.385C76.0602 131.522 79.2605 131.525 81.2361 130.385L90.8261 124.85C92.8016 123.71 92.8016 121.864 90.8261 120.724L83.5267 116.521C83.2506 116.34 83.0207 116.097 82.8556 115.812C82.6904 115.526 82.5947 115.206 82.5759 114.877V105.654L65.8619 115.315L65.84 124.538Z" fill="#E25353"/>
<path opacity="0.3" d="M65.84 124.538C65.8588 124.867 65.955 125.188 66.1206 125.474C66.2862 125.759 66.5168 126.002 66.7935 126.182L74.0874 130.385C76.0602 131.522 79.2605 131.525 81.2361 130.385L90.8261 124.85C92.8016 123.71 92.8016 121.864 90.8261 120.724L83.5267 116.521C83.2506 116.34 83.0207 116.097 82.8556 115.812C82.6904 115.526 82.5947 115.206 82.5759 114.877V105.654L65.8619 115.315L65.84 124.538Z" fill="black"/>
<path opacity="0.5" d="M85.4584 117.647L83.5157 116.526C83.2396 116.346 83.0098 116.103 82.8446 115.817C82.6795 115.532 82.5837 115.211 82.565 114.882V105.654L65.851 115.315V124.538C65.8698 124.867 65.9659 125.188 66.1316 125.474C66.2972 125.759 66.5277 126.002 66.8045 126.182L68.7225 127.278L85.4584 117.647Z" fill="black"/>
<path d="M92.2947 122.792V124.124C92.2947 124.872 91.7988 125.615 90.8151 126.187L81.2251 131.719C80.1756 132.28 79.0034 132.57 77.8138 132.566V131.24C79.0034 131.244 80.1756 130.953 81.2251 130.393L90.8151 124.856C91.7988 124.288 92.2947 123.54 92.2947 122.792Z" fill="#E25353"/>
<path opacity="0.5" d="M92.2947 122.792V124.124C92.2947 124.872 91.7988 125.615 90.8151 126.187L81.2251 131.719C80.1756 132.28 79.0034 132.57 77.8138 132.566V131.24C79.0034 131.244 80.1756 130.953 81.2251 130.393L90.8151 124.856C91.7988 124.288 92.2947 123.54 92.2947 122.792Z" fill="black"/>
<path d="M38.988 135.999C39.3493 136.174 39.7466 136.261 40.1478 136.254C40.549 136.247 40.9429 136.145 41.2978 135.958L105.962 98.6256C106.309 98.3995 106.597 98.0948 106.804 97.7364C107.011 97.3779 107.131 96.9757 107.154 96.5624V44.2503C107.141 43.8482 107.034 43.4547 106.841 43.1018C106.647 42.749 106.374 42.4468 106.041 42.22C105.68 42.0453 105.283 41.9582 104.882 41.9658C104.482 41.9734 104.088 42.0755 103.734 42.2638L39.0702 79.6073C38.7247 79.8348 38.4378 80.1409 38.2331 80.5004C38.0283 80.8599 37.9115 81.2627 37.892 81.676V133.98C37.9042 134.379 38.0097 134.769 38.2001 135.12C38.3904 135.47 38.6603 135.772 38.988 135.999Z" fill="#E25353"/>
<path d="M41.306 135.955L105.97 98.6229C106.317 98.3972 106.606 98.0927 106.813 97.7341C107.02 97.3756 107.14 96.9731 107.162 96.5596V44.2503C107.162 43.4913 106.628 43.1817 105.97 43.5626L41.306 80.8951C40.9592 81.121 40.6705 81.4257 40.4634 81.7841C40.2563 82.1426 40.1366 82.5449 40.1141 82.9583V135.268C40.1141 136.027 40.6484 136.336 41.306 135.955Z" fill="#E25353"/>
<path opacity="0.5" d="M41.306 135.955L105.97 98.6229C106.317 98.3972 106.606 98.0927 106.813 97.7341C107.02 97.3756 107.14 96.9731 107.162 96.5596V44.2503C107.162 43.4913 106.628 43.1817 105.97 43.5626L41.306 80.8951C40.9592 81.121 40.6705 81.4257 40.4634 81.7841C40.2563 82.1426 40.1366 82.5449 40.1141 82.9583V135.268C40.1141 136.027 40.6484 136.336 41.306 135.955Z" fill="black"/>
<path d="M41.1307 137.314C40.7916 137.462 40.4244 137.535 40.0545 137.528C39.6846 137.52 39.3208 137.432 38.988 137.271C38.6595 137.042 38.3892 136.74 38.1988 136.389C38.0085 136.037 37.9034 135.645 37.892 135.246V130.484L40.1251 131.777V136.539C40.1114 137.232 40.5525 137.547 41.1307 137.314Z" fill="#E25353"/>
<path opacity="0.5" d="M41.1307 137.314C40.7916 137.462 40.4244 137.535 40.0545 137.528C39.6846 137.52 39.3208 137.432 38.988 137.271C38.6595 137.042 38.3892 136.74 38.1988 136.389C38.0085 136.037 37.9034 135.645 37.892 135.246V130.484L40.1251 131.777V136.539C40.1114 137.232 40.5525 137.547 41.1307 137.314Z" fill="black"/>
<path d="M40.1114 131.777V136.539C40.1114 137.298 40.6594 137.605 41.3033 137.227L105.967 99.8942C106.313 99.6692 106.6 99.3662 106.807 99.0098C107.014 98.6534 107.135 98.2534 107.159 97.842V93.0579L40.1114 131.777Z" fill="#E25353"/>
<path opacity="0.3" d="M40.1141 131.766V136.539C40.1141 137.298 40.6621 137.605 41.306 137.227L105.97 99.8942C106.315 99.6688 106.602 99.3658 106.809 99.0094C107.015 98.653 107.135 98.2532 107.159 97.842V93.0579L40.1141 131.766Z" fill="black"/>
<path d="M42.3472 125.79V83.7009C42.36 83.4529 42.4312 83.2115 42.555 82.9962C42.6788 82.781 42.8517 82.5981 43.0596 82.4624L104.2 47.152C104.595 46.9246 104.915 47.1082 104.915 47.563V89.6741C104.902 89.9222 104.83 90.1637 104.706 90.379C104.582 90.5942 104.408 90.777 104.2 90.9126L43.0624 126.215C42.6678 126.442 42.3472 126.256 42.3472 125.79Z" fill="#E25353"/>
<path d="M42.3472 125.79V83.7009C42.36 83.4529 42.4312 83.2115 42.555 82.9962C42.6788 82.781 42.8517 82.5981 43.0596 82.4624L104.2 47.152C104.595 46.9246 104.915 47.1082 104.915 47.563V89.6741C104.902 89.9222 104.83 90.1637 104.706 90.379C104.582 90.5942 104.408 90.777 104.2 90.9126L43.0624 126.215C42.6678 126.442 42.3472 126.256 42.3472 125.79Z" fill="#263238"/>
<path d="M73.6353 113.934C73.3098 114.146 73.039 114.431 72.8447 114.767C72.6504 115.103 72.5383 115.481 72.5174 115.868C72.5174 116.581 73.0188 116.871 73.6353 116.515C73.9611 116.303 74.2322 116.017 74.4265 115.68C74.6208 115.344 74.7327 114.966 74.7532 114.578C74.7532 113.865 74.2518 113.578 73.6353 113.934Z" fill="#E25353"/>
<path opacity="0.7" d="M40.4649 81.7801C40.2525 82.1371 40.1311 82.5407 40.1114 82.9556V131.777L37.892 130.484V81.676C37.9064 81.2598 38.0271 80.8541 38.2427 80.4978L40.4649 81.7801Z" fill="black"/>
<path opacity="0.3" d="M107.148 44.053C107.063 43.4393 106.567 43.231 105.967 43.5626L41.3033 80.8951C40.9527 81.1143 40.6633 81.4188 40.4621 81.7801L38.2263 80.4896C38.4288 80.1284 38.7191 79.824 39.0702 79.6045L103.734 42.2748C104.089 42.0864 104.483 41.9843 104.884 41.9767C105.285 41.9691 105.683 42.0562 106.044 42.2309C106.348 42.4379 106.604 42.7077 106.794 43.022C106.985 43.3364 107.105 43.688 107.148 44.053Z" fill="black"/>
<path d="M110.637 50.4921C110.541 50.4439 110.433 50.4228 110.326 50.431C110.219 50.4392 110.116 50.4764 110.028 50.5387L49.0141 85.7861C48.7733 85.9453 48.5734 86.159 48.4306 86.4099C48.2878 86.6607 48.2061 86.9417 48.1921 87.23V129.062C48.1835 129.203 48.2116 129.344 48.2735 129.471C48.3354 129.598 48.4291 129.707 48.5455 129.788C48.6798 129.862 49.3977 130.278 49.6114 130.393C49.687 130.432 49.7715 130.45 49.8562 130.445C49.9409 130.44 50.0229 130.413 50.0936 130.366L111.094 95.1185C111.335 94.9592 111.535 94.7455 111.678 94.4947C111.82 94.2438 111.902 93.9628 111.916 93.6745V51.6265C111.928 51.5202 111.911 51.4127 111.865 51.3159C111.82 51.2191 111.748 51.1369 111.659 51.0785C111.522 50.9881 110.79 50.5825 110.637 50.4921Z" fill="#E25353"/>
<path d="M50.0795 86.3779L111.097 51.1442C111.557 50.8702 111.919 51.0949 111.919 51.6265V93.6745C111.905 93.9628 111.823 94.2438 111.68 94.4946C111.537 94.7455 111.337 94.9592 111.097 95.1185L50.0795 130.366C49.6192 130.64 49.2575 130.199 49.2575 129.667V87.8219C49.272 87.5336 49.3539 87.2528 49.4967 87.002C49.6394 86.7512 49.8391 86.5375 50.0795 86.3779V86.3779Z" fill="#FAFAFA"/>
<path d="M111.469 51.3031C111.631 51.3031 111.656 51.5059 111.656 51.6264V93.6745C111.641 93.9159 111.57 94.1506 111.449 94.3598C111.327 94.5691 111.159 94.7472 110.957 94.8801L49.948 130.127C49.907 130.154 49.8598 130.169 49.811 130.171C49.6576 130.171 49.537 129.936 49.537 129.667V87.8218C49.5502 87.5805 49.6189 87.3454 49.7377 87.1349C49.8565 86.9244 50.0222 86.7441 50.222 86.608L111.234 51.3798C111.304 51.3343 111.385 51.3078 111.469 51.3031V51.3031ZM111.469 51.0291C111.337 51.0347 111.209 51.0744 111.097 51.1442L50.0795 86.3779C49.8391 86.5374 49.6394 86.7512 49.4967 87.002C49.3539 87.2528 49.272 87.5336 49.2575 87.8218V129.667C49.2575 130.089 49.4932 130.445 49.8055 130.445C49.9023 130.443 49.9968 130.416 50.0795 130.366L111.094 95.1184C111.335 94.9592 111.534 94.7455 111.677 94.4946C111.82 94.2438 111.902 93.9628 111.916 93.6745V51.6264C111.916 51.2483 111.73 51.0291 111.456 51.0291H111.469Z" fill="#E0E0E0"/>
<path d="M48.5287 129.788C48.6191 129.834 49.2685 130.204 49.5534 130.369C49.4511 130.284 49.3701 130.176 49.3168 130.054C49.2635 129.932 49.2394 129.8 49.2466 129.667V90.5536L48.178 89.9289V129.062C48.1691 129.203 48.1967 129.343 48.2582 129.471C48.3196 129.598 48.4128 129.707 48.5287 129.788V129.788Z" fill="#F0F0F0"/>
<path d="M111.93 51.6182C111.93 51.0921 111.554 50.8784 111.108 51.1442L50.0795 86.3778C49.8391 86.5374 49.6394 86.7512 49.4967 87.002C49.3539 87.2528 49.272 87.5336 49.2575 87.8218V90.5618L111.93 54.3582V51.6182Z" fill="#E25353"/>
<g opacity="0.4">
<path opacity="0.4" d="M111.097 51.1442L50.0795 86.3751C49.8346 86.5295 49.6329 86.7435 49.4931 86.9971L48.4328 86.3806C48.5723 86.1359 48.7723 85.9312 49.0136 85.786L110.028 50.5387C110.115 50.476 110.218 50.4382 110.325 50.4295C110.432 50.4209 110.54 50.4415 110.636 50.4893C110.784 50.5825 111.477 50.9743 111.656 51.0702C111.563 51.0361 111.464 51.0249 111.367 51.0378C111.269 51.0507 111.177 51.0872 111.097 51.1442V51.1442Z" fill="white"/>
</g>
<path opacity="0.15" d="M48.178 89.9317V87.2163C48.1892 86.9204 48.277 86.6325 48.4328 86.3806L49.4959 86.9944C49.3424 87.2419 49.2564 87.5253 49.2466 87.8164V90.5564L48.178 89.9317Z" fill="black"/>
<path d="M99.0625 83.1611L62.5191 104.259C62.3414 104.374 62.1934 104.53 62.0873 104.713C61.9811 104.897 61.9197 105.102 61.9081 105.314V115.792C61.9197 116.003 61.9811 116.209 62.0873 116.392C62.1934 116.576 62.3414 116.731 62.5191 116.847L63.585 117.46C63.7744 117.556 63.9837 117.606 64.196 117.606C64.4083 117.606 64.6176 117.556 64.807 117.46L101.345 96.3624C101.523 96.2465 101.671 96.0904 101.777 95.9066C101.883 95.7229 101.944 95.5167 101.956 95.3048V84.8243C101.944 84.6128 101.883 84.407 101.777 84.2236C101.671 84.0403 101.523 83.8847 101.345 83.7694L100.276 83.1556C100.088 83.0614 99.8796 83.0127 99.6687 83.0137C99.4579 83.0146 99.2502 83.0651 99.0625 83.1611Z" fill="#E25353"/>
<path opacity="0.5" d="M101.956 84.7311C101.912 84.416 101.657 84.3009 101.35 84.479L64.807 105.577C64.6268 105.689 64.4786 105.846 64.3768 106.032L62.0889 104.711C62.1915 104.528 62.3385 104.373 62.5164 104.262L99.0625 83.1638C99.2514 83.0678 99.4603 83.0178 99.6722 83.0178C99.884 83.0178 100.093 83.0678 100.282 83.1638L101.35 83.7776C101.513 83.8843 101.652 84.0246 101.756 84.189C101.86 84.3535 101.929 84.5383 101.956 84.7311Z" fill="white"/>
<path d="M64.7029 117.512C64.524 117.583 64.3322 117.615 64.1401 117.607C63.9479 117.598 63.7597 117.549 63.5877 117.463L62.5191 116.849C62.3417 116.734 62.194 116.578 62.0878 116.395C61.9817 116.212 61.9201 116.006 61.9081 115.794V105.317C61.9163 105.103 61.9785 104.895 62.0889 104.711L64.3768 106.032C64.2657 106.213 64.2033 106.42 64.196 106.632V117.112C64.196 117.46 64.4152 117.622 64.7029 117.512Z" fill="#263238"/>
<path d="M64.807 105.577L101.35 84.479C101.687 84.2845 101.961 84.4407 101.961 84.8297V95.3102C101.95 95.5221 101.888 95.7283 101.782 95.9121C101.676 96.0958 101.528 96.252 101.35 96.3679L64.8125 117.466C64.4755 117.66 64.2015 117.501 64.2015 117.112V106.635C64.2125 106.423 64.273 106.217 64.3782 106.034C64.4834 105.85 64.6303 105.694 64.807 105.577V105.577Z" fill="#E25353"/>
<path d="M89.3739 88.7562L62.5218 104.262C62.3439 104.373 62.197 104.528 62.0944 104.711L64.3823 106.032C64.4841 105.846 64.6323 105.689 64.8125 105.577L91.6645 90.0741L89.3739 88.7562Z" fill="#455A64"/>
<path d="M91.659 90.0741L64.807 105.577C64.6292 105.693 64.4813 105.849 64.3751 106.033C64.269 106.217 64.2076 106.423 64.196 106.635V117.11C64.196 117.499 64.47 117.658 64.807 117.463L91.659 101.96V90.0741Z" fill="#37474F"/>
<path d="M70.9994 104.3L84.8556 96.3021C85.4283 95.9706 85.8941 96.2062 85.8941 96.8282C85.8684 97.1775 85.7608 97.5159 85.5799 97.8158C85.399 98.1158 85.1499 98.3688 84.8529 98.5544L70.9994 106.555C70.4268 106.887 69.9582 106.651 69.9582 106.029C69.9841 105.679 70.0918 105.341 70.2726 105.04C70.4535 104.74 70.7025 104.487 70.9994 104.3V104.3Z" fill="#E25353"/>
<path d="M73.8381 106.95C73.8406 106.947 73.8438 106.945 73.8473 106.943C73.8509 106.941 73.8547 106.94 73.8586 106.94C73.8625 106.94 73.8663 106.941 73.8699 106.943C73.8734 106.945 73.8766 106.947 73.8792 106.95C73.8914 106.968 73.8972 106.991 73.8956 107.013V108.572C73.8958 108.722 73.8829 108.873 73.8572 109.021C73.8346 109.157 73.796 109.289 73.7422 109.416C73.693 109.532 73.6285 109.64 73.5504 109.739C73.4733 109.831 73.3805 109.908 73.2764 109.967C73.1948 110.02 73.0997 110.048 73.0024 110.049C72.9652 110.046 72.929 110.035 72.896 110.018C72.863 110 72.8339 109.976 72.8106 109.947C72.7504 109.867 72.7109 109.773 72.6955 109.673C72.6693 109.541 72.6573 109.406 72.6599 109.271V107.709C72.6598 107.681 72.6654 107.654 72.6763 107.629C72.683 107.607 72.6976 107.587 72.7174 107.574L72.89 107.473C72.8956 107.468 72.9029 107.465 72.9106 107.465C72.9182 107.465 72.9255 107.468 72.9311 107.473C72.9438 107.492 72.9496 107.514 72.9476 107.536V109.076C72.9455 109.161 72.9537 109.245 72.9722 109.328C72.9798 109.381 73.0026 109.431 73.038 109.471C73.0503 109.485 73.0659 109.497 73.0835 109.504C73.1011 109.512 73.1202 109.515 73.1394 109.514C73.1862 109.511 73.2315 109.496 73.2709 109.471C73.3196 109.441 73.3639 109.405 73.4024 109.364C73.4452 109.314 73.4803 109.259 73.5065 109.199C73.5374 109.129 73.5604 109.055 73.575 108.98C73.591 108.89 73.5983 108.798 73.5969 108.706V107.163C73.5978 107.136 73.6043 107.109 73.6161 107.084C73.6228 107.061 73.6374 107.042 73.6572 107.029L73.8381 106.95Z" fill="#FAFAFA"/>
<path d="M74.9121 108.424C74.9136 108.404 74.9088 108.384 74.8984 108.366C74.8919 108.359 74.8838 108.354 74.8747 108.35C74.8657 108.347 74.856 108.346 74.8464 108.347C74.8127 108.343 74.7786 108.343 74.745 108.347L74.5861 108.377C74.5348 108.39 74.4812 108.39 74.4299 108.377C74.3897 108.364 74.3549 108.338 74.3313 108.303C74.3044 108.259 74.2867 108.209 74.2792 108.158C74.2525 108.011 74.2525 107.861 74.2792 107.714C74.2997 107.63 74.3291 107.548 74.3669 107.47C74.4044 107.393 74.4503 107.319 74.5039 107.251C74.5557 107.186 74.6189 107.132 74.6902 107.09C74.7478 107.054 74.8123 107.032 74.8793 107.024C74.9279 107.019 74.9768 107.029 75.019 107.054C75.0592 107.078 75.0908 107.115 75.1094 107.158C75.1315 107.209 75.1436 107.264 75.145 107.32C75.1479 107.347 75.1421 107.375 75.1286 107.399C75.1219 107.422 75.1073 107.441 75.0875 107.454L74.9231 107.55C74.9156 107.554 74.9071 107.556 74.8984 107.556C74.8898 107.556 74.8813 107.554 74.8738 107.55L74.8382 107.522C74.824 107.511 74.8068 107.505 74.7888 107.503C74.7536 107.507 74.7198 107.519 74.6902 107.539C74.6472 107.565 74.6091 107.598 74.5779 107.638C74.5447 107.681 74.5273 107.734 74.5285 107.788C74.5247 107.809 74.5247 107.83 74.5285 107.851C74.5338 107.859 74.5407 107.865 74.5487 107.87C74.5568 107.875 74.5658 107.878 74.5751 107.879C74.605 107.884 74.6356 107.884 74.6655 107.879L74.819 107.851C74.9478 107.827 75.0354 107.851 75.093 107.922C75.1534 108.024 75.1812 108.142 75.1724 108.259C75.1717 108.341 75.1607 108.422 75.1396 108.501C75.1179 108.586 75.0866 108.669 75.0464 108.747C75.0061 108.828 74.9555 108.904 74.8957 108.972C74.8389 109.038 74.7713 109.095 74.6957 109.139C74.6354 109.178 74.5668 109.201 74.4956 109.208C74.4441 109.209 74.3934 109.195 74.3504 109.166C74.3081 109.138 74.2756 109.096 74.2573 109.049C74.2351 108.997 74.2239 108.941 74.2244 108.884C74.2218 108.856 74.2275 108.827 74.2408 108.802C74.2475 108.779 74.2621 108.76 74.2819 108.747L74.4463 108.651C74.4683 108.651 74.4847 108.638 74.4956 108.651L74.5313 108.69C74.5386 108.698 74.5474 108.704 74.5573 108.709C74.5672 108.714 74.5779 108.717 74.5888 108.717C74.6274 108.717 74.6649 108.705 74.6957 108.681C74.7451 108.653 74.7896 108.617 74.8272 108.575C74.8458 108.552 74.8615 108.527 74.8738 108.501C74.8931 108.479 74.9064 108.452 74.9121 108.424V108.424Z" fill="#FAFAFA"/>
<path d="M75.4711 107.681C75.4706 107.539 75.4825 107.397 75.5067 107.257C75.5296 107.125 75.5654 106.995 75.6136 106.87C75.6539 106.758 75.7092 106.652 75.778 106.555C75.8354 106.472 75.9102 106.402 75.9972 106.35C76.0607 106.307 76.1382 106.29 76.2136 106.303C76.2806 106.319 76.3393 106.359 76.378 106.415C76.4296 106.49 76.4659 106.574 76.4849 106.662C76.5112 106.777 76.5241 106.895 76.5233 107.013V107.183C76.5241 107.211 76.5175 107.24 76.5041 107.265C76.4974 107.287 76.4828 107.307 76.463 107.32L75.7506 107.733C75.7489 107.782 75.7554 107.83 75.7698 107.876C75.7804 107.907 75.7993 107.934 75.8246 107.955C75.847 107.973 75.8754 107.982 75.904 107.98C75.9371 107.976 75.969 107.965 75.9972 107.947C76.0386 107.925 76.0757 107.895 76.1068 107.859C76.1348 107.828 76.1587 107.793 76.178 107.755C76.1897 107.734 76.2025 107.713 76.2164 107.692C76.2281 107.678 76.242 107.666 76.2575 107.657L76.4274 107.558C76.4332 107.553 76.4404 107.551 76.4479 107.551C76.4554 107.551 76.4626 107.553 76.4685 107.558C76.4757 107.567 76.4809 107.577 76.4837 107.588C76.4865 107.599 76.487 107.61 76.4849 107.621C76.4819 107.674 76.4708 107.727 76.452 107.777C76.4284 107.853 76.3972 107.927 76.3589 107.996C76.316 108.077 76.2645 108.152 76.2054 108.221C76.1465 108.292 76.0761 108.352 75.9972 108.399C75.9324 108.442 75.8549 108.46 75.778 108.451C75.7106 108.435 75.6519 108.394 75.6136 108.336C75.5596 108.253 75.5233 108.16 75.5067 108.062C75.4818 107.937 75.4699 107.809 75.4711 107.681V107.681ZM75.9972 106.807C75.9551 106.83 75.9185 106.862 75.8903 106.9C75.8599 106.939 75.835 106.981 75.8163 107.026C75.7971 107.072 75.7816 107.118 75.7698 107.166C75.7601 107.21 75.7537 107.254 75.7506 107.298L76.2328 107.024C76.23 106.986 76.2245 106.948 76.2164 106.911C76.2122 106.878 76.1989 106.847 76.178 106.821C76.1698 106.809 76.1593 106.799 76.147 106.792C76.1347 106.784 76.121 106.779 76.1068 106.777C76.0678 106.774 76.029 106.785 75.9972 106.807V106.807Z" fill="#FAFAFA"/>
<path d="M77.3836 106.043C77.3006 106.09 77.2352 106.163 77.1973 106.251C77.1546 106.367 77.1351 106.49 77.1397 106.613V107.602C77.1401 107.63 77.1345 107.658 77.1233 107.684C77.1166 107.707 77.102 107.726 77.0822 107.739L76.9205 107.832C76.918 107.835 76.9148 107.837 76.9113 107.839C76.9077 107.841 76.9039 107.841 76.9 107.841C76.8961 107.841 76.8923 107.841 76.8887 107.839C76.8852 107.837 76.882 107.835 76.8794 107.832C76.8672 107.813 76.8614 107.791 76.863 107.769V105.996C76.8631 105.968 76.8687 105.94 76.8794 105.914C76.8871 105.892 76.9015 105.873 76.9205 105.859L77.0822 105.766C77.0878 105.761 77.0951 105.758 77.1028 105.758C77.1104 105.758 77.1177 105.761 77.1233 105.766C77.136 105.784 77.1419 105.805 77.1397 105.826V105.914C77.1724 105.841 77.2128 105.771 77.2603 105.706C77.3036 105.646 77.3598 105.596 77.4247 105.561L77.5233 105.503C77.5285 105.498 77.5354 105.495 77.5425 105.495C77.5497 105.495 77.5566 105.498 77.5617 105.503C77.5749 105.521 77.5817 105.544 77.5809 105.566V105.815C77.5804 105.844 77.5739 105.872 77.5617 105.898C77.5548 105.919 77.5414 105.938 77.5233 105.952L77.3836 106.043Z" fill="#FAFAFA"/>
<path d="M79.4277 105.911C79.4302 105.908 79.4334 105.906 79.4369 105.904C79.4405 105.903 79.4443 105.902 79.4482 105.902C79.4521 105.902 79.4559 105.903 79.4595 105.904C79.463 105.906 79.4662 105.908 79.4688 105.911C79.481 105.93 79.4868 105.952 79.4852 105.974V106.248C79.4851 106.277 79.4795 106.304 79.4688 106.331C79.4593 106.351 79.4453 106.369 79.4277 106.383L78.4906 106.931C78.485 106.936 78.4777 106.939 78.47 106.939C78.4624 106.939 78.4551 106.936 78.4495 106.931C78.4372 106.913 78.4314 106.892 78.433 106.87V104.404C78.4332 104.376 78.4388 104.348 78.4495 104.322C78.4571 104.301 78.4716 104.282 78.4906 104.27L78.6632 104.169C78.6688 104.163 78.6761 104.161 78.6837 104.161C78.6914 104.161 78.6987 104.163 78.7043 104.169C78.7165 104.186 78.7224 104.208 78.7207 104.229V106.314L79.4277 105.911Z" fill="#FAFAFA"/>
<path d="M80.2688 103.884C80.3305 103.841 80.405 103.821 80.4798 103.826C80.544 103.831 80.6038 103.861 80.647 103.908C80.698 103.967 80.7355 104.036 80.7566 104.111C80.7858 104.208 80.8024 104.309 80.8059 104.41C80.8059 104.432 80.8059 104.462 80.8059 104.497V104.708C80.8059 104.741 80.8059 104.771 80.8059 104.796C80.8005 104.915 80.7839 105.034 80.7566 105.15C80.7312 105.263 80.6945 105.373 80.647 105.478C80.6035 105.577 80.5473 105.669 80.4798 105.752C80.422 105.828 80.3504 105.892 80.2688 105.941C80.2054 105.983 80.1306 106.003 80.0551 105.999C79.9918 105.994 79.933 105.964 79.8907 105.917C79.8382 105.86 79.8005 105.792 79.7811 105.717C79.7518 105.62 79.7353 105.519 79.7318 105.418C79.7318 105.396 79.7318 105.369 79.7318 105.333V105.122C79.7318 105.087 79.7318 105.056 79.7318 105.035C79.735 104.915 79.7506 104.795 79.7784 104.678C79.805 104.564 79.8427 104.453 79.8907 104.347C79.9342 104.249 79.9895 104.157 80.0551 104.073C80.1132 103.996 80.1858 103.932 80.2688 103.884V103.884ZM80.5264 104.591C80.5263 104.53 80.5161 104.47 80.4963 104.413C80.4861 104.378 80.4649 104.347 80.436 104.325C80.4126 104.309 80.3844 104.302 80.3565 104.306C80.3252 104.312 80.2954 104.324 80.2688 104.341C80.2366 104.359 80.2071 104.381 80.1812 104.407C80.1497 104.44 80.123 104.477 80.1017 104.517C80.0742 104.567 80.0539 104.62 80.0414 104.676C80.0234 104.746 80.0124 104.817 80.0085 104.889C80.0085 104.911 80.0085 104.936 80.0085 104.966V105.161C80.0085 105.191 80.0085 105.215 80.0085 105.232C80.0111 105.292 80.0222 105.352 80.0414 105.41C80.0514 105.445 80.0726 105.476 80.1017 105.498C80.1131 105.506 80.126 105.511 80.1397 105.514C80.1534 105.517 80.1675 105.517 80.1812 105.514C80.2122 105.509 80.242 105.498 80.2688 105.481C80.3006 105.463 80.33 105.441 80.3565 105.415C80.3871 105.382 80.4137 105.345 80.436 105.306C80.4623 105.255 80.4826 105.202 80.4963 105.147C80.5142 105.077 80.5243 105.005 80.5264 104.933C80.528 104.908 80.528 104.882 80.5264 104.856V104.665C80.528 104.64 80.528 104.615 80.5264 104.591Z" fill="#FAFAFA"/>
<path d="M81.6443 105.487C81.6794 105.465 81.7108 105.438 81.7375 105.407C81.7705 105.368 81.799 105.326 81.8224 105.281C81.8496 105.226 81.8708 105.168 81.8854 105.109C81.9023 105.041 81.9106 104.972 81.9101 104.903V104.763C81.9101 104.791 81.8827 104.824 81.8635 104.862C81.8447 104.902 81.8227 104.94 81.7977 104.977C81.7691 105.016 81.738 105.052 81.7046 105.087C81.6702 105.123 81.6305 105.153 81.5868 105.177C81.5586 105.196 81.5269 105.21 81.4934 105.216C81.46 105.223 81.4256 105.222 81.3922 105.215C81.3313 105.196 81.279 105.157 81.2443 105.103C81.1996 105.032 81.1672 104.954 81.1484 104.873C81.125 104.769 81.1122 104.664 81.11 104.558C81.11 104.522 81.11 104.478 81.11 104.426C81.11 104.374 81.11 104.33 81.11 104.292C81.1134 104.172 81.1263 104.052 81.1484 103.933C81.1709 103.816 81.2029 103.702 81.2443 103.591C81.283 103.494 81.3327 103.402 81.3922 103.317C81.4428 103.241 81.5091 103.177 81.5868 103.13C81.6232 103.108 81.663 103.093 81.7046 103.084C81.7354 103.078 81.767 103.078 81.7977 103.084C81.822 103.09 81.8445 103.103 81.8635 103.119C81.881 103.133 81.8967 103.148 81.9101 103.166V103.078C81.9102 103.05 81.9158 103.022 81.9265 102.996C81.9342 102.975 81.9486 102.956 81.9676 102.944L82.1293 102.848C82.1349 102.843 82.1422 102.84 82.1498 102.84C82.1575 102.84 82.1648 102.843 82.1704 102.848C82.1836 102.866 82.1904 102.888 82.1896 102.911V104.692C82.1969 104.959 82.1474 105.224 82.0443 105.47C81.9635 105.664 81.8234 105.827 81.6443 105.936C81.5832 105.974 81.5134 105.996 81.4415 105.999C81.3847 106.002 81.3282 105.988 81.2799 105.958C81.2336 105.923 81.196 105.878 81.1703 105.826C81.1436 105.764 81.1287 105.697 81.1264 105.629C81.1239 105.601 81.1296 105.572 81.1429 105.547C81.1496 105.524 81.1642 105.505 81.184 105.492L81.3292 105.41C81.3325 105.406 81.3366 105.403 81.341 105.402C81.3455 105.4 81.3504 105.399 81.3552 105.399C81.3601 105.399 81.365 105.4 81.3694 105.402C81.3739 105.403 81.3779 105.406 81.3813 105.41C81.3948 105.424 81.4067 105.44 81.4169 105.456C81.4336 105.486 81.4611 105.508 81.4936 105.517C81.5265 105.541 81.5758 105.514 81.6443 105.487ZM81.3868 104.158C81.3868 104.231 81.3868 104.302 81.3868 104.371C81.3789 104.481 81.41 104.59 81.4744 104.678C81.4988 104.699 81.5299 104.711 81.5621 104.711C81.5943 104.711 81.6254 104.699 81.6498 104.678C81.7293 104.627 81.7914 104.552 81.8279 104.465C81.8778 104.35 81.9057 104.228 81.9101 104.103C81.9101 104.062 81.9101 104.013 81.9101 103.955C81.9101 103.897 81.9101 103.848 81.9101 103.812C81.9157 103.714 81.8866 103.617 81.8279 103.538C81.8036 103.516 81.7718 103.504 81.7388 103.504C81.7058 103.504 81.6741 103.516 81.6498 103.538C81.5718 103.59 81.5108 103.663 81.4744 103.749C81.4181 103.878 81.3883 104.017 81.3868 104.158V104.158Z" fill="#FAFAFA"/>
<path d="M82.828 101.725C82.8334 101.72 82.8402 101.718 82.8472 101.718C82.8542 101.718 82.861 101.72 82.8664 101.725C82.8807 101.742 82.8876 101.765 82.8855 101.788V102.086C82.8857 102.115 82.8791 102.143 82.8664 102.168C82.8587 102.189 82.8454 102.207 82.828 102.221L82.6444 102.327C82.6418 102.33 82.6387 102.333 82.6351 102.334C82.6316 102.336 82.6278 102.337 82.6239 102.337C82.62 102.337 82.6161 102.336 82.6126 102.334C82.609 102.333 82.6059 102.33 82.6033 102.327C82.5962 102.319 82.5908 102.31 82.5875 102.299C82.5842 102.289 82.583 102.278 82.5841 102.267V101.968C82.584 101.94 82.5905 101.912 82.6033 101.886C82.611 101.865 82.6254 101.847 82.6444 101.834L82.828 101.725ZM82.8746 104.297C82.8747 104.325 82.8691 104.352 82.8581 104.377C82.8494 104.398 82.8352 104.417 82.817 104.432L82.6526 104.525C82.6503 104.528 82.6474 104.53 82.6441 104.532C82.6408 104.533 82.6371 104.534 82.6335 104.534C82.6298 104.534 82.6261 104.533 82.6228 104.532C82.6195 104.53 82.6166 104.528 82.6143 104.525C82.5999 104.507 82.5931 104.485 82.5951 104.462V102.689C82.5949 102.661 82.6015 102.632 82.6143 102.607C82.622 102.586 82.6352 102.567 82.6526 102.552L82.817 102.459C82.8226 102.454 82.83 102.451 82.8376 102.451C82.8452 102.451 82.8526 102.454 82.8581 102.459C82.8704 102.477 82.8762 102.498 82.8746 102.519V104.297Z" fill="#FAFAFA"/>
<path d="M84.3158 103.462C84.3157 103.49 84.3101 103.518 84.2994 103.544C84.2917 103.565 84.2773 103.584 84.2583 103.596L84.0939 103.692C84.0888 103.697 84.0819 103.7 84.0747 103.7C84.0675 103.7 84.0606 103.697 84.0555 103.692C84.0412 103.674 84.0343 103.652 84.0363 103.629V102.664C84.0448 102.551 84.024 102.436 83.9761 102.333C83.9377 102.264 83.8774 102.253 83.7925 102.303C83.7078 102.36 83.6449 102.444 83.6144 102.541C83.5686 102.67 83.5464 102.807 83.5486 102.944V103.911C83.5485 103.939 83.5429 103.967 83.5322 103.993C83.5255 104.016 83.5109 104.035 83.4911 104.048L83.3294 104.141C83.3268 104.144 83.3237 104.147 83.3201 104.148C83.3166 104.15 83.3128 104.151 83.3089 104.151C83.305 104.151 83.3011 104.15 83.2976 104.148C83.294 104.147 83.2909 104.144 83.2883 104.141C83.2756 104.124 83.2698 104.102 83.2719 104.081V102.308C83.2715 102.28 83.2771 102.252 83.2883 102.226C83.295 102.203 83.3096 102.184 83.3294 102.171L83.4911 102.078C83.4936 102.075 83.4968 102.073 83.5004 102.071C83.5039 102.07 83.5077 102.069 83.5116 102.069C83.5155 102.069 83.5194 102.07 83.5229 102.071C83.5264 102.073 83.5296 102.075 83.5322 102.078C83.5444 102.097 83.5502 102.119 83.5486 102.141V102.226C83.5847 102.143 83.6287 102.063 83.6801 101.988C83.7252 101.918 83.7863 101.861 83.8582 101.821C83.9206 101.775 83.9982 101.755 84.0747 101.766C84.105 101.773 84.1334 101.787 84.1579 101.807C84.1825 101.826 84.2027 101.85 84.2172 101.878C84.257 101.952 84.2829 102.033 84.2939 102.116C84.3085 102.225 84.3158 102.335 84.3158 102.445V103.462Z" fill="#FAFAFA"/>
<path d="M98.1364 95.4856L95.4758 97.02L95.8896 93.2881C95.569 93.1183 95.3662 92.7045 95.3662 92.1099C95.3662 91.0496 96.0129 89.8193 96.8075 89.3699C97.6021 88.9206 98.246 89.3973 98.246 90.4659C98.2295 91.0947 98.0501 91.7083 97.7254 92.2469L98.1364 95.4856Z" fill="#455A64"/>
<path d="M98.1391 95.4856L95.7964 94.1348L95.4758 97.0228L98.1391 95.4856Z" fill="#37474F"/>
<path d="M96.802 89.3617C96.2226 89.7532 95.7905 90.327 95.5745 90.992L97.7199 92.2305C98.0447 91.6919 98.224 91.0782 98.2405 90.4495C98.246 89.3891 97.6021 88.9041 96.802 89.3617Z" fill="#37474F"/>
<path d="M83.8692 76.9358C82.9568 76.4097 81.6991 76.4837 80.3072 77.2865C77.5288 78.8922 75.2766 82.7912 75.2766 85.9997C75.2766 87.6108 75.8465 88.7397 76.7616 89.2603L78.5344 90.2906C79.4441 90.8166 80.7018 90.7399 82.0964 89.9371C84.8748 88.3342 87.1271 84.4324 87.1271 81.2239C87.1271 79.621 86.5626 78.4839 85.6529 77.9715" fill="#E25353"/>
<path d="M82.0937 78.3195C79.3153 79.9251 77.063 83.8269 77.063 87.0327C77.063 90.2385 79.3153 91.5427 82.0937 89.9371C84.872 88.3315 87.127 84.4324 87.1243 81.2239C87.1216 78.0154 84.8693 76.7166 82.0937 78.3195Z" fill="#E25353"/>
<path d="M84.8693 85.4381V85.8052C84.2037 86.9933 83.249 87.9942 82.0937 88.7151C81.0114 89.3371 80.0332 89.4056 79.3153 89.0083V88.252C79.3521 87.4652 79.5767 86.6987 79.9705 86.0165C80.3642 85.3344 80.9156 84.7564 81.5786 84.3311L82.3101 83.9091C82.9568 83.5365 83.587 83.4872 84.0802 83.7749C84.5734 84.0626 84.8693 84.6681 84.8693 85.4381Z" fill="#E25353"/>
<path opacity="0.4" d="M83.8692 76.9358L85.6502 77.9715C84.7405 77.4427 83.4829 77.5167 82.0882 78.3195C80.2688 79.3717 78.6741 81.4075 77.7919 83.5885L76.0081 82.5556C76.8931 80.3636 78.4741 78.3387 80.3044 77.2865C81.7018 76.4865 82.9595 76.4097 83.8692 76.9358Z" fill="white"/>
<path opacity="0.2" d="M78.4714 90.2495L76.7644 89.2603C75.8492 88.7398 75.2793 87.6164 75.2793 85.9998L77.063 87.0355C77.074 88.5973 77.6001 89.7097 78.4714 90.2495Z" fill="black"/>
<path opacity="0.1" d="M76.0136 82.5555L77.7974 83.5885C77.3403 84.6804 77.0948 85.8492 77.074 87.0327V87.0327L75.2903 85.997C75.3122 84.8145 75.5577 83.6468 76.0136 82.5555Z" fill="black"/>
<path d="M81.458 83.7365C81.288 83.7383 81.1206 83.6948 80.973 83.6105C80.7951 83.4919 80.6526 83.3274 80.5605 83.1345C80.4683 82.9416 80.4301 82.7273 80.4497 82.5145C80.4729 82.0152 80.6154 81.5289 80.8652 81.096C81.115 80.6632 81.4648 80.2964 81.8854 80.0265V80.0265C82.0544 79.8917 82.2601 79.8109 82.4757 79.7948C82.6913 79.7788 82.9067 79.8281 83.0938 79.9365C83.2809 80.0448 83.4309 80.2071 83.5243 80.4021C83.6177 80.5971 83.65 80.8157 83.6171 81.0294C83.5934 81.5285 83.4508 82.0147 83.201 82.4475C82.9512 82.8803 82.6016 83.2471 82.1814 83.5173C81.9639 83.6531 81.7143 83.7287 81.458 83.7365V83.7365Z" fill="white"/>
<path d="M84.0802 83.7721C83.587 83.4844 82.9568 83.5338 82.3101 83.9064L81.5786 84.3284C80.9153 84.754 80.3636 85.3323 79.9699 86.015C79.5761 86.6977 79.3516 87.4648 79.3153 88.252V89.011C80.0332 89.4083 81.0114 89.3398 82.0937 88.7178C83.249 87.9969 84.2037 86.996 84.8693 85.808V85.4408C84.8693 84.6681 84.5843 84.0626 84.0802 83.7721Z" fill="white"/>
<path d="M140.409 131.174C140.409 131.174 140.774 127.974 142.365 125.489C143.957 123.003 146.144 121.455 148.185 121.294C150.227 121.132 151.876 123.012 149.692 124.308C147.508 125.604 143.629 126.913 141.842 131.736L140.409 131.174Z" fill="#E25353"/>
<path opacity="0.1" d="M140.409 131.174C140.409 131.174 140.774 127.974 142.365 125.489C143.957 123.003 146.144 121.455 148.185 121.294C150.227 121.132 151.876 123.012 149.692 124.308C147.508 125.604 143.629 126.913 141.842 131.736L140.409 131.174Z" fill="black"/>
<path d="M141.009 130.341H140.987C140.96 130.33 140.939 130.309 140.928 130.282C140.916 130.256 140.916 130.226 140.927 130.199C143.081 124.897 147.18 122.68 149.048 122.253C149.062 122.249 149.077 122.249 149.091 122.251C149.105 122.254 149.119 122.259 149.131 122.267C149.143 122.274 149.154 122.284 149.162 122.296C149.171 122.308 149.177 122.321 149.18 122.335C149.183 122.349 149.184 122.363 149.181 122.378C149.179 122.392 149.174 122.405 149.166 122.418C149.158 122.43 149.148 122.44 149.137 122.449C149.125 122.457 149.112 122.463 149.098 122.466C147.267 122.888 143.248 125.064 141.13 130.284C141.119 130.305 141.101 130.323 141.08 130.334C141.058 130.344 141.033 130.347 141.009 130.341V130.341Z" fill="white"/>
<path d="M151.909 130.404C151.725 130.821 151.27 131.04 150.848 131.21C150.427 131.38 149.966 131.563 149.736 131.958C149.276 132.752 150.032 133.876 149.539 134.646C149.423 134.801 149.276 134.931 149.109 135.028C148.941 135.125 148.756 135.187 148.563 135.21C148.248 135.268 147.928 135.268 147.61 135.295C147.458 135.293 147.306 135.281 147.155 135.259C146.712 135.161 146.249 135.21 145.837 135.399C145.204 135.755 145.015 136.553 144.626 137.169C144.388 137.532 144.075 137.84 143.708 138.07C143.34 138.301 142.927 138.45 142.497 138.506C142.223 138.542 141.675 138.594 141.401 138.432C141.38 138.422 141.359 138.409 141.341 138.394V138.394C141.3 138.35 141.25 138.293 141.228 138.262C141.227 138.256 141.227 138.25 141.228 138.243C141.116 137.83 141.3 137.402 141.308 136.975V136.898C141.289 136.402 141.275 135.909 141.264 135.416C141.24 134.502 141.231 133.589 141.237 132.676C141.237 132.084 141.171 131.437 141.423 130.881C141.697 130.267 142.387 130.253 142.648 129.653C142.752 129.412 142.807 129.157 142.908 128.914C143.065 128.559 143.316 128.254 143.634 128.033C143.951 127.811 144.324 127.681 144.711 127.656C145.914 127.596 146.991 128.568 148.193 128.478C148.503 128.453 148.807 128.357 149.114 128.303C150.087 128.119 151.213 128.396 151.761 129.22C151.881 129.39 151.958 129.587 151.983 129.794C152.009 130 151.984 130.21 151.909 130.404V130.404Z" fill="#E25353"/>
<path d="M141.108 136.344C141.082 136.337 141.06 136.319 141.047 136.296C141.033 136.272 141.03 136.245 141.037 136.218C142.697 129.988 149.257 129.094 150.799 129.199C150.813 129.199 150.826 129.203 150.838 129.209C150.851 129.214 150.861 129.223 150.87 129.233C150.879 129.243 150.886 129.255 150.89 129.268C150.895 129.281 150.896 129.295 150.895 129.308C150.892 129.335 150.879 129.359 150.859 129.377C150.839 129.394 150.812 129.403 150.785 129.401C149.281 129.294 142.859 130.174 141.234 136.273C141.226 136.299 141.209 136.321 141.185 136.334C141.162 136.348 141.134 136.351 141.108 136.344V136.344Z" fill="white"/>
<path d="M148.404 133.188C148.384 133.185 148.364 133.175 148.35 133.161C147.743 132.635 147.028 132.25 146.256 132.032C145.483 131.815 144.672 131.771 143.881 131.903C143.854 131.905 143.827 131.898 143.806 131.882C143.785 131.865 143.77 131.842 143.766 131.815C143.762 131.788 143.768 131.761 143.784 131.739C143.8 131.717 143.824 131.702 143.851 131.697C144.676 131.56 145.522 131.607 146.327 131.835C147.132 132.063 147.877 132.466 148.509 133.015C148.518 133.025 148.526 133.036 148.531 133.049C148.536 133.061 148.539 133.074 148.539 133.088C148.539 133.102 148.536 133.115 148.531 133.127C148.526 133.14 148.518 133.151 148.509 133.161C148.496 133.175 148.479 133.186 148.461 133.191C148.442 133.196 148.422 133.195 148.404 133.188Z" fill="white"/>
<path d="M125.331 55.92L126.202 56.2542V54.3362C126.202 52.8128 127.416 52.4484 128.734 53.2101C130.055 53.9718 131.123 55.8213 131.123 57.3448V57.6188C131.307 57.5626 131.501 57.5488 131.691 57.5782C131.88 57.6076 132.061 57.6796 132.219 57.7886C132.72 58.115 133.136 58.5548 133.435 59.0723C133.733 59.5898 133.905 60.1704 133.937 60.767V60.8931L135.154 61.5945C135.483 61.8093 135.757 62.0986 135.953 62.439C136.15 62.7793 136.264 63.1612 136.285 63.5536C136.285 64.277 135.778 64.5701 135.154 64.2085L125.331 58.5339C125.002 58.3196 124.728 58.0304 124.531 57.6899C124.335 57.3494 124.222 56.9673 124.202 56.5748C124.202 55.8542 124.703 55.561 125.331 55.92Z" fill="#E6E6E6"/>
<path d="M137.001 54.402L138.582 55.3144C138.573 55.2453 138.568 55.1758 138.568 55.1062V54.6486C138.568 53.8266 139.138 53.5033 139.845 53.9115C140.148 54.0975 140.408 54.3471 140.606 54.6431C140.721 53.6183 141.527 53.2375 142.502 53.7992C143.06 54.1619 143.524 54.6508 143.857 55.2263C144.19 55.8019 144.383 56.4478 144.42 57.1118V57.7968C144.428 58.0705 144.372 58.3423 144.259 58.5914L145.574 59.3477C145.779 59.4836 145.949 59.6657 146.071 59.8794C146.193 60.0931 146.263 60.3323 146.275 60.5779C146.275 61.03 145.958 61.2136 145.566 60.9889L137.001 56.0569C136.793 55.922 136.621 55.7399 136.498 55.5256C136.374 55.3113 136.304 55.0709 136.291 54.8239C136.291 54.3609 136.609 54.1773 137.001 54.402Z" fill="#E6E6E6"/>
<path d="M130.879 95.987C129.729 97.9324 128.622 99.623 127.843 100.434C126.367 101.119 122.898 102.177 121.541 102.352C121.303 102.382 121.062 102.326 120.862 102.193C120.328 101.842 119.914 101.785 119.352 101.59C118.911 101.44 118.725 101.229 118.643 101.316C118.558 101.416 118.515 101.545 118.524 101.675C118.532 101.806 118.592 101.928 118.689 102.015C118.9 102.215 119.133 102.39 119.385 102.536C118.783 102.685 118.156 102.696 117.549 102.568C116.374 102.259 115.82 102.823 116.615 104.1C116.889 104.555 118.018 105.287 120.287 105.089C121.096 105.046 121.902 104.954 122.7 104.815C124.876 104.349 127.295 103.9 128.783 103.445C129.337 103.228 129.832 102.884 130.23 102.442C132.732 99.5901 133.562 97.557 134.658 95.7102L134.565 92.6962C132.789 92.636 131.841 94.3594 130.879 95.987Z" fill="#FFA8A7"/>
<path d="M134.869 92.636C134.354 92.5636 133.829 92.6333 133.351 92.8376C132.873 93.0419 132.46 93.3729 132.156 93.795C130.94 95.3541 128.786 99.0969 128.786 99.0969C128.786 99.0969 129.49 100.974 131.392 101.289L134.447 97.1625C134.447 97.1625 135.894 94.2964 134.869 92.636Z" fill="#455A64"/>
<path d="M141.475 134.706H139.483V138.257H141.475V134.706Z" fill="#FFA8A7"/>
<path d="M134.57 134.517L132.581 134.588L132.48 130.829L134.57 130.758V134.517Z" fill="#FFA8A7"/>
<path d="M141.754 103.966C141.754 105.944 141.464 121.883 141.464 121.883C141.508 122.453 142.012 123.505 141.911 125.694C141.76 128.667 141.56 136.481 141.56 136.481C141.218 136.656 140.841 136.751 140.457 136.759C140.073 136.767 139.692 136.687 139.343 136.525C139.343 136.525 137.727 125.565 137.37 122.631C137.058 120.058 136.258 111.542 136.258 111.542L135.181 121.609C135.409 122.689 135.492 123.795 135.428 124.897C135.335 126.267 134.693 133.358 134.693 133.358C134.349 133.561 133.963 133.683 133.565 133.715C133.167 133.747 132.767 133.687 132.395 133.541C132.395 133.541 131.26 122.855 131.238 121.601C131.211 120.176 131.901 103.949 131.901 103.949L141.754 103.966Z" fill="#37474F"/>
<path d="M139.483 137.232V136.936C139.291 137.021 138.85 138.78 138.058 139.531C137.431 140.128 136.576 140.816 136.357 141.482C136.137 142.148 137.549 142.556 138.138 142.449C138.817 142.323 140.001 141.822 140.297 141.353C140.593 140.885 140.732 140.205 140.974 139.865C141.215 139.526 141.771 139.147 141.9 138.753C141.94 138.384 141.902 138.01 141.787 137.657C141.694 137.29 141.596 136.887 141.475 136.923V137.147C141.194 137.378 140.841 137.502 140.478 137.498C140.187 137.523 139.48 137.462 139.483 137.232Z" fill="#263238"/>
<path d="M132.559 133.947C132.455 133.947 132.37 134.103 132.143 134.361C131.804 134.716 131.409 135.013 130.973 135.237C130.227 135.627 128.781 136.224 128.12 136.533C127.709 136.725 127.728 137.24 128.153 137.534C128.578 137.827 129.6 138.038 130.827 137.753C131.496 137.597 132.367 136.953 132.921 136.988C133.474 137.024 134.502 137.013 134.91 136.714C135.318 136.416 135.154 135.796 135.039 135.262C134.913 134.676 134.765 133.763 134.57 133.804V134.01C134.332 134.388 133.096 134.542 132.57 134.265L132.559 133.947Z" fill="#263238"/>
<path d="M136.258 111.542C135.222 111.203 134.274 110.636 133.485 109.884C133.485 109.884 134.033 110.928 135.611 111.901L135.272 120.891L136.258 111.542Z" fill="#263238"/>
<path d="M140.642 92.9264C140.642 92.9264 142.286 93.3045 142.168 96.2747L141.826 101.001V108.098C140.363 109.758 133.88 109.638 131.647 107.966C131.647 107.966 131.899 99.5682 132.049 96.335C132.156 94.0389 132.685 92.8826 134.943 92.6305L137.718 92.7511L140.642 92.9264Z" fill="#E25353"/>
<path d="M138.549 86.7559C138.558 87.1535 138.489 87.5491 138.345 87.9198C138.2 88.2905 137.984 88.6291 137.709 88.9159C137.433 89.2027 137.104 89.4321 136.739 89.5909C136.374 89.7497 135.982 89.8347 135.584 89.8411C133.94 89.8411 132.975 88.4218 132.619 86.7559C131.962 83.7063 133.945 83.6679 135.584 83.6679C136.387 83.6845 137.15 84.019 137.706 84.5981C138.262 85.1772 138.565 85.9533 138.549 86.7559V86.7559Z" fill="#263238"/>
<path d="M140.061 88.0026C140.061 88.0026 139.606 90.2275 139.423 90.5947C139.307 90.8156 139.111 90.9835 138.875 91.0632L138.908 89.4987L140.061 88.0026Z" fill="#263238"/>
<path d="M139.488 84.816C139.488 84.816 139.815 84.7338 140.163 85.2763C140.458 85.7393 140.527 86.7805 140.061 88.0163L139.204 88.1204L139.488 84.816Z" fill="#263238"/>
<path d="M139.804 85.2681L140.856 85.2873C140.863 85.2193 140.856 85.1505 140.835 85.0853C140.815 85.0201 140.781 84.9599 140.736 84.9084C140.691 84.857 140.636 84.8154 140.574 84.7863C140.512 84.7571 140.445 84.7411 140.376 84.7393C140.232 84.7413 140.094 84.7965 139.989 84.8941C139.883 84.9917 139.817 85.1249 139.804 85.2681Z" fill="#263238"/>
<path d="M139.932 85.0187L140.711 84.2707C140.666 84.2179 140.61 84.1749 140.548 84.1445C140.486 84.114 140.418 84.0969 140.349 84.094C140.279 84.0912 140.21 84.1028 140.146 84.128C140.081 84.1532 140.022 84.1916 139.973 84.2406C139.87 84.3415 139.809 84.4775 139.801 84.6216C139.794 84.7658 139.84 84.9075 139.932 85.0187V85.0187Z" fill="#263238"/>
<path d="M138.946 88.1067C139.119 88.2136 139.362 87.8711 139.576 87.6382C139.79 87.4053 140.453 87.1916 140.798 87.9478C141.143 88.7041 140.554 89.4521 140.061 89.6987C139.176 90.1371 138.897 89.4987 138.897 89.4987L138.823 93.0223C137.579 94.9403 134.756 94.88 135.773 92.9291V91.8578C135.355 91.9273 134.93 91.9494 134.507 91.9235C133.817 91.8139 133.384 91.2468 133.173 90.4686C132.838 89.2192 132.71 88.2109 132.995 85.7531C133.307 83.0624 136.316 83.0323 137.927 84.1091C139.538 85.1859 138.946 88.1067 138.946 88.1067Z" fill="#FFA8A7"/>
<path d="M135.198 85.3339C135.916 85.2626 136.625 85.1147 137.346 85.0599C137.501 85.041 137.659 85.0484 137.812 85.0818C138.36 85.2325 138.294 85.8736 138.382 86.3203C138.532 87.0929 138.656 88.3999 138.946 88.4054C139.034 88.4054 139.362 87.8382 139.576 87.6355C139.694 87.4608 139.76 87.2568 139.768 87.0464C139.823 86.7285 139.85 86.4025 139.875 86.0792C139.897 85.8052 139.924 85.5312 139.924 85.2572C139.937 84.9475 139.912 84.6375 139.85 84.3338C139.781 84.0754 139.65 83.8381 139.467 83.6433L139.412 83.583C139.051 83.2054 138.612 82.9101 138.127 82.7172C137.428 82.4554 136.695 82.2958 135.951 82.2432C135.208 82.1905 134.468 82.0991 133.734 81.9692C133.692 81.9569 133.648 81.9569 133.606 81.9692C133.576 81.9856 133.551 82.0093 133.533 82.038C133.514 82.0668 133.504 82.0996 133.502 82.1335C133.472 82.3038 133.49 82.4791 133.556 82.6391C133.621 82.7992 133.731 82.9374 133.871 83.0377C133.376 83.0761 132.806 82.8185 132.329 82.687C132.29 82.6707 132.249 82.6622 132.207 82.6622C132.165 82.6622 132.124 82.6707 132.085 82.687C132.037 82.7205 132.003 82.7701 131.989 82.8268C131.954 82.9555 131.95 83.0905 131.975 83.2213C132.019 83.6179 132.166 83.9959 132.403 84.3173C132.772 84.7981 133.294 85.1392 133.882 85.2845C134.316 85.3681 134.759 85.3847 135.198 85.3339V85.3339Z" fill="#263238"/>
<path d="M135.776 91.8578C135.776 91.8578 137.316 91.5345 137.853 91.2358C138.173 91.0608 138.432 90.7935 138.598 90.4686C138.517 90.795 138.373 91.1022 138.173 91.3728C137.781 91.8989 135.776 92.2825 135.776 92.2825V91.8578Z" fill="#F28F8F"/>
<path d="M136.146 87.7039C136.143 87.7885 136.173 87.8708 136.231 87.9329C136.288 87.9951 136.368 88.0319 136.453 88.0355C136.52 88.041 136.587 88.0261 136.645 87.9928C136.704 87.9594 136.751 87.9092 136.781 87.8486C136.81 87.7881 136.82 87.72 136.811 87.6534C136.801 87.5868 136.771 87.5247 136.725 87.4752C136.68 87.4258 136.62 87.3914 136.554 87.3764C136.489 87.3614 136.42 87.3667 136.357 87.3914C136.295 87.4161 136.241 87.4592 136.203 87.5149C136.165 87.5707 136.145 87.6366 136.146 87.7039V87.7039Z" fill="#263238"/>
<path d="M136.639 86.375L137.299 86.7559C137.347 86.662 137.358 86.5534 137.33 86.4519C137.301 86.3503 137.236 86.2632 137.146 86.2079C137.102 86.1833 137.054 86.1681 137.004 86.1633C136.954 86.1585 136.903 86.1641 136.855 86.1798C136.808 86.1955 136.764 86.221 136.727 86.2546C136.689 86.2882 136.659 86.3292 136.639 86.375V86.375Z" fill="#263238"/>
<path d="M135.913 89.9261L135.209 90.2001C135.223 90.2484 135.247 90.2933 135.279 90.3319C135.311 90.3706 135.351 90.4022 135.396 90.4248C135.441 90.4474 135.49 90.4605 135.54 90.4634C135.591 90.4662 135.641 90.4586 135.688 90.4412C135.784 90.3999 135.86 90.3237 135.902 90.2281C135.944 90.1324 135.948 90.0244 135.913 89.9261V89.9261Z" fill="#F28F8F"/>
<path d="M133.312 86.6573L133.915 86.1751C133.888 86.133 133.853 86.097 133.811 86.0696C133.769 86.0422 133.722 86.0238 133.673 86.0158C133.623 86.0078 133.573 86.0103 133.524 86.0231C133.476 86.0359 133.431 86.0587 133.392 86.0901C133.311 86.1584 133.259 86.254 133.244 86.3586C133.229 86.4632 133.254 86.5695 133.312 86.6573V86.6573Z" fill="#263238"/>
<path d="M133.578 87.6135C133.583 87.6735 133.605 87.7307 133.642 87.7783C133.679 87.8259 133.729 87.8617 133.786 87.8814C133.842 87.9011 133.904 87.9038 133.962 87.8892C134.02 87.8746 134.073 87.8434 134.114 87.7992C134.155 87.7551 134.182 87.7 134.192 87.6408C134.202 87.5815 134.195 87.5205 134.171 87.4654C134.147 87.4102 134.107 87.3632 134.057 87.3302C134.007 87.2971 133.948 87.2794 133.888 87.2792C133.846 87.2806 133.804 87.2904 133.765 87.308C133.727 87.3256 133.692 87.3507 133.663 87.3818C133.635 87.4129 133.612 87.4494 133.598 87.4891C133.583 87.5289 133.576 87.5712 133.578 87.6135V87.6135Z" fill="#263238"/>
<path d="M135.23 87.356L135.195 89.3041L134.088 89.052L135.23 87.356Z" fill="#F28F8F"/>
<path d="M108.943 103.673L110.661 102.681L111.34 101.856L109.625 102.848L108.943 103.673Z" fill="#E25353"/>
<path opacity="0.4" d="M108.943 103.673L110.661 102.681L111.34 101.856L109.625 102.848L108.943 103.673Z" fill="black"/>
<path d="M113.615 106.369L115.333 105.377L116.766 104.108L115.05 105.097L113.615 106.369Z" fill="#E25353"/>
<path opacity="0.4" d="M113.615 106.369L115.333 105.377L116.766 104.108L115.05 105.097L113.615 106.369Z" fill="black"/>
<path d="M128.208 109.791C128.614 110.336 128.86 110.983 128.918 111.66C128.513 111.114 128.267 110.468 128.208 109.791V109.791ZM132.2 109.843C131.622 105.911 129.509 102.023 126.994 100.568C125.786 99.8695 124.668 99.8449 123.772 100.368L122.155 101.3L122.065 101.355C121.993 101.394 121.923 101.438 121.857 101.486C121.724 101.578 121.599 101.68 121.484 101.793L121.429 101.845C121.38 101.894 121.328 101.952 121.281 102.007C121.235 102.062 121.163 102.146 121.109 102.22C120.992 102.374 120.887 102.535 120.793 102.703C120.744 102.788 120.698 102.878 120.654 102.977L106.534 94.8279L104.819 95.8171V96.9131L104.964 96.9953L105.101 97.0747V97.2939L104.827 97.4556V98.0913L106.902 102.475L108.951 103.662L109.633 102.84L111.442 103.922L112.48 105.7L113.626 106.361L115.059 105.089L116.818 106.106L117.41 108.547L120.366 110.257C120.512 110.878 120.695 111.49 120.914 112.09C120.933 112.15 120.958 112.213 120.983 112.282C121.963 114.857 123.522 117.063 125.282 118.08C125.492 118.205 125.713 118.312 125.942 118.4C126.063 118.448 126.186 118.489 126.312 118.523C126.421 118.553 126.531 118.577 126.641 118.597C126.987 118.661 127.341 118.661 127.687 118.597L127.83 118.562C127.898 118.548 127.965 118.529 128.03 118.504L128.183 118.444C128.238 118.424 128.29 118.4 128.339 118.37C128.39 118.348 128.439 118.323 128.487 118.296L128.559 118.252C128.572 118.248 128.584 118.241 128.594 118.233C128.986 118.008 129.951 117.449 130.214 117.301C131.518 116.545 132.362 114.633 132.362 111.928C132.36 111.23 132.305 110.533 132.2 109.843V109.843Z" fill="#E25353"/>
<path d="M127.706 113.109C127.027 112.717 126.479 111.556 126.479 110.514C126.479 109.473 127.027 108.944 127.706 109.334C128.386 109.723 128.931 110.887 128.931 111.931C128.931 112.975 128.383 113.501 127.706 113.109ZM130.482 110.832C129.907 106.903 127.794 103.012 125.276 101.56C124.109 100.886 123.029 100.837 122.152 101.3L122.062 101.355C121.99 101.394 121.921 101.438 121.854 101.486C121.721 101.578 121.596 101.68 121.481 101.793L121.426 101.845C121.377 101.894 121.325 101.952 121.278 102.007C121.232 102.062 121.161 102.146 121.106 102.22C120.989 102.374 120.884 102.535 120.791 102.703C120.741 102.788 120.695 102.878 120.651 102.977C120.396 103.506 120.211 104.067 120.103 104.645L104.816 95.8171V96.9131L104.962 96.9953L105.099 97.0747V97.2939L104.825 97.4556V98.0913L106.899 102.475L108.948 103.662L109.631 102.84L111.439 103.922L112.478 105.7L113.623 106.361L115.056 105.089L116.815 106.106L117.407 108.547L120.366 110.257C120.512 110.878 120.695 111.49 120.914 112.09C120.933 112.15 120.958 112.213 120.983 112.282C121.963 114.857 123.522 117.063 125.282 118.08C125.492 118.205 125.713 118.312 125.942 118.4C126.063 118.448 126.186 118.489 126.312 118.523C126.421 118.553 126.531 118.577 126.641 118.597C126.987 118.661 127.341 118.661 127.687 118.597L127.83 118.562C127.898 118.548 127.965 118.529 128.03 118.504L128.183 118.444C128.238 118.424 128.29 118.4 128.339 118.37C128.39 118.348 128.439 118.323 128.487 118.296L128.559 118.252C128.572 118.248 128.584 118.241 128.594 118.233C129.844 117.444 130.646 115.559 130.646 112.92C130.642 112.221 130.587 111.523 130.482 110.832V110.832Z" fill="#E25353"/>
<path opacity="0.4" d="M128.931 111.928C128.931 112.972 128.383 113.501 127.706 113.109C127.03 112.717 126.479 111.558 126.479 110.515C126.479 109.471 127.027 108.942 127.706 109.334C127.902 109.453 128.073 109.609 128.208 109.794C128.267 110.47 128.512 111.117 128.918 111.663C128.928 111.751 128.932 111.84 128.931 111.928V111.928Z" fill="black"/>
<path opacity="0.4" d="M132.356 111.926C132.356 114.63 131.512 116.542 130.208 117.299C129.934 117.447 128.981 118.006 128.589 118.23C129.838 117.441 130.641 115.556 130.641 112.917C130.638 112.219 130.585 111.523 130.482 110.832C129.907 106.903 127.794 103.012 125.276 101.56C124.109 100.886 123.029 100.837 122.152 101.3L123.769 100.368C124.665 99.8449 125.783 99.8696 126.991 100.568C129.509 102.023 131.622 105.911 132.197 109.843C132.302 110.532 132.355 111.228 132.356 111.926V111.926Z" fill="white"/>
<path d="M130.641 112.912C130.641 115.551 129.838 117.436 128.589 118.225C128.981 118 129.945 117.441 130.208 117.293C131.512 116.537 132.356 114.624 132.356 111.92C132.356 111.821 132.356 111.72 132.356 111.619L130.641 112.611C130.638 112.717 130.641 112.816 130.641 112.912Z" fill="#E25353"/>
<path opacity="0.1" d="M130.641 112.912C130.641 115.551 129.838 117.436 128.589 118.225C128.981 118 129.945 117.441 130.208 117.293C131.512 116.537 132.356 114.624 132.356 111.92C132.356 111.821 132.356 111.72 132.356 111.619L130.641 112.611C130.638 112.717 130.641 112.816 130.641 112.912Z" fill="black"/>
<path opacity="0.15" d="M120.169 105.766V106.322L104.819 97.4611L105.101 97.2967V97.0665L120.169 105.766Z" fill="black"/>
<path opacity="0.15" d="M120.169 105.996V106.322L104.819 97.4611L105.101 97.2967V97.294L120.169 105.996Z" fill="black"/>
<path opacity="0.15" d="M126.843 117.296C126.262 117.281 125.694 117.112 125.199 116.806C122.698 115.362 120.662 111.065 120.662 107.229C120.662 104.991 121.339 103.319 122.52 102.637C123.342 102.16 124.314 102.221 125.336 102.81C127.835 104.254 129.871 108.564 129.871 112.4C129.871 114.635 129.194 116.31 128.013 116.989C127.657 117.193 127.254 117.298 126.843 117.296ZM123.706 102.596C123.341 102.594 122.982 102.688 122.665 102.87C121.588 103.492 120.944 105.122 120.944 107.226C120.944 110.975 122.917 115.172 125.345 116.564C126.273 117.112 127.153 117.162 127.885 116.74C128.961 116.118 129.605 114.49 129.605 112.386C129.605 108.635 127.632 104.44 125.208 103.045C124.754 102.77 124.236 102.618 123.706 102.607V102.596Z" fill="black"/>
<path opacity="0.4" d="M120.64 102.971C120.385 103.501 120.2 104.062 120.092 104.64L104.806 95.8116L106.521 94.8225L120.64 102.971Z" fill="white"/>
<path d="M140.508 103.829C141.308 102.314 142.223 98.9106 142.678 97.1926C143.324 94.754 142.278 93.2196 141.089 93.1566C140.346 93.2716 137.899 102.168 137.899 102.168C137.625 102.385 133.907 104.273 132.712 104.747C132.499 104.828 132.263 104.828 132.049 104.747C131.477 104.539 131.085 104.577 130.523 104.522C130.082 104.478 129.86 104.322 129.803 104.415C129.75 104.531 129.744 104.662 129.784 104.782C129.824 104.903 129.908 105.003 130.019 105.065C130.261 105.205 130.518 105.318 130.786 105.399C130.306 105.545 129.806 105.612 129.304 105.599C128.153 105.574 127.739 106.073 128.633 107.243C129.181 107.972 130.088 108.202 132.112 107.503C132.693 107.3 133.482 106.909 134.219 106.643C135.737 106.095 136.137 106.029 137.294 105.637C138.979 105.067 140.152 104.503 140.508 103.829Z" fill="#FFA8A7"/>
<path d="M140.642 92.9264C141.341 93.0223 142.012 93.1785 142.426 93.7484C142.839 94.3183 143.171 95.1184 142.765 97.2967C142.455 98.8286 142.039 100.337 141.522 101.812C141.522 101.812 139.894 102.508 138.165 100.744L139.354 96.1459C139.354 96.1459 139.546 93.1566 140.642 92.9264Z" fill="#455A64"/>
</svg>
