<svg width="396" height="307" viewBox="0 0 396 307" fill="none" xmlns="http://www.w3.org/2000/svg">
<path d="M394.573 50.758C392.868 52.5589 390.358 52.5589 389.532 52.5589C388.002 52.5589 386.11 52.3063 383.399 51.7394C381.27 51.2941 379.436 50.8501 377.819 50.4591C374.638 49.6888 372.34 49.132 370.176 49.132C368.956 49.132 366.73 49.6589 364.373 50.217C360.704 51.086 356.138 52.167 351.721 52.167C347.261 52.167 342.568 51.8214 339.61 51.5546C338.628 55.2254 336.291 61.2786 330.987 65.6115C323.775 71.5016 318.428 74.1292 318.203 74.2381C316.834 74.9038 315.187 74.5551 314.208 73.3907C313.229 72.2273 313.171 70.5493 314.067 69.3215C314.097 69.2796 317.701 64.2003 317.563 58.4918C317.508 56.2208 317.425 54.4415 317.341 53.0862C312.848 54.4062 305.2 57.357 301.255 62.9116C295.278 71.3248 292.826 84.2777 293.483 88.5269C294.166 92.9541 294.248 92.9541 296.356 92.9541C300.947 92.9541 304.805 93.1415 309.149 95.4993C312.993 97.5842 315.109 99.8653 315.338 100.119C316.199 101.073 316.429 102.439 315.926 103.621C315.423 104.804 314.279 105.589 312.992 105.635C311.75 105.681 307.992 105.993 305.577 106.867C304.294 107.332 303.189 107.875 302.121 108.4C300.412 109.241 298.797 110.035 296.913 110.257C296.301 110.329 295.672 110.364 295.077 110.353C294.382 111.961 293.2 113.878 291.213 115.398C289.692 116.563 288.144 117.281 286.778 117.914C285.101 118.692 283.776 119.307 282.759 120.564C280.093 123.859 279.198 127.433 279.19 127.468C278.841 128.896 277.588 129.93 276.116 129.996C276.065 129.999 276.014 130 275.963 130C274.552 130 273.285 129.113 272.825 127.771C272.618 127.168 270.869 121.645 273.196 113.559C274.028 110.669 275.317 108.167 276.563 105.747C278.59 101.81 280.341 98.4104 279.606 94.2446C276.153 74.6649 276.391 58.7449 280.314 46.9285C286.414 28.5511 301.18 18.3118 304.078 16.4464C305.516 15.5201 306.81 14.7054 307.901 14.0282C306.889 13.2249 305.604 12.3811 304.075 11.7335C300.596 10.2592 299.134 9.85621 298.729 9.7601C298.703 9.76098 298.678 9.76098 298.653 9.76098C297.209 9.76142 296.099 8.81089 295.676 7.40715C295.238 5.94961 296.053 4.38495 297.367 3.61121C297.616 3.46352 303.593 0 311.469 0C313.094 0 314.709 0.148575 316.268 0.441757C321.125 1.35569 324.558 2.72108 327.878 4.04106C331.119 5.33018 334.181 6.54788 338.752 7.50766C340.973 7.97411 343.018 8.33386 344.995 8.68216C351.799 9.87957 357.674 10.9139 366.459 15.3857C377.924 21.2229 384.371 27.6094 384.612 33.3676C384.663 34.5814 384.637 35.6659 384.532 36.6191C385.605 37.1539 386.909 37.8297 388.226 38.5766C393.588 41.6164 395.836 43.8931 395.986 46.4339C396.09 48.2018 395.615 49.6562 394.573 50.758Z" fill="url(#paint0_linear)"/>
<path d="M270.573 227.758C268.868 229.559 266.358 229.559 265.532 229.559C264.002 229.559 262.11 229.306 259.399 228.739C257.27 228.294 255.436 227.85 253.819 227.459C250.638 226.689 248.34 226.132 246.176 226.132C244.956 226.132 242.73 226.659 240.373 227.217C236.704 228.086 232.138 229.167 227.721 229.167C223.261 229.167 218.568 228.821 215.61 228.555C214.628 232.225 212.291 238.279 206.987 242.611C199.775 248.502 194.428 251.129 194.203 251.238C192.834 251.904 191.187 251.555 190.208 250.391C189.229 249.227 189.171 247.549 190.067 246.321C190.097 246.28 193.701 241.2 193.563 235.492C193.508 233.221 193.425 231.441 193.341 230.086C188.848 231.406 181.2 234.357 177.255 239.912C171.278 248.325 168.826 261.278 169.483 265.527C170.166 269.954 170.248 269.954 172.356 269.954C176.947 269.954 180.805 270.142 185.149 272.499C188.993 274.584 191.109 276.865 191.338 277.119C192.199 278.073 192.429 279.439 191.926 280.621C191.423 281.804 190.279 282.589 188.992 282.635C187.75 282.681 183.992 282.993 181.577 283.867C180.294 284.332 179.189 284.875 178.121 285.4C176.412 286.241 174.797 287.035 172.913 287.257C172.301 287.329 171.672 287.364 171.077 287.353C170.382 288.961 169.2 290.878 167.213 292.398C165.692 293.563 164.144 294.281 162.778 294.914C161.101 295.692 159.776 296.307 158.759 297.564C156.093 300.859 155.198 304.433 155.19 304.468C154.841 305.896 153.588 306.93 152.116 306.996C152.065 306.999 152.014 307 151.963 307C150.552 307 149.285 306.113 148.825 304.771C148.618 304.168 146.869 298.645 149.196 290.559C150.028 287.669 151.317 285.167 152.563 282.747C154.59 278.81 156.341 275.41 155.606 271.245C152.153 251.665 152.391 235.745 156.314 223.929C162.414 205.551 177.18 195.312 180.078 193.446C181.516 192.52 182.81 191.705 183.901 191.028C182.889 190.225 181.604 189.381 180.075 188.733C176.596 187.259 175.134 186.856 174.729 186.76C174.703 186.761 174.678 186.761 174.653 186.761C173.209 186.761 172.099 185.811 171.676 184.407C171.238 182.95 172.053 181.385 173.367 180.611C173.616 180.464 179.593 177 187.469 177C189.094 177 190.709 177.149 192.268 177.442C197.125 178.356 200.558 179.721 203.878 181.041C207.119 182.33 210.181 183.548 214.752 184.508C216.973 184.974 219.018 185.334 220.995 185.682C227.799 186.88 233.674 187.914 242.459 192.386C253.924 198.223 260.371 204.609 260.612 210.368C260.663 211.581 260.637 212.666 260.532 213.619C261.605 214.154 262.909 214.83 264.226 215.577C269.588 218.616 271.836 220.893 271.986 223.434C272.09 225.202 271.615 226.656 270.573 227.758Z" fill="url(#paint1_linear)"/>
<path d="M122.573 142.758C120.868 144.559 118.358 144.559 117.532 144.559C116.002 144.559 114.11 144.306 111.399 143.739C109.27 143.294 107.436 142.85 105.819 142.459C102.638 141.689 100.34 141.132 98.1755 141.132C96.9558 141.132 94.7303 141.659 92.3735 142.217C88.704 143.086 84.1376 144.167 79.7208 144.167C75.2614 144.167 70.5677 143.821 67.6102 143.555C66.628 147.225 64.2911 153.279 58.9866 157.611C51.7746 163.502 46.4276 166.129 46.2034 166.238C44.8337 166.904 43.1867 166.555 42.208 165.391C41.2292 164.227 41.1709 162.549 42.0669 161.321C42.0965 161.28 45.701 156.2 45.5625 150.492C45.5077 148.221 45.425 146.441 45.3405 145.086C40.8484 146.406 33.1999 149.357 29.2545 154.912C23.2778 163.325 20.8259 176.278 21.4826 180.527C22.1664 184.954 22.2482 184.954 24.3556 184.954C28.9471 184.954 32.8046 185.142 37.1494 187.499C40.9926 189.584 43.1093 191.865 43.3375 192.119C44.1995 193.073 44.429 194.439 43.9262 195.621C43.4233 196.804 42.2792 197.589 40.9917 197.635C39.7499 197.681 35.992 197.993 33.5768 198.867C32.2942 199.332 31.1894 199.875 30.1209 200.4C28.4116 201.241 26.7969 202.035 24.9133 202.257C24.3007 202.329 23.6718 202.364 23.0765 202.353C22.3822 203.961 21.2005 205.878 19.2129 207.398C17.6915 208.563 16.1436 209.281 14.7779 209.914C13.1008 210.692 11.7758 211.307 10.7586 212.564C8.09265 215.859 7.19795 219.433 7.18955 219.468C6.84105 220.896 5.58767 221.93 4.11582 221.996C4.06496 221.999 4.01366 222 3.9628 222C2.55153 222 1.28533 221.113 0.824936 219.771C0.617515 219.168 -1.13075 213.645 1.196 205.559C2.02789 202.669 3.31665 200.167 4.5625 197.747C6.58984 193.81 8.34076 190.41 7.60616 186.245C4.15297 166.665 4.39135 150.745 8.31422 138.929C14.4139 120.551 29.1802 110.312 32.0784 108.446C33.5162 107.52 34.8102 106.705 35.9008 106.028C34.8894 105.225 33.6037 104.381 32.0753 103.733C28.5964 102.259 27.1343 101.856 26.7292 101.76C26.7031 101.761 26.6779 101.761 26.6527 101.761C25.2087 101.761 24.0986 100.811 23.6762 99.4071C23.2375 97.9496 24.0526 96.3849 25.3666 95.6112C25.6165 95.4635 31.5928 92 39.469 92C41.0943 92 42.709 92.1486 44.268 92.4418C49.1254 93.3557 52.5583 94.7211 55.8779 96.0411C59.1192 97.3302 62.181 98.5479 66.7523 99.5077C68.9729 99.9741 71.0179 100.334 72.9953 100.682C79.7986 101.88 85.6741 102.914 94.4587 107.386C105.924 113.223 112.371 119.609 112.612 125.368C112.663 126.581 112.637 127.666 112.532 128.619C113.605 129.154 114.909 129.83 116.226 130.577C121.588 133.616 123.836 135.893 123.986 138.434C124.09 140.202 123.615 141.656 122.573 142.758Z" fill="url(#paint2_linear)"/>
<g filter="url(#filter0_b)">
<rect x="71" y="39" width="267" height="183" rx="10" fill="#C4C4C4" fill-opacity="0.2"/>
<rect x="71.5" y="39.5" width="266" height="182" rx="9.5" stroke="white" stroke-opacity="0.2"/>
</g>
<g filter="url(#filter1_d)">
<path d="M245.183 93.893C244.207 94.9182 242.769 94.9182 242.297 94.9182C241.421 94.9182 240.337 94.7744 238.785 94.4516C237.566 94.1982 236.516 93.9454 235.59 93.7228C233.769 93.2844 232.452 92.9675 231.213 92.9675C230.515 92.9675 229.241 93.2674 227.891 93.5851C225.79 94.0797 223.176 94.6951 220.647 94.6951C218.093 94.6951 215.406 94.4983 213.712 94.3465C213.15 96.436 211.812 99.8816 208.775 102.348C204.645 105.701 201.584 107.197 201.455 107.259C200.671 107.638 199.728 107.439 199.167 106.776C198.607 106.114 198.574 105.159 199.087 104.46C199.104 104.436 201.167 101.545 201.088 98.2953C201.057 97.0026 201.009 95.9898 200.961 95.2183C198.389 95.9697 194.01 97.6494 191.751 100.811C188.328 105.6 186.924 112.973 187.301 115.392C187.692 117.912 187.739 117.912 188.946 117.912C191.575 117.912 193.783 118.019 196.271 119.361C198.472 120.548 199.684 121.846 199.814 121.991C200.308 122.534 200.439 123.312 200.151 123.984C199.863 124.658 199.208 125.105 198.471 125.131C197.76 125.157 195.608 125.335 194.225 125.832C193.491 126.096 192.858 126.406 192.247 126.705C191.268 127.183 190.343 127.635 189.265 127.762C188.914 127.803 188.554 127.823 188.213 127.816C187.816 128.732 187.139 129.823 186.001 130.688C185.13 131.351 184.244 131.76 183.462 132.12C182.501 132.563 181.743 132.913 181.16 133.629C179.634 135.505 179.121 137.539 179.117 137.559C178.917 138.371 178.199 138.96 177.357 138.998C177.328 138.999 177.298 139 177.269 139C176.461 139 175.736 138.495 175.472 137.731C175.354 137.388 174.353 134.244 175.685 129.641C176.161 127.996 176.899 126.572 177.612 125.194C178.773 122.953 179.776 121.018 179.355 118.647C177.378 107.502 177.514 98.4394 179.761 91.7132C183.253 81.2522 191.708 75.4236 193.367 74.3618C194.191 73.8345 194.932 73.3708 195.556 72.9853C194.977 72.528 194.241 72.0477 193.366 71.679C191.374 70.8398 190.537 70.6105 190.305 70.5557C190.29 70.5562 190.275 70.5562 190.261 70.5562C189.434 70.5565 188.798 70.0154 188.557 69.2164C188.305 68.3867 188.772 67.496 189.524 67.0556C189.667 66.9715 193.089 65 197.599 65C198.53 65 199.454 65.0846 200.347 65.2515C203.128 65.7717 205.094 66.5489 206.995 67.3003C208.851 68.0341 210.604 68.7273 213.221 69.2736C214.493 69.5391 215.663 69.7439 216.796 69.9422C220.691 70.6238 224.055 71.2125 229.085 73.758C235.65 77.0807 239.341 80.7161 239.48 83.9939C239.509 84.6848 239.494 85.3021 239.434 85.8447C240.048 86.1491 240.795 86.5339 241.549 86.959C244.619 88.6893 245.906 89.9853 245.992 91.4316C246.051 92.4379 245.779 93.2658 245.183 93.893Z" fill="url(#paint3_linear)"/>
<path d="M245.545 94.2376L245.545 94.2377C244.421 95.419 242.798 95.4184 242.315 95.4182L242.297 95.4182C241.369 95.4182 240.247 95.2662 238.683 94.9412C237.465 94.6879 236.415 94.4354 235.494 94.2141L235.473 94.209L235.473 94.209C233.633 93.766 232.38 93.4675 231.213 93.4675C230.918 93.4675 230.467 93.533 229.894 93.6474C229.33 93.7601 228.683 93.9124 228.006 94.0718L227.891 93.5851L228.006 94.0718L227.985 94.0767C225.896 94.5684 223.235 95.1951 220.647 95.1951C218.271 95.1951 215.786 95.0264 214.081 94.8807C213.447 97.0405 212.053 100.33 209.09 102.736L209.09 102.736C204.924 106.119 201.828 107.634 201.673 107.709C200.684 108.186 199.494 107.937 198.786 107.099C198.077 106.262 198.034 105.053 198.681 104.167C198.684 104.163 198.691 104.154 198.701 104.139C198.715 104.118 198.736 104.087 198.764 104.046C198.818 103.964 198.896 103.843 198.989 103.687C199.175 103.375 199.423 102.927 199.667 102.382C200.159 101.286 200.625 99.8289 200.588 98.3075C200.565 97.3486 200.533 96.5453 200.498 95.8819C199.321 96.2551 197.882 96.7985 196.474 97.5517C194.812 98.4411 193.225 99.607 192.157 101.102L192.157 101.102C190.493 103.431 189.307 106.41 188.584 109.119C187.857 111.847 187.623 114.212 187.795 115.315L187.795 115.315C187.893 115.949 187.967 116.405 188.041 116.741C188.118 117.087 188.183 117.244 188.232 117.319C188.257 117.355 188.27 117.369 188.341 117.385C188.456 117.41 188.622 117.412 188.946 117.412C191.589 117.412 193.905 117.516 196.508 118.921C198.771 120.141 200.026 121.479 200.184 121.655L245.545 94.2376ZM245.545 94.2376C246.253 93.4934 246.557 92.5218 246.491 91.4021L246.491 91.402C246.439 90.5217 246.017 89.7278 245.244 88.9494C244.479 88.1792 243.342 87.3958 241.794 86.5234C241.152 86.1615 240.517 85.8291 239.963 85.55C239.998 85.0682 240.003 84.5418 239.979 83.9728C239.902 82.1538 238.847 80.3127 237.043 78.5365C235.233 76.754 232.621 74.987 229.311 73.3119L229.311 73.3119C224.214 70.7326 220.791 70.1337 216.884 69.45L216.882 69.4496L216.882 69.4496L216.864 69.4466C215.737 69.2492 214.579 69.0464 213.323 68.7842L213.323 68.7841C210.75 68.2471 209.031 67.5678 207.178 66.8353L207.178 66.8353L207.169 66.8316C205.268 66.0802 203.266 65.2889 200.439 64.76L200.439 64.76C199.515 64.5873 198.56 64.5 197.599 64.5C192.958 64.5 189.443 66.5235 189.271 66.6245L189.524 67.0556L189.272 66.6241C188.37 67.1519 187.744 68.259 188.078 69.3612C188.373 70.335 189.175 71.0498 190.246 71.0562C190.515 71.1253 191.345 71.3701 193.172 72.1398L193.172 72.1398C193.729 72.3745 194.228 72.6579 194.663 72.9513M245.545 94.2376L194.663 72.9513M194.663 72.9513C194.187 73.2483 193.662 73.5797 193.098 73.9408M194.663 72.9513L193.098 73.9406C193.098 73.9407 193.098 73.9407 193.098 73.9408M193.098 73.9408C191.409 75.0216 182.834 80.9288 179.286 91.5548C177.002 98.3938 176.879 107.551 178.863 118.734M193.098 73.9408L179.355 118.647L178.863 118.734M179.603 137.674L179.602 137.678C179.35 138.707 178.443 139.449 177.381 139.497C177.341 139.499 177.303 139.5 177.269 139.5C176.253 139.5 175.335 138.865 175 137.894H175C174.857 137.483 173.836 134.23 175.205 129.502L175.205 129.502C175.694 127.812 176.449 126.353 177.157 124.987L177.168 124.964L177.168 124.964C178.343 122.696 179.249 120.912 178.863 118.734M179.603 137.674L178.863 118.734M179.603 137.674L179.603 137.673C179.618 137.619 180.115 135.705 181.548 133.944C182.045 133.333 182.692 133.026 183.671 132.574M179.603 137.674L186.304 131.086M198.489 125.63C199.418 125.597 200.246 125.034 200.611 124.181M198.489 125.63C198.489 125.63 198.489 125.63 198.489 125.63L198.471 125.131L198.49 125.63C198.489 125.63 198.489 125.63 198.489 125.63ZM198.489 125.63C197.785 125.657 195.7 125.833 194.395 126.303M200.611 124.181L188.672 128.016C188.629 128.114 188.584 128.214 188.535 128.315M200.611 124.181C200.976 123.328 200.809 122.343 200.185 121.655L200.611 124.181ZM194.395 126.303L194.227 125.836L194.395 126.303C194.395 126.303 194.395 126.303 194.395 126.303ZM194.395 126.303C193.69 126.556 193.08 126.854 192.466 127.154L192.434 127.169C191.477 127.637 190.487 128.122 189.323 128.258M189.323 128.258L189.265 127.763L189.323 128.258C189.323 128.258 189.323 128.258 189.323 128.258ZM189.323 128.258C189.063 128.289 188.797 128.308 188.535 128.315M188.535 128.315C188.099 129.219 187.404 130.249 186.304 131.086M188.535 128.315L186.304 131.086M186.304 131.086C185.388 131.783 184.459 132.211 183.681 132.569L183.671 132.574M183.671 132.574L183.464 132.125L183.671 132.574L183.671 132.574Z" stroke="white" stroke-opacity="0.2"/>
</g>
<g filter="url(#filter2_d)">
<path d="M166.945 158H173.065C174.558 158 175.885 158.293 177.045 158.88C178.205 159.453 179.105 160.273 179.745 161.34C180.385 162.393 180.705 163.613 180.705 165C180.705 166.387 180.385 167.613 179.745 168.68C179.105 169.733 178.205 170.553 177.045 171.14C175.885 171.713 174.558 172 173.065 172H166.945V158ZM172.945 169.8C173.972 169.8 174.872 169.607 175.645 169.22C176.432 168.82 177.032 168.26 177.445 167.54C177.872 166.807 178.085 165.96 178.085 165C178.085 164.04 177.872 163.2 177.445 162.48C177.032 161.747 176.432 161.187 175.645 160.8C174.872 160.4 173.972 160.2 172.945 160.2H169.545V169.8H172.945ZM189.328 172.14C188.248 172.14 187.275 171.907 186.408 171.44C185.542 170.973 184.862 170.327 184.368 169.5C183.888 168.66 183.648 167.713 183.648 166.66C183.648 165.607 183.888 164.667 184.368 163.84C184.862 163.013 185.542 162.367 186.408 161.9C187.275 161.433 188.248 161.2 189.328 161.2C190.422 161.2 191.402 161.433 192.268 161.9C193.135 162.367 193.808 163.013 194.288 163.84C194.782 164.667 195.028 165.607 195.028 166.66C195.028 167.713 194.782 168.66 194.288 169.5C193.808 170.327 193.135 170.973 192.268 171.44C191.402 171.907 190.422 172.14 189.328 172.14ZM189.328 170C190.248 170 191.008 169.693 191.608 169.08C192.208 168.467 192.508 167.66 192.508 166.66C192.508 165.66 192.208 164.853 191.608 164.24C191.008 163.627 190.248 163.32 189.328 163.32C188.408 163.32 187.648 163.627 187.048 164.24C186.462 164.853 186.168 165.66 186.168 166.66C186.168 167.66 186.462 168.467 187.048 169.08C187.648 169.693 188.408 170 189.328 170ZM198.719 157.16H201.219V172H198.719V157.16ZM211.72 161.2C212.76 161.2 213.687 161.427 214.5 161.88C215.327 162.333 215.973 162.973 216.44 163.8C216.907 164.627 217.14 165.58 217.14 166.66C217.14 167.74 216.907 168.7 216.44 169.54C215.973 170.367 215.327 171.007 214.5 171.46C213.687 171.913 212.76 172.14 211.72 172.14C210.28 172.14 209.14 171.66 208.3 170.7V175.88H205.8V161.32H208.18V162.72C208.593 162.213 209.1 161.833 209.7 161.58C210.313 161.327 210.987 161.2 211.72 161.2ZM211.44 170C212.36 170 213.113 169.693 213.7 169.08C214.3 168.467 214.6 167.66 214.6 166.66C214.6 165.66 214.3 164.853 213.7 164.24C213.113 163.627 212.36 163.32 211.44 163.32C210.84 163.32 210.3 163.46 209.82 163.74C209.34 164.007 208.96 164.393 208.68 164.9C208.4 165.407 208.26 165.993 208.26 166.66C208.26 167.327 208.4 167.913 208.68 168.42C208.96 168.927 209.34 169.32 209.82 169.6C210.3 169.867 210.84 170 211.44 170ZM226.871 161.2C228.218 161.2 229.298 161.593 230.111 162.38C230.924 163.167 231.331 164.333 231.331 165.88V172H228.831V166.2C228.831 165.267 228.611 164.567 228.171 164.1C227.731 163.62 227.104 163.38 226.291 163.38C225.371 163.38 224.644 163.66 224.111 164.22C223.578 164.767 223.311 165.56 223.311 166.6V172H220.811V157.16H223.311V162.56C223.724 162.12 224.231 161.787 224.831 161.56C225.444 161.32 226.124 161.2 226.871 161.2ZM235.802 161.32H238.302V172H235.802V161.32ZM237.062 159.56C236.609 159.56 236.229 159.42 235.922 159.14C235.616 158.847 235.462 158.487 235.462 158.06C235.462 157.633 235.616 157.28 235.922 157C236.229 156.707 236.609 156.56 237.062 156.56C237.516 156.56 237.896 156.7 238.202 156.98C238.509 157.247 238.662 157.587 238.662 158C238.662 158.44 238.509 158.813 238.202 159.12C237.909 159.413 237.529 159.56 237.062 159.56ZM248.944 161.2C250.29 161.2 251.37 161.593 252.184 162.38C252.997 163.167 253.404 164.333 253.404 165.88V172H250.904V166.2C250.904 165.267 250.684 164.567 250.244 164.1C249.804 163.62 249.177 163.38 248.364 163.38C247.444 163.38 246.717 163.66 246.184 164.22C245.65 164.767 245.384 165.56 245.384 166.6V172H242.884V161.32H245.264V162.7C245.677 162.207 246.197 161.833 246.824 161.58C247.45 161.327 248.157 161.2 248.944 161.2ZM190.095 182V196H187.955L180.235 186.52V196H177.655V182H179.795L187.515 191.48V182H190.095ZM205.646 193.82V196H195.146V182H205.366V184.18H197.746V187.82H204.506V189.96H197.746V193.82H205.646ZM230.109 182L225.469 196H222.709L219.249 185.64L215.729 196H212.949L208.309 182H211.009L214.489 192.64L218.109 182H220.509L224.049 192.7L227.629 182H230.109ZM237.867 196.2C236.787 196.2 235.741 196.047 234.727 195.74C233.727 195.433 232.934 195.027 232.347 194.52L233.247 192.5C233.821 192.953 234.521 193.327 235.347 193.62C236.187 193.9 237.027 194.04 237.867 194.04C238.907 194.04 239.681 193.873 240.187 193.54C240.707 193.207 240.967 192.767 240.967 192.22C240.967 191.82 240.821 191.493 240.527 191.24C240.247 190.973 239.887 190.767 239.447 190.62C239.007 190.473 238.407 190.307 237.647 190.12C236.581 189.867 235.714 189.613 235.047 189.36C234.394 189.107 233.827 188.713 233.347 188.18C232.881 187.633 232.647 186.9 232.647 185.98C232.647 185.207 232.854 184.507 233.267 183.88C233.694 183.24 234.327 182.733 235.167 182.36C236.021 181.987 237.061 181.8 238.287 181.8C239.141 181.8 239.981 181.907 240.807 182.12C241.634 182.333 242.347 182.64 242.947 183.04L242.127 185.06C241.514 184.7 240.874 184.427 240.207 184.24C239.541 184.053 238.894 183.96 238.267 183.96C237.241 183.96 236.474 184.133 235.967 184.48C235.474 184.827 235.227 185.287 235.227 185.86C235.227 186.26 235.367 186.587 235.647 186.84C235.941 187.093 236.307 187.293 236.747 187.44C237.187 187.587 237.787 187.753 238.547 187.94C239.587 188.18 240.441 188.433 241.107 188.7C241.774 188.953 242.341 189.347 242.807 189.88C243.287 190.413 243.527 191.133 243.527 192.04C243.527 192.813 243.314 193.513 242.887 194.14C242.474 194.767 241.841 195.267 240.987 195.64C240.134 196.013 239.094 196.2 237.867 196.2Z" fill="white" fill-opacity="0.6"/>
<path d="M166.945 158V157H165.945V158H166.945ZM177.045 158.88L176.594 159.772L176.602 159.776L177.045 158.88ZM179.745 161.34L178.887 161.855L178.89 161.859L179.745 161.34ZM179.745 168.68L180.599 169.199L180.602 169.194L179.745 168.68ZM177.045 171.14L177.488 172.037L177.496 172.032L177.045 171.14ZM166.945 172H165.945V173H166.945V172ZM175.645 169.22L176.092 170.114L176.098 170.111L175.645 169.22ZM177.445 167.54L176.58 167.037L176.578 167.042L177.445 167.54ZM177.445 162.48L176.574 162.971L176.579 162.98L176.585 162.99L177.445 162.48ZM175.645 160.8L175.185 161.688L175.195 161.693L175.204 161.697L175.645 160.8ZM169.545 160.2V159.2H168.545V160.2H169.545ZM169.545 169.8H168.545V170.8H169.545V169.8ZM166.945 159H173.065V157H166.945V159ZM173.065 159C174.425 159 175.593 159.266 176.594 159.772L177.496 157.988C176.177 157.32 174.692 157 173.065 157V159ZM176.602 159.776C177.597 160.268 178.35 160.959 178.887 161.854L180.602 160.826C179.86 159.588 178.813 158.638 177.488 157.984L176.602 159.776ZM178.89 161.859C179.424 162.737 179.705 163.773 179.705 165H181.705C181.705 163.454 181.346 162.05 180.599 160.821L178.89 161.859ZM179.705 165C179.705 166.227 179.424 167.272 178.887 168.166L180.602 169.194C181.346 167.955 181.705 166.547 181.705 165H179.705ZM178.89 168.161C178.353 169.046 177.596 169.74 176.594 170.248L177.496 172.032C178.813 171.366 179.857 170.421 180.599 169.199L178.89 168.161ZM176.602 170.244C175.599 170.739 174.428 171 173.065 171V173C174.688 173 176.17 172.688 177.488 172.036L176.602 170.244ZM173.065 171H166.945V173H173.065V171ZM167.945 172V158H165.945V172H167.945ZM172.945 170.8C174.098 170.8 175.156 170.582 176.092 170.114L175.198 168.326C174.587 168.631 173.845 168.8 172.945 168.8V170.8ZM176.098 170.111C177.047 169.629 177.796 168.937 178.312 168.038L176.578 167.042C176.267 167.583 175.816 168.011 175.192 168.329L176.098 170.111ZM178.309 168.043C178.836 167.138 179.085 166.113 179.085 165H177.085C177.085 165.807 176.907 166.476 176.58 167.037L178.309 168.043ZM179.085 165C179.085 163.887 178.836 162.866 178.305 161.97L176.585 162.99C176.907 163.534 177.085 164.193 177.085 165H179.085ZM178.316 161.989C177.799 161.072 177.046 160.374 176.086 159.903L175.204 161.697C175.817 161.999 176.264 162.421 176.574 162.971L178.316 161.989ZM176.104 159.912C175.166 159.426 174.103 159.2 172.945 159.2V161.2C173.84 161.2 174.577 161.374 175.185 161.688L176.104 159.912ZM172.945 159.2H169.545V161.2H172.945V159.2ZM168.545 160.2V169.8H170.545V160.2H168.545ZM169.545 170.8H172.945V168.8H169.545V170.8ZM186.408 171.44L186.882 170.56L186.882 170.56L186.408 171.44ZM184.368 169.5L183.5 169.996L183.505 170.004L183.51 170.012L184.368 169.5ZM184.368 163.84L183.51 163.328L183.503 163.338L184.368 163.84ZM186.408 161.9L186.882 162.78L186.882 162.78L186.408 161.9ZM192.268 161.9L191.794 162.78L191.794 162.78L192.268 161.9ZM194.288 163.84L193.423 164.342L193.43 164.352L194.288 163.84ZM194.288 169.5L193.426 168.994L193.423 168.998L194.288 169.5ZM192.268 171.44L191.794 170.56L191.794 170.56L192.268 171.44ZM191.608 169.08L190.893 168.381L190.893 168.381L191.608 169.08ZM191.608 164.24L190.893 164.939L190.893 164.939L191.608 164.24ZM187.048 164.24L186.333 163.541L186.326 163.549L187.048 164.24ZM187.048 169.08L186.326 169.771L186.333 169.779L187.048 169.08ZM189.328 171.14C188.397 171.14 187.59 170.94 186.882 170.56L185.934 172.32C186.96 172.873 188.099 173.14 189.328 173.14V171.14ZM186.882 170.56C186.171 170.177 185.626 169.655 185.227 168.988L183.51 170.012C184.098 170.998 184.912 171.77 185.934 172.32L186.882 170.56ZM185.237 169.004C184.85 168.328 184.648 167.555 184.648 166.66H182.648C182.648 167.871 182.926 168.992 183.5 169.996L185.237 169.004ZM184.648 166.66C184.648 165.765 184.85 165.001 185.233 164.342L183.503 163.338C182.926 164.332 182.648 165.449 182.648 166.66H184.648ZM185.227 164.352C185.626 163.685 186.171 163.163 186.882 162.78L185.934 161.02C184.912 161.57 184.098 162.342 183.51 163.328L185.227 164.352ZM186.882 162.78C187.59 162.4 188.397 162.2 189.328 162.2V160.2C188.099 160.2 186.96 160.467 185.934 161.02L186.882 162.78ZM189.328 162.2C190.275 162.2 191.089 162.401 191.794 162.78L192.742 161.02C191.714 160.466 190.568 160.2 189.328 160.2V162.2ZM191.794 162.78C192.503 163.162 193.039 163.68 193.423 164.342L195.153 163.338C194.577 162.346 193.767 161.571 192.742 161.02L191.794 162.78ZM193.43 164.352C193.822 165.01 194.028 165.77 194.028 166.66H196.028C196.028 165.444 195.741 164.324 195.147 163.328L193.43 164.352ZM194.028 166.66C194.028 167.55 193.822 168.32 193.426 168.994L195.151 170.006C195.741 169 196.028 167.876 196.028 166.66H194.028ZM193.423 168.998C193.039 169.66 192.503 170.178 191.794 170.56L192.742 172.32C193.767 171.769 194.577 170.994 195.153 170.002L193.423 168.998ZM191.794 170.56C191.089 170.939 190.275 171.14 189.328 171.14V173.14C190.568 173.14 191.714 172.874 192.742 172.32L191.794 170.56ZM189.328 171C190.496 171 191.52 170.6 192.323 169.779L190.893 168.381C190.496 168.787 190.001 169 189.328 169V171ZM192.323 169.779C193.136 168.948 193.508 167.875 193.508 166.66H191.508C191.508 167.445 191.28 167.985 190.893 168.381L192.323 169.779ZM193.508 166.66C193.508 165.445 193.136 164.372 192.323 163.541L190.893 164.939C191.28 165.335 191.508 165.875 191.508 166.66H193.508ZM192.323 163.541C191.52 162.72 190.496 162.32 189.328 162.32V164.32C190.001 164.32 190.496 164.533 190.893 164.939L192.323 163.541ZM189.328 162.32C188.161 162.32 187.136 162.72 186.333 163.541L187.763 164.939C188.16 164.533 188.656 164.32 189.328 164.32V162.32ZM186.326 163.549C185.53 164.381 185.168 165.452 185.168 166.66H187.168C187.168 165.868 187.394 165.326 187.771 164.931L186.326 163.549ZM185.168 166.66C185.168 167.868 185.53 168.939 186.326 169.771L187.771 168.389C187.394 167.994 187.168 167.452 187.168 166.66H185.168ZM186.333 169.779C187.136 170.6 188.161 171 189.328 171V169C188.656 169 188.16 168.787 187.763 168.381L186.333 169.779ZM198.719 157.16V156.16H197.719V157.16H198.719ZM201.219 157.16H202.219V156.16H201.219V157.16ZM201.219 172V173H202.219V172H201.219ZM198.719 172H197.719V173H198.719V172ZM198.719 158.16H201.219V156.16H198.719V158.16ZM200.219 157.16V172H202.219V157.16H200.219ZM201.219 171H198.719V173H201.219V171ZM199.719 172V157.16H197.719V172H199.719ZM214.5 161.88L214.013 162.754L214.019 162.757L214.5 161.88ZM216.44 163.8L215.569 164.292L215.569 164.292L216.44 163.8ZM216.44 169.54L217.311 170.032L217.314 170.026L216.44 169.54ZM214.5 171.46L214.019 170.583L214.013 170.587L214.5 171.46ZM208.3 170.7L209.053 170.041L207.3 168.039V170.7H208.3ZM208.3 175.88V176.88H209.3V175.88H208.3ZM205.8 175.88H204.8V176.88H205.8V175.88ZM205.8 161.32V160.32H204.8V161.32H205.8ZM208.18 161.32H209.18V160.32H208.18V161.32ZM208.18 162.72H207.18V165.528L208.955 163.352L208.18 162.72ZM209.7 161.58L209.318 160.656L209.311 160.659L209.7 161.58ZM213.7 169.08L212.985 168.381L212.978 168.389L213.7 169.08ZM213.7 164.24L212.977 164.931L212.985 164.939L213.7 164.24ZM209.82 163.74L210.306 164.614L210.315 164.609L210.324 164.604L209.82 163.74ZM208.68 164.9L207.805 164.416L207.805 164.416L208.68 164.9ZM209.82 169.6L209.316 170.464L209.325 170.469L209.335 170.474L209.82 169.6ZM211.72 162.2C212.61 162.2 213.366 162.392 214.013 162.753L214.987 161.007C214.008 160.461 212.91 160.2 211.72 160.2V162.2ZM214.019 162.757C214.681 163.12 215.194 163.626 215.569 164.292L217.311 163.308C216.753 162.321 215.972 161.547 214.981 161.003L214.019 162.757ZM215.569 164.292C215.94 164.949 216.14 165.728 216.14 166.66H218.14C218.14 165.432 217.873 164.305 217.311 163.308L215.569 164.292ZM216.14 166.66C216.14 167.591 215.94 168.381 215.566 169.054L217.314 170.026C217.873 169.019 218.14 167.889 218.14 166.66H216.14ZM215.569 169.048C215.194 169.714 214.681 170.22 214.019 170.583L214.981 172.337C215.972 171.793 216.753 171.019 217.311 170.032L215.569 169.048ZM214.013 170.587C213.366 170.948 212.61 171.14 211.72 171.14V173.14C212.91 173.14 214.008 172.879 214.987 172.333L214.013 170.587ZM211.72 171.14C210.527 171.14 209.677 170.755 209.053 170.041L207.548 171.359C208.603 172.565 210.033 173.14 211.72 173.14V171.14ZM207.3 170.7V175.88H209.3V170.7H207.3ZM208.3 174.88H205.8V176.88H208.3V174.88ZM206.8 175.88V161.32H204.8V175.88H206.8ZM205.8 162.32H208.18V160.32H205.8V162.32ZM207.18 161.32V162.72H209.18V161.32H207.18ZM208.955 163.352C209.266 162.971 209.64 162.691 210.089 162.501L209.311 160.659C208.56 160.976 207.921 161.455 207.405 162.088L208.955 163.352ZM210.082 162.504C210.562 162.306 211.104 162.2 211.72 162.2V160.2C210.87 160.2 210.065 160.347 209.318 160.656L210.082 162.504ZM211.44 171C212.608 171 213.631 170.599 214.423 169.771L212.978 168.389C212.596 168.787 212.113 169 211.44 169V171ZM214.415 169.779C215.228 168.948 215.6 167.875 215.6 166.66H213.6C213.6 167.445 213.372 167.985 212.985 168.381L214.415 169.779ZM215.6 166.66C215.6 165.445 215.228 164.372 214.415 163.541L212.985 164.939C213.372 165.335 213.6 165.875 213.6 166.66H215.6ZM214.423 163.549C213.631 162.721 212.608 162.32 211.44 162.32V164.32C212.113 164.32 212.596 164.533 212.978 164.931L214.423 163.549ZM211.44 162.32C210.678 162.32 209.961 162.5 209.316 162.876L210.324 164.604C210.639 164.42 211.003 164.32 211.44 164.32V162.32ZM209.335 162.866C208.682 163.229 208.17 163.755 207.805 164.416L209.555 165.384C209.75 165.032 209.999 164.785 210.306 164.614L209.335 162.866ZM207.805 164.416C207.431 165.092 207.26 165.85 207.26 166.66H209.26C209.26 166.137 209.369 165.721 209.555 165.384L207.805 164.416ZM207.26 166.66C207.26 167.47 207.431 168.228 207.805 168.904L209.555 167.936C209.369 167.599 209.26 167.183 209.26 166.66H207.26ZM207.805 168.904C208.168 169.561 208.674 170.089 209.316 170.464L210.324 168.736C210.006 168.551 209.752 168.292 209.555 167.936L207.805 168.904ZM209.335 170.474C209.977 170.831 210.686 171 211.44 171V169C210.994 169 210.624 168.902 210.306 168.726L209.335 170.474ZM230.111 162.38L230.806 161.661L230.806 161.661L230.111 162.38ZM231.331 172V173H232.331V172H231.331ZM228.831 172H227.831V173H228.831V172ZM228.171 164.1L227.434 164.776L227.444 164.786L228.171 164.1ZM224.111 164.22L224.827 164.918L224.835 164.91L224.111 164.22ZM223.311 172V173H224.311V172H223.311ZM220.811 172H219.811V173H220.811V172ZM220.811 157.16V156.16H219.811V157.16H220.811ZM223.311 157.16H224.311V156.16H223.311V157.16ZM223.311 162.56H222.311V165.085L224.04 163.245L223.311 162.56ZM224.831 161.56L225.185 162.496L225.195 162.491L224.831 161.56ZM226.871 162.2C228.011 162.2 228.824 162.526 229.416 163.099L230.806 161.661C229.772 160.661 228.425 160.2 226.871 160.2V162.2ZM229.416 163.099C229.971 163.636 230.331 164.502 230.331 165.88H232.331C232.331 164.165 231.877 162.697 230.806 161.661L229.416 163.099ZM230.331 165.88V172H232.331V165.88H230.331ZM231.331 171H228.831V173H231.331V171ZM229.831 172V166.2H227.831V172H229.831ZM229.831 166.2C229.831 165.127 229.579 164.136 228.899 163.414L227.444 164.786C227.643 164.998 227.831 165.407 227.831 166.2H229.831ZM228.908 163.424C228.234 162.688 227.31 162.38 226.291 162.38V164.38C226.899 164.38 227.229 164.552 227.434 164.776L228.908 163.424ZM226.291 162.38C225.154 162.38 224.145 162.735 223.387 163.53L224.835 164.91C225.144 164.585 225.589 164.38 226.291 164.38V162.38ZM223.395 163.522C222.622 164.314 222.311 165.395 222.311 166.6H224.311C224.311 165.725 224.534 165.219 224.827 164.918L223.395 163.522ZM222.311 166.6V172H224.311V166.6H222.311ZM223.311 171H220.811V173H223.311V171ZM221.811 172V157.16H219.811V172H221.811ZM220.811 158.16H223.311V156.16H220.811V158.16ZM222.311 157.16V162.56H224.311V157.16H222.311ZM224.04 163.245C224.342 162.923 224.718 162.672 225.184 162.495L224.478 160.625C223.744 160.902 223.106 161.317 222.582 161.875L224.04 163.245ZM225.195 162.491C225.678 162.302 226.233 162.2 226.871 162.2V160.2C226.016 160.2 225.211 160.338 224.467 160.629L225.195 162.491ZM235.802 161.32V160.32H234.802V161.32H235.802ZM238.302 161.32H239.302V160.32H238.302V161.32ZM238.302 172V173H239.302V172H238.302ZM235.802 172H234.802V173H235.802V172ZM235.922 159.14L235.231 159.863L235.24 159.871L235.248 159.878L235.922 159.14ZM235.922 157L236.597 157.738L236.605 157.731L236.614 157.723L235.922 157ZM238.202 156.98L237.528 157.718L237.537 157.727L237.546 157.735L238.202 156.98ZM238.202 159.12L237.495 158.413L237.495 158.413L238.202 159.12ZM235.802 162.32H238.302V160.32H235.802V162.32ZM237.302 161.32V172H239.302V161.32H237.302ZM238.302 171H235.802V173H238.302V171ZM236.802 172V161.32H234.802V172H236.802ZM237.062 158.56C236.834 158.56 236.702 158.497 236.597 158.402L235.248 159.878C235.757 160.343 236.384 160.56 237.062 160.56V158.56ZM236.614 158.417C236.505 158.314 236.462 158.215 236.462 158.06H234.462C234.462 158.758 234.726 159.38 235.231 159.863L236.614 158.417ZM236.462 158.06C236.462 157.906 236.504 157.823 236.597 157.738L235.248 156.262C234.728 156.737 234.462 157.361 234.462 158.06H236.462ZM236.614 157.723C236.721 157.62 236.847 157.56 237.062 157.56V155.56C236.371 155.56 235.738 155.793 235.231 156.277L236.614 157.723ZM237.062 157.56C237.291 157.56 237.423 157.623 237.528 157.718L238.877 156.242C238.368 155.777 237.741 155.56 237.062 155.56V157.56ZM237.546 157.735C237.63 157.808 237.662 157.87 237.662 158H239.662C239.662 157.303 239.388 156.686 238.859 156.225L237.546 157.735ZM237.662 158C237.662 158.179 237.611 158.297 237.495 158.413L238.91 159.827C239.407 159.33 239.662 158.701 239.662 158H237.662ZM237.495 158.413C237.414 158.495 237.3 158.56 237.062 158.56V160.56C237.758 160.56 238.405 160.332 238.91 159.827L237.495 158.413ZM252.184 162.38L252.879 161.661L252.879 161.661L252.184 162.38ZM253.404 172V173H254.404V172H253.404ZM250.904 172H249.904V173H250.904V172ZM250.244 164.1L249.507 164.776L249.516 164.786L250.244 164.1ZM246.184 164.22L246.9 164.918L246.908 164.91L246.184 164.22ZM245.384 172V173H246.384V172H245.384ZM242.884 172H241.884V173H242.884V172ZM242.884 161.32V160.32H241.884V161.32H242.884ZM245.264 161.32H246.264V160.32H245.264V161.32ZM245.264 162.7H244.264V165.451L246.03 163.342L245.264 162.7ZM246.824 161.58L247.199 162.507L247.199 162.507L246.824 161.58ZM248.944 162.2C250.084 162.2 250.896 162.526 251.489 163.099L252.879 161.661C251.844 160.661 250.497 160.2 248.944 160.2V162.2ZM251.489 163.099C252.044 163.636 252.404 164.502 252.404 165.88H254.404C254.404 164.165 253.95 162.697 252.879 161.661L251.489 163.099ZM252.404 165.88V172H254.404V165.88H252.404ZM253.404 171H250.904V173H253.404V171ZM251.904 172V166.2H249.904V172H251.904ZM251.904 166.2C251.904 165.127 251.652 164.136 250.971 163.414L249.516 164.786C249.716 164.998 249.904 165.407 249.904 166.2H251.904ZM250.981 163.424C250.306 162.688 249.383 162.38 248.364 162.38V164.38C248.972 164.38 249.301 164.552 249.507 164.776L250.981 163.424ZM248.364 162.38C247.226 162.38 246.217 162.735 245.46 163.53L246.908 164.91C247.217 164.585 247.661 164.38 248.364 164.38V162.38ZM245.468 163.522C244.695 164.314 244.384 165.395 244.384 166.6H246.384C246.384 165.725 246.606 165.219 246.9 164.918L245.468 163.522ZM244.384 166.6V172H246.384V166.6H244.384ZM245.384 171H242.884V173H245.384V171ZM243.884 172V161.32H241.884V172H243.884ZM242.884 162.32H245.264V160.32H242.884V162.32ZM244.264 161.32V162.7H246.264V161.32H244.264ZM246.03 163.342C246.333 162.981 246.716 162.702 247.199 162.507L246.449 160.653C245.678 160.964 245.021 161.432 244.497 162.058L246.03 163.342ZM247.199 162.507C247.688 162.309 248.265 162.2 248.944 162.2V160.2C248.049 160.2 247.213 160.344 246.449 160.653L247.199 162.507ZM190.095 182H191.095V181H190.095V182ZM190.095 196V197H191.095V196H190.095ZM187.955 196L187.179 196.631L187.479 197H187.955V196ZM180.235 186.52L181.01 185.889L179.235 183.708V186.52H180.235ZM180.235 196V197H181.235V196H180.235ZM177.655 196H176.655V197H177.655V196ZM177.655 182V181H176.655V182H177.655ZM179.795 182L180.57 181.369L180.27 181H179.795V182ZM187.515 191.48L186.739 192.111L188.515 194.292V191.48H187.515ZM187.515 182V181H186.515V182H187.515ZM189.095 182V196H191.095V182H189.095ZM190.095 195H187.955V197H190.095V195ZM188.73 195.369L181.01 185.889L179.459 187.151L187.179 196.631L188.73 195.369ZM179.235 186.52V196H181.235V186.52H179.235ZM180.235 195H177.655V197H180.235V195ZM178.655 196V182H176.655V196H178.655ZM177.655 183H179.795V181H177.655V183ZM179.019 182.631L186.739 192.111L188.29 190.849L180.57 181.369L179.019 182.631ZM188.515 191.48V182H186.515V191.48H188.515ZM187.515 183H190.095V181H187.515V183ZM205.646 193.82H206.646V192.82H205.646V193.82ZM205.646 196V197H206.646V196H205.646ZM195.146 196H194.146V197H195.146V196ZM195.146 182V181H194.146V182H195.146ZM205.366 182H206.366V181H205.366V182ZM205.366 184.18V185.18H206.366V184.18H205.366ZM197.746 184.18V183.18H196.746V184.18H197.746ZM197.746 187.82H196.746V188.82H197.746V187.82ZM204.506 187.82H205.506V186.82H204.506V187.82ZM204.506 189.96V190.96H205.506V189.96H204.506ZM197.746 189.96V188.96H196.746V189.96H197.746ZM197.746 193.82H196.746V194.82H197.746V193.82ZM204.646 193.82V196H206.646V193.82H204.646ZM205.646 195H195.146V197H205.646V195ZM196.146 196V182H194.146V196H196.146ZM195.146 183H205.366V181H195.146V183ZM204.366 182V184.18H206.366V182H204.366ZM205.366 183.18H197.746V185.18H205.366V183.18ZM196.746 184.18V187.82H198.746V184.18H196.746ZM197.746 188.82H204.506V186.82H197.746V188.82ZM203.506 187.82V189.96H205.506V187.82H203.506ZM204.506 188.96H197.746V190.96H204.506V188.96ZM196.746 189.96V193.82H198.746V189.96H196.746ZM197.746 194.82H205.646V192.82H197.746V194.82ZM230.109 182L231.058 182.315L231.494 181H230.109V182ZM225.469 196V197H226.191L226.418 196.315L225.469 196ZM222.709 196L221.761 196.317L221.989 197H222.709V196ZM219.249 185.64L220.198 185.323L219.257 182.508L218.302 185.318L219.249 185.64ZM215.729 196V197H216.446L216.676 196.322L215.729 196ZM212.949 196L212 196.315L212.227 197H212.949V196ZM208.309 182V181H206.924L207.36 182.315L208.309 182ZM211.009 182L211.96 181.689L211.734 181H211.009V182ZM214.489 192.64L213.539 192.951L214.47 195.8L215.436 192.962L214.489 192.64ZM218.109 182V181H217.393L217.162 181.678L218.109 182ZM220.509 182L221.459 181.686L221.232 181H220.509V182ZM224.049 192.7L223.1 193.014L224.044 195.868L224.997 193.017L224.049 192.7ZM227.629 182V181H226.909L226.681 181.683L227.629 182ZM229.16 181.685L224.52 195.685L226.418 196.315L231.058 182.315L229.16 181.685ZM225.469 195H222.709V197H225.469V195ZM223.658 195.683L220.198 185.323L218.301 185.957L221.761 196.317L223.658 195.683ZM218.302 185.318L214.782 195.678L216.676 196.322L220.196 185.962L218.302 185.318ZM215.729 195H212.949V197H215.729V195ZM213.898 195.685L209.258 181.685L207.36 182.315L212 196.315L213.898 195.685ZM208.309 183H211.009V181H208.309V183ZM210.059 182.311L213.539 192.951L215.44 192.329L211.96 181.689L210.059 182.311ZM215.436 192.962L219.056 182.322L217.162 181.678L213.542 192.318L215.436 192.962ZM218.109 183H220.509V181H218.109V183ZM219.56 182.314L223.1 193.014L224.999 192.386L221.459 181.686L219.56 182.314ZM224.997 193.017L228.577 182.317L226.681 181.683L223.101 192.383L224.997 193.017ZM227.629 183H230.109V181H227.629V183ZM234.727 195.74L234.434 196.696L234.438 196.697L234.727 195.74ZM232.347 194.52L231.434 194.113L231.132 194.791L231.694 195.277L232.347 194.52ZM233.247 192.5L233.867 191.716L232.858 190.917L232.334 192.093L233.247 192.5ZM235.347 193.62L235.013 194.562L235.022 194.566L235.031 194.569L235.347 193.62ZM240.187 193.54L239.648 192.698L239.638 192.705L240.187 193.54ZM240.527 191.24L239.838 191.964L239.855 191.981L239.874 191.997L240.527 191.24ZM239.447 190.62L239.763 189.671L239.763 189.671L239.447 190.62ZM237.647 190.12L237.886 189.149L237.878 189.147L237.647 190.12ZM235.047 189.36L234.686 190.292L234.692 190.295L235.047 189.36ZM233.347 188.18L232.587 188.829L232.595 188.839L232.604 188.849L233.347 188.18ZM233.267 183.88L232.435 183.325L232.432 183.329L233.267 183.88ZM235.167 182.36L234.766 181.444L234.761 181.446L235.167 182.36ZM240.807 182.12L240.557 183.088L240.557 183.088L240.807 182.12ZM242.947 183.04L243.874 183.416L244.181 182.66L243.502 182.208L242.947 183.04ZM242.127 185.06L241.621 185.922L242.619 186.508L243.054 185.436L242.127 185.06ZM240.207 184.24L239.938 185.203L239.938 185.203L240.207 184.24ZM235.967 184.48L235.403 183.655L235.392 183.662L235.967 184.48ZM235.647 186.84L234.976 187.582L234.985 187.589L234.994 187.597L235.647 186.84ZM236.747 187.44L237.063 186.491L237.063 186.491L236.747 187.44ZM238.547 187.94L238.309 188.911L238.322 188.914L238.547 187.94ZM241.107 188.7L240.736 189.628L240.744 189.632L240.752 189.635L241.107 188.7ZM242.807 189.88L242.055 190.539L242.064 190.549L242.807 189.88ZM242.887 194.14L242.061 193.577L242.057 193.583L242.052 193.589L242.887 194.14ZM240.987 195.64L240.586 194.724L240.586 194.724L240.987 195.64ZM237.867 195.2C236.883 195.2 235.934 195.061 235.017 194.783L234.438 196.697C235.547 197.033 236.691 197.2 237.867 197.2V195.2ZM235.02 194.784C234.109 194.505 233.453 194.153 233.001 193.763L231.694 195.277C232.415 195.9 233.345 196.362 234.434 196.696L235.02 194.784ZM233.261 194.927L234.161 192.907L232.334 192.093L231.434 194.113L233.261 194.927ZM232.627 193.284C233.302 193.818 234.103 194.24 235.013 194.562L235.682 192.678C234.938 192.414 234.34 192.089 233.867 191.716L232.627 193.284ZM235.031 194.569C235.967 194.881 236.914 195.04 237.867 195.04V193.04C237.14 193.04 236.407 192.919 235.663 192.671L235.031 194.569ZM237.867 195.04C238.979 195.04 239.988 194.868 240.737 194.375L239.638 192.705C239.374 192.878 238.836 193.04 237.867 193.04V195.04ZM240.727 194.382C241.49 193.893 241.967 193.156 241.967 192.22H239.967C239.967 192.377 239.925 192.521 239.648 192.698L240.727 194.382ZM241.967 192.22C241.967 191.54 241.702 190.933 241.181 190.483L239.874 191.997C239.939 192.053 239.967 192.1 239.967 192.22H241.967ZM241.217 190.516C240.811 190.13 240.316 189.855 239.763 189.671L239.131 191.569C239.459 191.678 239.683 191.817 239.838 191.964L241.217 190.516ZM239.763 189.671C239.286 189.512 238.657 189.338 237.886 189.149L237.409 191.091C238.158 191.275 238.728 191.434 239.131 191.569L239.763 189.671ZM237.878 189.147C236.834 188.899 236.013 188.657 235.402 188.425L234.692 190.295C235.415 190.569 236.327 190.834 237.416 191.093L237.878 189.147ZM235.409 188.428C234.905 188.232 234.468 187.931 234.091 187.511L232.604 188.849C233.186 189.496 233.883 189.981 234.686 190.292L235.409 188.428ZM234.108 187.531C233.835 187.211 233.647 186.73 233.647 185.98H231.647C231.647 187.07 231.926 188.056 232.587 188.829L234.108 187.531ZM233.647 185.98C233.647 185.396 233.8 184.889 234.102 184.431L232.432 183.329C231.908 184.125 231.647 185.017 231.647 185.98H233.647ZM234.099 184.435C234.402 183.981 234.872 183.585 235.573 183.274L234.761 181.446C233.782 181.881 232.986 182.499 232.435 183.325L234.099 184.435ZM235.568 183.276C236.262 182.973 237.157 182.8 238.287 182.8V180.8C236.964 180.8 235.779 181.001 234.766 181.444L235.568 183.276ZM238.287 182.8C239.056 182.8 239.812 182.896 240.557 183.088L241.057 181.152C240.149 180.917 239.225 180.8 238.287 180.8V182.8ZM240.557 183.088C241.295 183.279 241.901 183.544 242.393 183.872L243.502 182.208C242.793 181.736 241.973 181.388 241.057 181.152L240.557 183.088ZM242.021 182.664L241.201 184.684L243.054 185.436L243.874 183.416L242.021 182.664ZM242.633 184.198C241.948 183.795 241.229 183.488 240.477 183.277L239.938 185.203C240.519 185.366 241.08 185.605 241.621 185.922L242.633 184.198ZM240.477 183.277C239.732 183.068 238.994 182.96 238.267 182.96V184.96C238.794 184.96 239.35 185.038 239.938 185.203L240.477 183.277ZM238.267 182.96C237.161 182.96 236.154 183.141 235.403 183.655L236.532 185.305C236.794 185.126 237.32 184.96 238.267 184.96V182.96ZM235.392 183.662C234.649 184.184 234.227 184.942 234.227 185.86H236.227C236.227 185.632 236.299 185.469 236.542 185.298L235.392 183.662ZM234.227 185.86C234.227 186.524 234.473 187.126 234.976 187.582L236.318 186.098C236.261 186.047 236.227 185.996 236.227 185.86H234.227ZM234.994 187.597C235.403 187.951 235.891 188.209 236.431 188.389L237.063 186.491C236.724 186.378 236.478 186.236 236.301 186.083L234.994 187.597ZM236.431 188.389C236.908 188.548 237.538 188.722 238.309 188.911L238.786 186.969C238.037 186.785 237.466 186.626 237.063 186.491L236.431 188.389ZM238.322 188.914C239.334 189.148 240.134 189.388 240.736 189.628L241.479 187.772C240.748 187.479 239.841 187.212 238.772 186.966L238.322 188.914ZM240.752 189.635C241.267 189.83 241.697 190.129 242.055 190.539L243.56 189.221C242.985 188.564 242.281 188.076 241.462 187.765L240.752 189.635ZM242.064 190.549C242.339 190.854 242.527 191.313 242.527 192.04H244.527C244.527 190.954 244.236 189.973 243.551 189.211L242.064 190.549ZM242.527 192.04C242.527 192.617 242.372 193.12 242.061 193.577L243.714 194.703C244.256 193.907 244.527 193.01 244.527 192.04H242.527ZM242.052 193.589C241.768 194.02 241.306 194.409 240.586 194.724L241.388 196.556C242.376 196.124 243.179 195.513 243.722 194.691L242.052 193.589ZM240.586 194.724C239.893 195.027 238.998 195.2 237.867 195.2V197.2C239.19 197.2 240.375 196.999 241.388 196.556L240.586 194.724Z" fill="white" fill-opacity="0.2"/>
</g>
<defs>
<filter id="filter0_b" x="61" y="29" width="287" height="203" filterUnits="userSpaceOnUse" color-interpolation-filters="sRGB">
<feFlood flood-opacity="0" result="BackgroundImageFix"/>
<feGaussianBlur in="BackgroundImage" stdDeviation="5"/>
<feComposite in2="SourceAlpha" operator="in" result="effect1_backgroundBlur"/>
<feBlend mode="normal" in="SourceGraphic" in2="effect1_backgroundBlur" result="shape"/>
</filter>
<filter id="filter1_d" x="170" y="64" width="81" height="84" filterUnits="userSpaceOnUse" color-interpolation-filters="sRGB">
<feFlood flood-opacity="0" result="BackgroundImageFix"/>
<feColorMatrix in="SourceAlpha" type="matrix" values="0 0 0 0 0 0 0 0 0 0 0 0 0 0 0 0 0 0 127 0"/>
<feOffset dy="4"/>
<feGaussianBlur stdDeviation="2"/>
<feColorMatrix type="matrix" values="0 0 0 0 0 0 0 0 0 0 0 0 0 0 0 0 0 0 0.25 0"/>
<feBlend mode="normal" in2="BackgroundImageFix" result="effect1_dropShadow"/>
<feBlend mode="normal" in="SourceGraphic" in2="effect1_dropShadow" result="shape"/>
</filter>
<filter id="filter2_d" x="162.945" y="156.56" width="94.4589" height="47.64" filterUnits="userSpaceOnUse" color-interpolation-filters="sRGB">
<feFlood flood-opacity="0" result="BackgroundImageFix"/>
<feColorMatrix in="SourceAlpha" type="matrix" values="0 0 0 0 0 0 0 0 0 0 0 0 0 0 0 0 0 0 127 0"/>
<feOffset dy="4"/>
<feGaussianBlur stdDeviation="2"/>
<feColorMatrix type="matrix" values="0 0 0 0 0 0 0 0 0 0 0 0 0 0 0 0 0 0 0.25 0"/>
<feBlend mode="normal" in2="BackgroundImageFix" result="effect1_dropShadow"/>
<feBlend mode="normal" in="SourceGraphic" in2="effect1_dropShadow" result="shape"/>
</filter>
<linearGradient id="paint0_linear" x1="345" y1="-4" x2="277.5" y2="130" gradientUnits="userSpaceOnUse">
<stop stop-color="white" stop-opacity="0.4"/>
<stop offset="1" stop-color="white" stop-opacity="0"/>
</linearGradient>
<linearGradient id="paint1_linear" x1="221" y1="173" x2="153.5" y2="307" gradientUnits="userSpaceOnUse">
<stop stop-color="white" stop-opacity="0.4"/>
<stop offset="1" stop-color="white" stop-opacity="0"/>
</linearGradient>
<linearGradient id="paint2_linear" x1="73" y1="88" x2="5.49999" y2="222" gradientUnits="userSpaceOnUse">
<stop stop-color="white" stop-opacity="0.4"/>
<stop offset="1" stop-color="white" stop-opacity="0"/>
</linearGradient>
<linearGradient id="paint3_linear" x1="216.798" y1="62.7231" x2="178.51" y2="139.181" gradientUnits="userSpaceOnUse">
<stop stop-color="white" stop-opacity="0.4"/>
<stop offset="1" stop-color="white" stop-opacity="0"/>
</linearGradient>
</defs>
</svg>
