<svg width="181" height="205" viewBox="0 0 181 205" fill="none" xmlns="http://www.w3.org/2000/svg">
<path fill-rule="evenodd" clip-rule="evenodd" d="M99.7891 9.03801C118.293 14.9241 128.702 32.5593 143.252 45.2913C155.947 56.401 174.032 62.9322 179.496 78.7903C184.983 94.7147 173.86 110.723 171.539 127.387C168.5 149.205 179.299 175.538 163.814 191.387C148.456 207.107 121.879 199.692 99.7891 200.826C76.2099 202.036 50.4967 210.984 30.74 198.217C10.7984 185.33 1.34063 159.869 0.0462351 136.369C-1.10218 115.52 19.4807 100.469 24.2353 80.123C29.7705 56.4367 11.9442 25.9592 29.7665 9.19111C47.0894 -7.10714 77.0151 1.79348 99.7891 9.03801Z" fill="white"/>
<path d="M150.663 127.168H104.446V100.424H150.663V127.168ZM104.728 126.886H150.381V100.706H104.728V126.886Z" fill="#E0E0E0"/>
<path d="M141.129 114.684H110.636V115.578H141.129V114.684Z" fill="#F0F0F0"/>
<path d="M143.229 118.017H110.636V118.993H143.229V118.017Z" fill="#F0F0F0"/>
<path d="M143.229 121.39H110.636V122.366H143.229V121.39Z" fill="#F0F0F0"/>
<path d="M121.293 109.842H110.636V112.163H121.293V109.842Z" fill="#F0F0F0"/>
<path d="M150.522 100.565H104.595V104.823H150.522V100.565Z" fill="#E0E0E0"/>
<path d="M146.989 104.185C146.929 104.129 147.522 103.416 148.308 102.592C149.095 101.769 149.786 101.145 149.842 101.199C149.899 101.253 149.309 101.969 148.523 102.795C147.736 103.621 147.045 104.242 146.989 104.185Z" fill="white"/>
<path d="M149.848 104.185C149.792 104.242 149.104 103.621 148.314 102.795C147.524 101.969 146.935 101.255 146.994 101.199C147.053 101.143 147.739 101.763 148.528 102.592C149.318 103.421 149.902 104.129 149.848 104.185Z" fill="white"/>
<path d="M93.792 47.6021H47.8655V74.0678H93.792V47.6021Z" fill="#E6E6E6"/>
<path d="M84.4014 61.7247H53.9088V62.6186H84.4014V61.7247Z" fill="#F0F0F0"/>
<path d="M86.5023 65.0579H53.9088V66.0336H86.5023V65.0579Z" fill="#F0F0F0"/>
<path d="M86.5023 68.4307H53.9088V69.4064H86.5023V68.4307Z" fill="#F0F0F0"/>
<path d="M64.5656 56.8828H53.9088V59.2036H64.5656V56.8828Z" fill="#F0F0F0"/>
<path d="M93.792 47.6021H47.8655V51.8603H93.792V47.6021Z" fill="#E0E0E0"/>
<path d="M90.1035 51.2032C90.0442 51.1497 90.6365 50.4334 91.4232 49.6099C92.21 48.7865 92.9009 48.1633 92.9573 48.2197C93.0137 48.2761 92.4243 48.9895 91.6375 49.813C90.8508 50.6364 90.1599 51.254 90.1035 51.2032Z" fill="white"/>
<path d="M92.9573 51.2032C92.9009 51.2596 92.2128 50.6392 91.4232 49.813C90.6336 48.9867 90.0443 48.2761 90.1035 48.2197C90.1627 48.1633 90.848 48.7837 91.6376 49.6099C92.4272 50.4362 93.0165 51.1497 92.9573 51.2032Z" fill="white"/>
<path d="M76.3983 96.766H30.1898V70.0183H76.3983V96.766ZM30.4718 96.484H76.1163V70.3003H30.4718V96.484Z" fill="#E0E0E0"/>
<path d="M66.8667 84.2819H36.374V85.1758H66.8667V84.2819Z" fill="#F0F0F0"/>
<path d="M68.9676 87.6151H36.374V88.5908H68.9676V87.6151Z" fill="#F0F0F0"/>
<path d="M68.9676 90.9878H36.374V91.9635H68.9676V90.9878Z" fill="#F0F0F0"/>
<path d="M47.0308 79.4399H36.374V81.7608H47.0308V79.4399Z" fill="#F0F0F0"/>
<path d="M76.2573 70.1593H30.3308V74.4175H76.2573V70.1593Z" fill="#E0E0E0"/>
<path d="M129.727 102.894H75.4987V151.443H129.727V102.894Z" fill="#E6E6E6"/>
<path d="M78.2256 87.601H35.7452V131.737H78.2256V87.601Z" fill="#F0F0F0"/>
<path d="M78.2256 87.601H35.7452V92.4091H78.2256V87.601Z" fill="#E0E0E0"/>
<path d="M39.2532 89.9557C39.2455 90.1301 39.1867 90.2983 39.0842 90.4396C38.9817 90.5808 38.84 90.6889 38.6767 90.7503C38.5133 90.8117 38.3355 90.8239 38.1653 90.7851C37.9951 90.7464 37.8401 90.6586 37.7194 90.5325C37.5987 90.4065 37.5176 90.2477 37.4863 90.076C37.455 89.9044 37.4748 89.7272 37.5433 89.5667C37.6117 89.4061 37.7258 89.2692 37.8714 89.173C38.017 89.0767 38.1876 89.0253 38.3621 89.0251C38.6035 89.031 38.8327 89.1322 38.9996 89.3066C39.1666 89.4809 39.2578 89.7143 39.2532 89.9557V89.9557Z" fill="white"/>
<path d="M42.8713 89.9557C42.8641 90.1309 42.8056 90.3001 42.7029 90.4422C42.6003 90.5844 42.4582 90.6933 42.2942 90.7552C42.1302 90.8172 41.9515 90.8296 41.7805 90.7909C41.6095 90.7521 41.4537 90.6639 41.3325 90.5373C41.2112 90.4107 41.1298 90.2512 41.0985 90.0786C41.0672 89.9061 41.0873 89.7282 41.1564 89.5671C41.2254 89.4059 41.3403 89.2686 41.4868 89.1722C41.6333 89.0758 41.8049 89.0247 41.9802 89.0251C42.2215 89.031 42.4507 89.1322 42.6177 89.3066C42.7847 89.4809 42.8759 89.7143 42.8713 89.9557V89.9557Z" fill="white"/>
<path d="M46.4894 89.9557C46.4822 90.1309 46.4236 90.3001 46.321 90.4422C46.2184 90.5844 46.0762 90.6933 45.9122 90.7552C45.7482 90.8172 45.5696 90.8296 45.3986 90.7909C45.2276 90.7521 45.0718 90.6639 44.9505 90.5373C44.8293 90.4107 44.7479 90.2512 44.7166 90.0786C44.6853 89.9061 44.7054 89.7282 44.7744 89.5671C44.8435 89.4059 44.9584 89.2686 45.1049 89.1722C45.2513 89.0758 45.4229 89.0247 45.5982 89.0251C45.8396 89.031 46.0688 89.1322 46.2358 89.3066C46.4027 89.4809 46.4939 89.7143 46.4894 89.9557V89.9557Z" fill="white"/>
<path d="M144.597 57.255H90.3686V111.303H144.597V57.255Z" fill="#F0F0F0"/>
<path d="M144.597 57.255H90.3686V63.5859H144.597V57.255Z" fill="#E0E0E0"/>
<path d="M94.9877 60.357C94.9778 60.5871 94.9005 60.8093 94.7654 60.9959C94.6302 61.1825 94.4433 61.3253 94.2277 61.4065C94.0122 61.4878 93.7775 61.504 93.5528 61.453C93.3282 61.4021 93.1234 61.2863 92.964 61.12C92.8046 60.9537 92.6975 60.7442 92.6561 60.5176C92.6147 60.291 92.6407 60.0572 92.7311 59.8452C92.8214 59.6333 92.9719 59.4526 93.1641 59.3254C93.3562 59.1983 93.5814 59.1305 93.8118 59.1302C94.1302 59.1376 94.4327 59.2709 94.6531 59.5008C94.8735 59.7307 94.9938 60.0385 94.9877 60.357V60.357Z" fill="white"/>
<path d="M99.4067 59.5279C99.563 59.6977 99.6659 59.9097 99.7026 60.1376C99.7393 60.3654 99.7081 60.599 99.613 60.8093C99.5178 61.0196 99.3629 61.1972 99.1675 61.32C98.9721 61.4429 98.7449 61.5055 98.5142 61.5001C98.2835 61.4947 98.0594 61.4216 97.87 61.2897C97.6805 61.1579 97.5341 60.9733 97.4488 60.7588C97.3636 60.5443 97.3433 60.3095 97.3906 60.0836C97.4379 59.8577 97.5506 59.6507 97.7147 59.4884C97.9445 59.2697 98.2517 59.1511 98.5688 59.1585C98.886 59.1659 99.1873 59.2987 99.4067 59.5279V59.5279Z" fill="white"/>
<path d="M104.514 60.357C104.504 60.5871 104.426 60.8093 104.291 60.9959C104.156 61.1825 103.969 61.3253 103.754 61.4065C103.538 61.4878 103.303 61.504 103.079 61.453C102.854 61.4021 102.649 61.2863 102.49 61.12C102.331 60.9537 102.223 60.7442 102.182 60.5176C102.141 60.291 102.167 60.0572 102.257 59.8452C102.347 59.6333 102.498 59.4526 102.69 59.3254C102.882 59.1983 103.107 59.1305 103.338 59.1302C103.656 59.1376 103.959 59.2709 104.179 59.5008C104.399 59.7307 104.52 60.0385 104.514 60.357V60.357Z" fill="white"/>
<path d="M132.883 165.783C132.883 165.822 113.301 165.856 89.1531 165.856C65.0055 165.856 45.4149 165.822 45.4149 165.783C45.4149 165.743 64.9942 165.709 89.1531 165.709C113.312 165.709 132.883 165.746 132.883 165.783Z" fill="#263238"/>
<path d="M113.803 131.26C109.446 128.217 108.459 122.569 108.631 117.49C108.659 116.644 108.566 115.747 108.969 115.006C109.373 114.264 110.314 113.754 111.073 114.109C111.702 114.405 111.975 115.138 112.328 115.745C112.798 116.552 113.487 117.21 114.316 117.642C114.855 117.924 115.523 118.094 116.056 117.8C116.789 117.397 116.874 116.39 116.868 115.544C116.868 113.971 116.859 112.399 116.84 110.829C116.789 109.986 116.875 109.141 117.094 108.325C117.356 107.524 117.94 106.783 118.738 106.557C119.536 106.331 120.531 106.797 120.712 107.62C120.743 107.969 120.751 108.319 120.737 108.669C120.76 109.022 120.923 109.408 121.253 109.515C121.583 109.622 121.927 109.377 122.181 109.129C123.05 108.283 123.642 107.18 124.192 106.092C124.742 105.003 125.28 103.884 126.07 102.956C126.859 102.028 127.951 101.292 129.172 101.222C130.393 101.151 131.665 101.901 131.969 103.086C132.274 104.27 131.583 105.48 130.841 106.441C129.722 107.869 128.403 109.127 126.924 110.178C126.636 110.336 126.405 110.582 126.267 110.88C126.084 111.444 126.617 112.008 127.172 112.186C127.801 112.394 128.484 112.33 129.146 112.409C129.809 112.488 130.514 112.775 130.765 113.396C131.109 114.258 130.387 115.161 129.679 115.753C128.258 116.937 126.644 117.869 124.908 118.508C124.288 118.734 123.636 118.934 123.134 119.368C122.632 119.803 122.333 120.561 122.635 121.156C122.937 121.751 123.712 121.94 124.364 121.819C125.015 121.698 125.593 121.348 126.214 121.114C127.373 120.677 128.867 120.756 129.598 121.757C129.824 122.102 129.967 122.494 130.016 122.904C130.065 123.313 130.018 123.729 129.88 124.117C129.597 124.89 129.163 125.599 128.602 126.201C126.755 128.408 124.355 130.085 121.648 131.06C118.961 131.991 116.47 132.244 113.8 131.266" fill="#F54A4A"/>
<path d="M130.728 101.918C130.728 101.918 130.703 101.946 130.647 101.997L130.396 102.22C130.176 102.417 129.851 102.705 129.442 103.086C128.283 104.162 127.207 105.324 126.222 106.563C125.593 107.344 124.942 108.229 124.248 109.191C123.554 110.153 122.838 111.19 122.127 112.293C121.37 113.456 120.676 114.659 120.049 115.897C119.722 116.543 119.434 117.217 119.138 117.905L118.264 120.006C117.112 122.652 116.108 125.361 115.258 128.119C114.573 130.376 114.101 132.691 113.848 135.036C113.684 136.619 113.657 138.212 113.769 139.799C113.814 140.363 113.856 140.795 113.896 141.088C113.913 141.229 113.924 141.342 113.935 141.424V141.539C113.923 141.502 113.915 141.465 113.91 141.426C113.896 141.345 113.879 141.235 113.856 141.094C113.806 140.812 113.752 140.366 113.701 139.802C113.565 138.212 113.575 136.613 113.729 135.025C113.967 132.67 114.429 130.343 115.108 128.076C115.951 125.31 116.952 122.595 118.106 119.944L119.003 117.851C119.299 117.166 119.589 116.486 119.919 115.838C120.551 114.596 121.25 113.39 122.015 112.225C122.737 111.097 123.464 110.076 124.149 109.123C124.835 108.17 125.497 107.279 126.123 106.501C127.118 105.266 128.209 104.111 129.386 103.049C129.803 102.674 130.136 102.392 130.362 102.203L130.624 101.991C130.656 101.963 130.691 101.939 130.728 101.918V101.918Z" fill="#263238"/>
<path d="M119.956 115.832C119.916 115.716 119.889 115.596 119.874 115.474C119.829 115.24 119.778 114.91 119.719 114.481C119.598 113.635 119.474 112.476 119.341 111.193C119.209 109.91 119.059 108.748 118.935 107.911C118.87 107.493 118.814 107.158 118.774 106.924C118.744 106.804 118.728 106.681 118.726 106.557C118.775 106.67 118.81 106.788 118.831 106.91C118.893 107.141 118.963 107.474 119.042 107.894C119.203 108.74 119.361 109.89 119.494 111.176C119.626 112.462 119.739 113.59 119.826 114.467C119.869 114.862 119.905 115.198 119.933 115.465C119.955 115.586 119.963 115.709 119.956 115.832V115.832Z" fill="#263238"/>
<path d="M130.807 113.807C130.67 113.837 130.53 113.854 130.39 113.858C130.108 113.883 129.708 113.917 129.211 113.974C128.219 114.081 126.854 114.278 125.356 114.56C123.859 114.842 122.514 115.161 121.546 115.406C121.064 115.53 120.675 115.643 120.418 115.719C120.281 115.768 120.14 115.802 119.995 115.821C120.126 115.755 120.262 115.701 120.402 115.66C120.667 115.567 121.05 115.437 121.53 115.299C122.491 115.017 123.836 114.682 125.339 114.394C126.613 114.15 127.897 113.972 129.189 113.858C129.688 113.816 130.091 113.799 130.373 113.793C130.518 113.783 130.663 113.788 130.807 113.807Z" fill="#263238"/>
<path d="M115.247 127.879C115.217 127.838 115.192 127.794 115.173 127.746L114.987 127.355C114.826 127.013 114.609 126.509 114.35 125.891C113.825 124.65 113.157 122.913 112.446 120.984C111.736 119.055 111.081 117.318 110.585 116.063C110.343 115.454 110.142 114.955 109.993 114.583L109.835 114.179C109.813 114.133 109.798 114.084 109.79 114.033C109.82 114.074 109.845 114.118 109.863 114.165L110.049 114.557C110.207 114.899 110.427 115.403 110.687 116.021C111.211 117.262 111.88 118.999 112.59 120.928C113.301 122.857 113.955 124.594 114.451 125.849C114.694 126.458 114.894 126.957 115.041 127.329C115.106 127.49 115.159 127.611 115.201 127.732C115.223 127.779 115.239 127.828 115.247 127.879V127.879Z" fill="#263238"/>
<path d="M129.651 123.235C129.606 123.26 129.558 123.28 129.507 123.294L129.09 123.435L127.547 123.934C126.245 124.357 124.445 124.96 122.471 125.626C120.497 126.291 118.69 126.884 117.379 127.278C116.724 127.479 116.191 127.631 115.822 127.732L115.396 127.842C115.347 127.858 115.296 127.869 115.244 127.873C115.289 127.848 115.337 127.828 115.388 127.814L115.805 127.673L117.347 127.174C118.65 126.751 120.449 126.148 122.423 125.482C124.397 124.817 126.202 124.224 127.514 123.83C128.171 123.629 128.701 123.477 129.073 123.376L129.499 123.266C129.548 123.25 129.599 123.239 129.651 123.235V123.235Z" fill="#263238"/>
<path d="M123.774 54.8298L122.322 55.3486L121.699 53.4508C120.554 49.9512 116.905 48.0928 113.552 49.2744C110.199 50.4559 108.414 54.294 109.559 57.7936L110.182 59.6914L108.724 60.2131C108.168 60.4288 107.717 60.8503 107.463 61.3902C107.21 61.9301 107.175 62.5468 107.365 63.1121L111.406 75.4609C111.49 75.7407 111.629 76.0008 111.815 76.2258C112.002 76.4507 112.231 76.6359 112.491 76.7703C112.75 76.9047 113.034 76.9857 113.325 77.0083C113.616 77.0309 113.909 76.9947 114.186 76.9019L129.237 71.5185C129.8 71.3033 130.258 70.8779 130.514 70.332C130.77 69.7861 130.804 69.1621 130.61 68.5913L126.566 56.2426C126.48 55.9635 126.339 55.7047 126.15 55.4815C125.962 55.2582 125.731 55.0752 125.47 54.9434C125.21 54.8115 124.925 54.7335 124.634 54.714C124.342 54.6945 124.05 54.7338 123.774 54.8298V54.8298ZM112.303 56.8038C111.994 55.8938 112.049 54.8997 112.457 54.0297C112.865 53.1597 113.594 52.4813 114.491 52.1367C114.934 51.9851 115.403 51.9243 115.87 51.958C116.336 51.9916 116.792 52.1189 117.208 52.3324C117.625 52.5458 117.994 52.841 118.294 53.2003C118.595 53.5596 118.819 53.9757 118.955 54.4237L119.575 56.3215L112.923 58.7016L112.303 56.8038ZM120.763 67.7623L121.795 70.915C121.814 70.9782 121.807 71.0463 121.778 71.1052C121.748 71.164 121.696 71.209 121.634 71.2309L120.187 71.7469C120.13 71.7629 120.068 71.756 120.016 71.7276C119.963 71.6992 119.923 71.6515 119.905 71.5946L118.865 68.456C118.291 68.4247 117.74 68.2189 117.287 67.8661C116.833 67.5134 116.498 67.0304 116.327 66.482C116.081 65.7569 116.126 64.9651 116.452 64.2723C116.777 63.5795 117.358 63.0395 118.072 62.7652C118.425 62.6447 118.799 62.5964 119.17 62.6233C119.542 62.6501 119.905 62.7516 120.237 62.9216C120.569 63.0916 120.863 63.3266 121.102 63.6127C121.341 63.8989 121.52 64.2302 121.628 64.587C121.81 65.1441 121.825 65.742 121.671 66.3075C121.518 66.873 121.203 67.3815 120.765 67.7707L120.763 67.7623Z" fill="#F54A4A"/>
<path d="M122.257 55.3148C122.257 55.3543 119.564 56.3666 116.214 57.5708C112.864 58.7749 110.131 59.7422 110.117 59.714C110.103 59.6858 112.81 58.6649 116.163 57.458C119.516 56.251 122.243 55.2781 122.257 55.3148Z" fill="#263238"/>
<path d="M125.455 55.8337C125.467 55.8582 125.478 55.8836 125.486 55.9098C125.509 55.9662 125.534 56.0395 125.568 56.1298C125.641 56.3356 125.743 56.6205 125.87 56.9758L126.952 60.1285C127.404 61.4652 127.942 63.0501 128.54 64.8097C128.822 65.6924 129.155 66.6117 129.465 67.579C129.631 68.0774 129.703 68.6024 129.677 69.1272C129.653 69.4 129.575 69.6655 129.448 69.9083C129.313 70.1503 129.132 70.3638 128.915 70.5372C128.479 70.8552 127.996 71.1017 127.483 71.2675L126.03 71.7892L123.281 72.7734L118.625 74.4316L115.481 75.537L114.635 75.819L114.409 75.8923C114.385 75.9031 114.359 75.9097 114.333 75.9121C114.333 75.9121 114.355 75.9121 114.403 75.8782L114.623 75.7908L115.469 75.4722L118.597 74.3216L123.244 72.6296L125.988 71.637L127.44 71.1124C127.939 70.9534 128.409 70.7143 128.831 70.4046C129.032 70.2437 129.2 70.0455 129.327 69.8209C129.446 69.5963 129.518 69.3497 129.538 69.0961C129.564 68.5906 129.495 68.0846 129.335 67.6044C129.031 66.6456 128.709 65.7178 128.419 64.8351C127.832 63.0726 127.291 61.4821 126.862 60.1455C126.434 58.8088 126.073 57.7344 125.824 56.9786C125.706 56.6092 125.616 56.3215 125.542 56.1129L125.475 55.8873C125.466 55.8702 125.46 55.8522 125.455 55.8337V55.8337Z" fill="#263238"/>
<path d="M117.514 51.9449C117.514 51.9449 117.364 51.8716 117.088 51.7588C116.694 51.6075 116.278 51.5236 115.856 51.5107C115.231 51.4892 114.608 51.6067 114.034 51.8547C113.336 52.1635 112.738 52.6629 112.311 53.2957C111.881 53.9267 111.65 54.6724 111.648 55.4361C111.654 56.0621 111.749 56.684 111.93 57.2832C112.077 57.7964 112.229 58.2053 112.331 58.4902C112.391 58.6348 112.44 58.7838 112.477 58.9357C112.397 58.8005 112.33 58.6579 112.277 58.5099C112.162 58.2279 111.995 57.8275 111.832 57.3114C111.631 56.7059 111.522 56.0738 111.507 55.4361C111.5 54.6435 111.736 53.8678 112.184 53.2139C112.626 52.558 113.248 52.0431 113.975 51.7306C114.567 51.4813 115.209 51.3713 115.85 51.4091C116.281 51.4311 116.704 51.5314 117.099 51.7052C117.205 51.754 117.307 51.8105 117.404 51.8744C117.444 51.8921 117.481 51.9158 117.514 51.9449V51.9449Z" fill="#263238"/>
<path d="M117.644 62.9796C117.689 62.9523 117.736 62.9287 117.785 62.9091C117.926 62.8454 118.072 62.7935 118.222 62.754C118.459 62.6838 118.705 62.6422 118.952 62.6299C119.289 62.6118 119.626 62.6627 119.942 62.7794C120.664 63.0332 121.327 63.7692 121.654 64.7534C121.811 65.2815 121.811 65.8439 121.654 66.3721C121.48 66.9453 121.168 67.4672 120.746 67.892L120.763 67.8159C121.138 68.8452 121.547 69.9619 121.97 71.1266L121.995 71.1971L121.924 71.2225L121.279 71.4368L119.869 71.9077L119.798 71.9303L119.776 71.8598C119.389 70.6923 118.966 69.6038 118.648 68.535L118.71 68.5829C118.158 68.5371 117.633 68.3302 117.198 67.9879C116.805 67.6851 116.482 67.3001 116.253 66.8599C116.047 66.4695 115.944 66.0325 115.954 65.5909C115.967 65.1396 116.08 64.6967 116.284 64.294C116.489 63.8913 116.78 63.5387 117.136 63.2616C117.283 63.1425 117.447 63.0473 117.624 62.9796C117.465 63.0741 117.31 63.1767 117.161 63.287C116.77 63.6183 116.47 64.0445 116.29 64.525C116.136 64.8872 116.064 65.2792 116.079 65.6726C116.094 66.0661 116.196 66.4513 116.377 66.8007C116.603 67.2242 116.917 67.5937 117.3 67.8836C117.714 68.2089 118.215 68.4051 118.741 68.4476H118.789L118.803 68.4899C119.113 69.5389 119.539 70.6359 119.931 71.809L119.838 71.7639L121.248 71.293L121.891 71.0758L121.845 71.1717C121.425 70.007 121.019 68.8875 120.647 67.8582V67.8159L120.681 67.7821C121.091 67.3748 121.396 66.8747 121.572 66.3241C121.721 65.8189 121.721 65.2812 121.572 64.7759C121.264 63.8284 120.63 63.1093 119.942 62.8555C119.637 62.7381 119.312 62.6834 118.986 62.6948C118.742 62.7004 118.5 62.7335 118.264 62.7935C117.844 62.8978 117.646 62.9937 117.644 62.9796Z" fill="#263238"/>
<path d="M108.927 144.404L80.758 144.275C79.1313 144.266 77.5746 143.611 76.4299 142.456C75.2851 141.3 74.646 139.737 74.6527 138.11L74.9516 67.4944C74.9549 66.6885 75.1171 65.8911 75.4287 65.1479C75.7404 64.4046 76.1955 63.7301 76.768 63.1628C77.3405 62.5955 78.0192 62.1467 78.7653 61.8418C79.5114 61.537 80.3102 61.3822 81.1161 61.3863L109.282 61.516C110.909 61.5242 112.466 62.1778 113.611 63.3331C114.757 64.4884 115.396 66.051 115.39 67.6777L115.091 138.291C115.088 139.097 114.926 139.894 114.614 140.638C114.303 141.382 113.848 142.056 113.275 142.624C112.703 143.192 112.024 143.641 111.278 143.947C110.532 144.252 109.733 144.408 108.927 144.404V144.404Z" fill="#455A64"/>
<path d="M109.24 63.944H103.78C103.602 63.9473 103.427 63.9857 103.263 64.0569C103.1 64.1282 102.952 64.2309 102.829 64.3592C102.705 64.4875 102.608 64.6389 102.543 64.8048C102.478 64.9706 102.446 65.1477 102.449 65.3258V66.3157C102.453 66.4937 102.421 66.6706 102.356 66.8363C102.291 67.002 102.194 67.1532 102.07 67.2813C101.946 67.4094 101.799 67.5118 101.635 67.5828C101.472 67.6537 101.296 67.6917 101.118 67.6946L90.4757 67.6467C90.1157 67.6371 89.7742 67.485 89.5262 67.2238C89.2782 66.9626 89.144 66.6137 89.1531 66.2536V65.2638C89.1622 64.9042 89.0285 64.5557 88.7811 64.2946C88.5337 64.0335 88.1929 63.8811 87.8334 63.8707H85.913L81.1331 63.8482C79.9961 63.8414 78.9029 64.2854 78.0926 65.083C77.2824 65.8805 76.8212 66.9667 76.81 68.1035L76.528 137.03C76.5254 137.594 76.6339 138.153 76.8474 138.675C77.0608 139.197 77.375 139.672 77.772 140.073C78.1689 140.473 78.641 140.792 79.161 141.01C79.6811 141.228 80.2391 141.342 80.8031 141.345L108.913 141.474C109.477 141.477 110.037 141.368 110.559 141.155C111.081 140.941 111.557 140.627 111.958 140.23C112.359 139.832 112.677 139.36 112.896 138.84C113.114 138.319 113.228 137.761 113.23 137.196L113.512 68.2699C113.519 67.1298 113.073 66.0337 112.272 65.2225C111.471 64.4114 110.38 63.9515 109.24 63.944V63.944Z" fill="white"/>
<path d="M105.458 132.278L84.5565 132.188C84.3394 132.188 84.1646 131.951 84.1674 131.664L84.1899 126.196C84.1899 125.914 84.3676 125.671 84.5847 125.671L105.487 125.767C105.607 125.788 105.715 125.854 105.787 125.952C105.86 126.051 105.891 126.173 105.876 126.294L105.856 131.757C105.856 132.047 105.676 132.281 105.458 132.278Z" fill="#F54A4A"/>
<path d="M88.7256 84.2058L81.4727 84.1729L81.4667 85.5039L88.7196 85.5368L88.7256 84.2058Z" fill="#F54A4A"/>
<path opacity="0.1" d="M88.7256 84.2058L81.4727 84.1729L81.4667 85.5039L88.7196 85.5368L88.7256 84.2058Z" fill="black"/>
<path d="M109.987 92.3781C110.044 92.3724 110.1 92.3591 110.154 92.3386C110.232 92.3081 110.3 92.2562 110.349 92.1889C110.399 92.1215 110.429 92.0415 110.436 91.9579C110.436 91.5096 110.436 90.8553 110.436 90.015C110.436 89.5948 110.436 89.1238 110.436 88.605C110.436 88.4781 110.436 88.3455 110.436 88.213C110.454 88.0844 110.426 87.9534 110.357 87.8436C110.318 87.7909 110.267 87.7479 110.209 87.7181C110.151 87.6882 110.087 87.6723 110.021 87.6715H109.581H105.506L81.9198 87.5841C81.8595 87.5831 81.7997 87.5967 81.7457 87.6237C81.6917 87.6507 81.645 87.6903 81.6096 87.7392C81.5415 87.8495 81.5155 87.9807 81.5363 88.1086C81.5363 88.3906 81.5363 88.6726 81.5363 88.9546C81.5363 89.5186 81.5363 90.0826 81.5363 90.6466C81.5363 90.9286 81.5363 91.2106 81.5363 91.4926C81.5246 91.624 81.5246 91.7561 81.5363 91.8874C81.5511 91.9437 81.5787 91.9959 81.6168 92.0399C81.6549 92.0839 81.7026 92.1186 81.7563 92.1412C81.8118 92.1634 81.8713 92.1739 81.9311 92.1723H83.3665L89.6297 92.2061L100.233 92.271L107.382 92.3274L109.325 92.3499H109.829C109.945 92.3499 110.001 92.3499 110.001 92.3499H109.829H109.325H107.382H100.233L89.6297 92.3161L83.3665 92.2907H81.9311C81.8521 92.2939 81.7733 92.2804 81.6999 92.2512C81.6256 92.2195 81.5596 92.1713 81.5068 92.1102C81.454 92.0491 81.4159 91.9768 81.3953 91.8987C81.379 91.8247 81.3733 91.7487 81.3784 91.6731V91.4644C81.3784 91.1824 81.3784 90.9004 81.3784 90.6184C81.3784 90.0544 81.3784 89.4904 81.3784 88.9264C81.3784 88.6444 81.3784 88.3624 81.3784 88.0804C81.373 88.0053 81.373 87.9299 81.3784 87.8548C81.389 87.7719 81.421 87.6931 81.4715 87.6264C81.5201 87.5583 81.5845 87.5031 81.6591 87.4652C81.7338 87.4274 81.8164 87.4082 81.9001 87.4093L105.487 87.539L109.561 87.5672H110.001C110.079 87.5673 110.155 87.586 110.224 87.6218C110.293 87.6577 110.352 87.7095 110.396 87.7731C110.476 87.8957 110.508 88.043 110.486 88.1876C110.486 88.3201 110.486 88.4527 110.486 88.5796C110.486 89.0928 110.486 89.5638 110.486 89.9896C110.486 90.8356 110.467 91.4842 110.461 91.9354C110.454 92.0221 110.423 92.1051 110.37 92.1745C110.318 92.244 110.247 92.297 110.165 92.3274C110.112 92.3604 110.05 92.378 109.987 92.3781V92.3781Z" fill="#E0E0E0"/>
<path d="M96.9166 88.9998H83.6513V90.2434H96.9166V88.9998Z" fill="#F54A4A"/>
<path opacity="0.2" d="M96.9166 88.9998H83.6513V90.2434H96.9166V88.9998Z" fill="white"/>
<path d="M88.6762 96.3483L81.4232 96.3154L81.4172 97.6465L88.6702 97.6794L88.6762 96.3483Z" fill="#F54A4A"/>
<path opacity="0.1" d="M88.6762 96.3483L81.4232 96.3154L81.4172 97.6465L88.6702 97.6794L88.6762 96.3483Z" fill="black"/>
<path d="M109.804 104.521C109.861 104.514 109.917 104.504 109.973 104.49C110.052 104.465 110.124 104.423 110.186 104.368C110.247 104.312 110.296 104.244 110.329 104.169C110.373 104.055 110.39 103.932 110.379 103.81C110.379 103.675 110.379 103.528 110.379 103.365C110.379 103.038 110.379 102.665 110.379 102.237V100.446C110.393 100.316 110.364 100.186 110.297 100.074C110.228 99.9589 110.119 99.8736 109.99 99.8342C109.85 99.8091 109.707 99.8015 109.564 99.8116H105.506L82.0016 99.7242C81.8752 99.7245 81.7532 99.7707 81.6582 99.8542C81.5633 99.9377 81.502 100.053 81.4856 100.178C81.4856 100.446 81.4856 100.742 81.4856 101.024C81.4856 101.588 81.4856 102.152 81.4856 102.716C81.4856 102.998 81.4856 103.28 81.4856 103.562C81.475 103.694 81.4807 103.827 81.5025 103.957C81.5377 104.071 81.6101 104.171 81.7083 104.239C81.8125 104.305 81.9349 104.337 82.058 104.329H82.45H83.265L89.5056 104.36L100.072 104.425L107.195 104.482L109.133 104.504H109.638H109.807H109.638H109.133H107.195H100.072L89.5 104.493L83.2593 104.47H82.0326C81.8801 104.479 81.7287 104.439 81.6012 104.355C81.4729 104.266 81.3792 104.135 81.3361 103.985C81.3108 103.842 81.3032 103.696 81.3135 103.551C81.3135 103.269 81.3135 102.987 81.3135 102.705C81.3135 102.141 81.3135 101.577 81.3135 101.013C81.3135 100.731 81.3135 100.449 81.3135 100.167C81.3341 100.006 81.4127 99.8575 81.5347 99.75C81.6567 99.6426 81.8137 99.5833 81.9762 99.5832L105.481 99.7129L109.539 99.7439C109.69 99.7347 109.842 99.7451 109.99 99.7749C110.137 99.8228 110.26 99.9233 110.337 100.057C110.41 100.181 110.442 100.325 110.427 100.469C110.427 100.601 110.427 100.731 110.427 100.861C110.427 101.371 110.427 101.839 110.427 102.271C110.427 102.702 110.427 103.066 110.427 103.399C110.427 103.559 110.427 103.709 110.427 103.847C110.437 103.973 110.417 104.1 110.368 104.216C110.331 104.294 110.278 104.363 110.213 104.419C110.147 104.474 110.07 104.515 109.987 104.538C109.926 104.543 109.864 104.537 109.804 104.521V104.521Z" fill="#E0E0E0"/>
<path d="M88.6215 109.018L81.3686 108.985L81.3625 110.316L88.6155 110.349L88.6215 109.018Z" fill="#F54A4A"/>
<path opacity="0.1" d="M88.6215 109.018L81.3686 108.985L81.3625 110.316L88.6155 110.349L88.6215 109.018Z" fill="black"/>
<path d="M109.748 117.186C109.805 117.179 109.861 117.169 109.917 117.155C109.995 117.13 110.067 117.088 110.129 117.033C110.19 116.979 110.239 116.911 110.272 116.836C110.316 116.722 110.334 116.6 110.323 116.478C110.323 116.34 110.323 116.196 110.323 116.029C110.323 115.705 110.323 115.33 110.323 114.901V113.111C110.336 112.981 110.308 112.851 110.241 112.739C110.17 112.626 110.061 112.542 109.934 112.502C109.793 112.476 109.65 112.467 109.508 112.476H105.45L81.9452 112.389C81.8188 112.389 81.6968 112.435 81.6018 112.519C81.5069 112.602 81.4456 112.717 81.4292 112.843C81.4292 113.125 81.4292 113.407 81.4292 113.689C81.4292 114.253 81.4292 114.817 81.4292 115.381C81.4292 115.663 81.4292 115.945 81.4292 116.227C81.4187 116.358 81.4243 116.489 81.4461 116.619C81.4799 116.734 81.5526 116.834 81.6519 116.901C81.7555 116.968 81.8783 117 82.0016 116.991H83.2283L89.469 117.025L100.036 117.09L107.159 117.146L109.096 117.169H109.601C109.714 117.169 109.77 117.169 109.77 117.169C109.77 117.169 109.714 117.169 109.601 117.169H109.096H107.159H100.036L89.469 117.138L83.2283 117.112H82.0016C81.849 117.123 81.6972 117.082 81.5702 116.997C81.4418 116.908 81.3482 116.777 81.3051 116.627C81.2798 116.484 81.2722 116.338 81.2825 116.193C81.2825 115.911 81.2825 115.629 81.2825 115.347C81.2825 114.783 81.2825 114.219 81.2825 113.655C81.2825 113.373 81.2825 113.091 81.2825 112.795C81.3025 112.634 81.3805 112.486 81.502 112.378C81.6236 112.271 81.7802 112.211 81.9424 112.211L105.447 112.341L109.505 112.372C109.656 112.363 109.808 112.373 109.956 112.403C110.103 112.451 110.226 112.551 110.303 112.685C110.376 112.809 110.408 112.953 110.393 113.097C110.393 113.229 110.393 113.362 110.393 113.489C110.393 113.999 110.393 114.467 110.393 114.899C110.393 115.33 110.393 115.694 110.393 116.027C110.393 116.187 110.393 116.337 110.393 116.475C110.404 116.601 110.384 116.728 110.334 116.844C110.298 116.922 110.245 116.991 110.179 117.047C110.113 117.102 110.036 117.143 109.953 117.166C109.887 117.189 109.817 117.195 109.748 117.186V117.186Z" fill="#E0E0E0"/>
<path d="M96.6334 101.494L83.3683 101.434L83.3626 102.678L96.6278 102.738L96.6334 101.494Z" fill="#F54A4A"/>
<path opacity="0.2" d="M96.6334 101.494L83.3683 101.434L83.3626 102.678L96.6278 102.738L96.6334 101.494Z" fill="white"/>
<path d="M84.5678 114.885C84.5595 114.998 84.5181 115.106 84.4486 115.197C84.3792 115.287 84.2849 115.354 84.1773 115.391C84.0698 115.428 83.9537 115.433 83.8436 115.405C83.7334 115.376 83.634 115.316 83.5577 115.232C83.4814 115.147 83.4315 115.043 83.4143 114.93C83.397 114.818 83.4131 114.703 83.4606 114.599C83.5081 114.496 83.5849 114.409 83.6815 114.349C83.778 114.289 83.8901 114.258 84.0038 114.261C84.1609 114.27 84.3082 114.34 84.4138 114.457C84.5194 114.574 84.5747 114.727 84.5678 114.885V114.885Z" fill="#F54A4A"/>
<path d="M86.3642 114.893C86.3697 114.972 86.3588 115.052 86.3322 115.127C86.3056 115.203 86.2638 115.271 86.2095 115.33C86.1551 115.388 86.0894 115.434 86.0163 115.466C85.9432 115.498 85.8643 115.514 85.7846 115.514C85.705 115.514 85.6261 115.498 85.553 115.466C85.4799 115.434 85.4142 115.388 85.3598 115.33C85.3055 115.271 85.2637 115.203 85.2371 115.127C85.2104 115.052 85.1996 114.972 85.2051 114.893C85.1996 114.813 85.2104 114.734 85.2371 114.659C85.2637 114.583 85.3055 114.515 85.3598 114.456C85.4142 114.398 85.4799 114.352 85.553 114.32C85.6261 114.288 85.705 114.272 85.7846 114.272C85.8643 114.272 85.9432 114.288 86.0163 114.32C86.0894 114.352 86.1551 114.398 86.2095 114.456C86.2638 114.515 86.3056 114.583 86.3322 114.659C86.3588 114.734 86.3697 114.813 86.3642 114.893V114.893Z" fill="#F54A4A"/>
<path d="M88.1633 114.901C88.155 115.015 88.1136 115.123 88.0441 115.213C87.9747 115.304 87.8804 115.371 87.7728 115.408C87.6653 115.445 87.5492 115.45 87.4391 115.422C87.3289 115.393 87.2296 115.333 87.1532 115.249C87.0769 115.164 87.027 115.06 87.0098 114.947C86.9925 114.835 87.0086 114.72 87.0561 114.616C87.1036 114.513 87.1804 114.426 87.277 114.366C87.3735 114.306 87.4856 114.275 87.5993 114.278C87.7562 114.288 87.9031 114.358 88.0085 114.475C88.1139 114.591 88.1695 114.744 88.1633 114.901Z" fill="#F54A4A"/>
<path d="M89.9597 114.91C89.9513 115.023 89.9099 115.132 89.8405 115.222C89.7711 115.312 89.6767 115.38 89.5692 115.417C89.4616 115.454 89.3456 115.458 89.2354 115.43C89.1253 115.402 89.0259 115.342 88.9496 115.257C88.8733 115.173 88.8234 115.068 88.8061 114.956C88.7888 114.843 88.805 114.728 88.8525 114.625C88.9 114.521 88.9768 114.434 89.0733 114.374C89.1699 114.314 89.282 114.284 89.3957 114.287C89.5525 114.296 89.6994 114.367 89.8048 114.483C89.9103 114.6 89.9659 114.753 89.9597 114.91Z" fill="#F54A4A"/>
<path d="M91.756 114.916C91.7482 115.029 91.7072 115.138 91.6381 115.228C91.569 115.319 91.4748 115.387 91.3672 115.425C91.2597 115.462 91.1435 115.467 91.0332 115.439C90.9228 115.411 90.8232 115.351 90.7466 115.267C90.67 115.182 90.6198 115.078 90.6024 114.965C90.5849 114.852 90.6009 114.737 90.6484 114.634C90.6958 114.53 90.7726 114.443 90.8693 114.383C90.9659 114.323 91.0782 114.292 91.192 114.295C91.3483 114.305 91.4948 114.375 91.6001 114.491C91.7055 114.607 91.7614 114.759 91.756 114.916Z" fill="#F54A4A"/>
<path d="M93.5552 114.924C93.5475 115.037 93.5069 115.145 93.4384 115.236C93.37 115.326 93.2766 115.394 93.1699 115.432C93.0631 115.47 92.9476 115.476 92.8376 115.449C92.7276 115.422 92.6278 115.363 92.5506 115.281C92.4734 115.198 92.422 115.094 92.403 114.982C92.3839 114.871 92.3979 114.756 92.4432 114.652C92.4885 114.548 92.5632 114.46 92.658 114.398C92.7529 114.336 92.8638 114.303 92.9771 114.304C93.1359 114.309 93.2859 114.378 93.3943 114.494C93.5026 114.611 93.5605 114.765 93.5552 114.924V114.924Z" fill="#F54A4A"/>
<path d="M95.3515 114.932C95.357 115.012 95.3462 115.092 95.3196 115.167C95.293 115.242 95.2512 115.311 95.1968 115.369C95.1425 115.427 95.0767 115.474 95.0036 115.506C94.9305 115.537 94.8517 115.554 94.772 115.554C94.6923 115.554 94.6134 115.537 94.5404 115.506C94.4673 115.474 94.4015 115.427 94.3472 115.369C94.2928 115.311 94.251 115.242 94.2244 115.167C94.1978 115.092 94.1869 115.012 94.1925 114.932C94.1869 114.853 94.1978 114.773 94.2244 114.698C94.251 114.623 94.2928 114.554 94.3472 114.496C94.4015 114.438 94.4673 114.391 94.5404 114.359C94.6134 114.327 94.6923 114.311 94.772 114.311C94.8517 114.311 94.9305 114.327 95.0036 114.359C95.0767 114.391 95.1425 114.438 95.1968 114.496C95.2512 114.554 95.293 114.623 95.3196 114.698C95.3462 114.773 95.357 114.853 95.3515 114.932Z" fill="#F54A4A"/>
<path d="M97.1478 114.941C97.1401 115.054 97.0996 115.162 97.0311 115.252C96.9627 115.343 96.8693 115.411 96.7626 115.449C96.6558 115.487 96.5403 115.493 96.4303 115.466C96.3202 115.439 96.2205 115.38 96.1433 115.297C96.066 115.215 96.0147 115.111 95.9956 114.999C95.9766 114.888 95.9905 114.773 96.0359 114.669C96.0812 114.565 96.1559 114.477 96.2507 114.415C96.3456 114.353 96.4565 114.32 96.5697 114.32C96.7286 114.326 96.8786 114.395 96.987 114.511C97.0953 114.628 97.1532 114.782 97.1478 114.941V114.941Z" fill="#F54A4A"/>
<path d="M98.9442 114.949C98.9364 115.063 98.8954 115.172 98.8263 115.262C98.7572 115.353 98.663 115.421 98.5555 115.458C98.4479 115.496 98.3317 115.501 98.2214 115.473C98.111 115.445 98.0114 115.385 97.9348 115.3C97.8582 115.216 97.808 115.111 97.7906 114.999C97.7731 114.886 97.7891 114.771 97.8366 114.668C97.884 114.564 97.9608 114.477 98.0575 114.417C98.1541 114.356 98.2664 114.326 98.3802 114.329C98.5365 114.338 98.683 114.409 98.7883 114.525C98.8937 114.64 98.9496 114.793 98.9442 114.949V114.949Z" fill="#F54A4A"/>
<g opacity="0.2">
<path opacity="0.2" d="M84.5678 114.885C84.5595 114.998 84.5181 115.106 84.4486 115.197C84.3792 115.287 84.2849 115.354 84.1773 115.391C84.0698 115.428 83.9537 115.433 83.8436 115.405C83.7334 115.376 83.634 115.316 83.5577 115.232C83.4814 115.147 83.4315 115.043 83.4143 114.93C83.397 114.818 83.4131 114.703 83.4606 114.599C83.5081 114.496 83.5849 114.409 83.6815 114.349C83.778 114.289 83.8901 114.258 84.0038 114.261C84.1609 114.27 84.3082 114.34 84.4138 114.457C84.5194 114.574 84.5747 114.727 84.5678 114.885V114.885Z" fill="white"/>
<path opacity="0.2" d="M86.3642 114.893C86.3697 114.972 86.3588 115.052 86.3322 115.127C86.3056 115.203 86.2638 115.271 86.2095 115.33C86.1551 115.388 86.0894 115.434 86.0163 115.466C85.9432 115.498 85.8643 115.514 85.7846 115.514C85.705 115.514 85.6261 115.498 85.553 115.466C85.4799 115.434 85.4142 115.388 85.3598 115.33C85.3055 115.271 85.2637 115.203 85.2371 115.127C85.2104 115.052 85.1996 114.972 85.2051 114.893C85.1996 114.813 85.2104 114.734 85.2371 114.659C85.2637 114.583 85.3055 114.515 85.3598 114.456C85.4142 114.398 85.4799 114.352 85.553 114.32C85.6261 114.288 85.705 114.272 85.7846 114.272C85.8643 114.272 85.9432 114.288 86.0163 114.32C86.0894 114.352 86.1551 114.398 86.2095 114.456C86.2638 114.515 86.3056 114.583 86.3322 114.659C86.3588 114.734 86.3697 114.813 86.3642 114.893V114.893Z" fill="white"/>
<path opacity="0.2" d="M88.1633 114.901C88.155 115.015 88.1136 115.123 88.0442 115.213C87.9747 115.304 87.8804 115.371 87.7728 115.408C87.6653 115.445 87.5492 115.45 87.4391 115.421C87.3289 115.393 87.2296 115.333 87.1532 115.249C87.0769 115.164 87.027 115.06 87.0098 114.947C86.9925 114.835 87.0086 114.72 87.0561 114.616C87.1036 114.513 87.1804 114.426 87.277 114.366C87.3735 114.306 87.4856 114.275 87.5993 114.278C87.7562 114.288 87.9031 114.358 88.0085 114.475C88.1139 114.591 88.1695 114.744 88.1633 114.901Z" fill="white"/>
<path opacity="0.2" d="M89.9597 114.91C89.9513 115.023 89.9099 115.132 89.8405 115.222C89.7711 115.312 89.6767 115.38 89.5692 115.417C89.4616 115.454 89.3456 115.458 89.2354 115.43C89.1253 115.402 89.0259 115.342 88.9496 115.257C88.8733 115.173 88.8234 115.068 88.8061 114.956C88.7888 114.843 88.805 114.728 88.8525 114.625C88.9 114.521 88.9768 114.434 89.0733 114.374C89.1699 114.314 89.282 114.284 89.3957 114.287C89.5525 114.296 89.6994 114.367 89.8048 114.483C89.9103 114.6 89.9659 114.753 89.9597 114.91Z" fill="white"/>
<path opacity="0.2" d="M91.756 114.916C91.7482 115.029 91.7072 115.138 91.6381 115.228C91.569 115.319 91.4748 115.387 91.3672 115.425C91.2597 115.462 91.1435 115.467 91.0332 115.439C90.9228 115.411 90.8232 115.351 90.7466 115.267C90.67 115.182 90.6198 115.078 90.6024 114.965C90.5849 114.852 90.6009 114.737 90.6484 114.634C90.6958 114.53 90.7726 114.443 90.8693 114.383C90.9659 114.323 91.0782 114.292 91.192 114.295C91.3483 114.305 91.4948 114.375 91.6001 114.491C91.7055 114.607 91.7614 114.759 91.756 114.916Z" fill="white"/>
<path opacity="0.2" d="M93.5552 114.924C93.5475 115.037 93.5069 115.145 93.4384 115.236C93.37 115.326 93.2766 115.394 93.1699 115.432C93.0631 115.47 92.9476 115.476 92.8376 115.449C92.7276 115.422 92.6278 115.363 92.5506 115.281C92.4734 115.198 92.422 115.094 92.403 114.982C92.3839 114.871 92.3979 114.756 92.4432 114.652C92.4885 114.548 92.5632 114.46 92.658 114.398C92.7529 114.336 92.8638 114.303 92.9771 114.304C93.1359 114.309 93.2859 114.378 93.3943 114.494C93.5026 114.611 93.5605 114.765 93.5552 114.924V114.924Z" fill="white"/>
<path opacity="0.2" d="M95.3515 114.932C95.357 115.012 95.3462 115.092 95.3196 115.167C95.293 115.242 95.2512 115.311 95.1968 115.369C95.1425 115.427 95.0767 115.474 95.0036 115.506C94.9305 115.537 94.8517 115.554 94.772 115.554C94.6923 115.554 94.6134 115.537 94.5404 115.506C94.4673 115.474 94.4015 115.427 94.3472 115.369C94.2928 115.311 94.251 115.242 94.2244 115.167C94.1978 115.092 94.1869 115.012 94.1925 114.932C94.1869 114.853 94.1978 114.773 94.2244 114.698C94.251 114.623 94.2928 114.554 94.3472 114.496C94.4015 114.438 94.4673 114.391 94.5404 114.359C94.6134 114.327 94.6923 114.311 94.772 114.311C94.8517 114.311 94.9305 114.327 95.0036 114.359C95.0767 114.391 95.1425 114.438 95.1968 114.496C95.2512 114.554 95.293 114.623 95.3196 114.698C95.3462 114.773 95.357 114.853 95.3515 114.932Z" fill="white"/>
<path opacity="0.2" d="M97.1478 114.941C97.1401 115.054 97.0996 115.162 97.0311 115.253C96.9627 115.343 96.8693 115.411 96.7626 115.449C96.6558 115.487 96.5403 115.493 96.4303 115.466C96.3202 115.439 96.2205 115.38 96.1433 115.297C96.066 115.215 96.0147 115.111 95.9956 114.999C95.9766 114.888 95.9905 114.773 96.0359 114.669C96.0812 114.565 96.1559 114.477 96.2507 114.415C96.3456 114.353 96.4565 114.32 96.5697 114.321C96.7286 114.326 96.8786 114.395 96.987 114.511C97.0953 114.628 97.1532 114.782 97.1478 114.941V114.941Z" fill="white"/>
<path opacity="0.2" d="M98.9442 114.949C98.9364 115.063 98.8954 115.172 98.8263 115.262C98.7572 115.353 98.663 115.421 98.5555 115.458C98.4479 115.496 98.3317 115.501 98.2214 115.473C98.111 115.445 98.0114 115.385 97.9348 115.3C97.8582 115.216 97.808 115.111 97.7906 114.999C97.7731 114.886 97.7891 114.771 97.8366 114.668C97.884 114.564 97.9608 114.477 98.0575 114.417C98.1541 114.356 98.2664 114.326 98.3802 114.329C98.5365 114.338 98.683 114.409 98.7883 114.525C98.8937 114.64 98.9496 114.793 98.9442 114.949V114.949Z" fill="white"/>
</g>
<path d="M96.3921 74.2399C96.588 74.1536 96.7542 74.0116 96.87 73.8316C96.9858 73.6516 97.0462 73.4415 97.0435 73.2275C97.0508 73.0883 97.0297 72.9492 96.9815 72.8185C96.9333 72.6877 96.8589 72.5682 96.763 72.4671C96.6671 72.3661 96.5517 72.2856 96.4236 72.2306C96.2956 72.1756 96.1578 72.1472 96.0184 72.1472C95.8791 72.1472 95.7412 72.1756 95.6132 72.2306C95.4852 72.2856 95.3697 72.3661 95.2738 72.4671C95.1779 72.5682 95.1036 72.6877 95.0554 72.8185C95.0072 72.9492 94.9861 73.0883 94.9934 73.2275C94.9891 73.4437 95.0489 73.6563 95.1654 73.8385C95.2818 74.0206 95.4496 74.1643 95.6476 74.2511C94.0684 74.488 94.1389 76.2026 94.1389 76.2026L97.8726 76.2195C97.8726 76.2195 97.96 74.4739 96.3921 74.2399Z" fill="#F54A4A"/>
<path opacity="0.1" d="M96.3921 74.2399C96.588 74.1536 96.7542 74.0116 96.87 73.8316C96.9858 73.6516 97.0462 73.4415 97.0435 73.2275C97.0508 73.0883 97.0297 72.9492 96.9815 72.8185C96.9333 72.6877 96.8589 72.5682 96.763 72.4671C96.6671 72.3661 96.5517 72.2856 96.4236 72.2306C96.2956 72.1756 96.1578 72.1472 96.0184 72.1472C95.8791 72.1472 95.7412 72.1756 95.6132 72.2306C95.4852 72.2856 95.3697 72.3661 95.2738 72.4671C95.1779 72.5682 95.1036 72.6877 95.0554 72.8185C95.0072 72.9492 94.9861 73.0883 94.9934 73.2275C94.9891 73.4437 95.0489 73.6563 95.1654 73.8385C95.2818 74.0206 95.4496 74.1643 95.6476 74.2511C94.0684 74.488 94.1389 76.2026 94.1389 76.2026L97.8726 76.2195C97.8726 76.2195 97.96 74.4739 96.3921 74.2399Z" fill="black"/>
<path d="M102.459 77.3253L89.1517 77.265L89.1445 78.8554L102.452 78.9158L102.459 77.3253Z" fill="#F54A4A"/>
<path opacity="0.2" d="M102.459 77.3253L89.1517 77.265L89.1445 78.8554L102.452 78.9158L102.459 77.3253Z" fill="white"/>
<path d="M53.5365 85.5678H53.404L53.0205 85.596C52.8129 85.6084 52.6065 85.6358 52.4029 85.6778C52.271 85.6963 52.1402 85.7217 52.0109 85.7539L51.5738 85.8752C50.8299 86.1034 50.1279 86.451 49.4955 86.9045C48.6599 87.511 47.9621 88.2875 47.4482 89.183C47.1461 89.6992 46.9057 90.2491 46.7319 90.8214C46.5493 91.4434 46.4441 92.0856 46.4189 92.7334C46.4021 93.0737 46.4077 93.4147 46.4358 93.7542C46.4358 93.9263 46.4837 94.0983 46.5063 94.2731C46.5253 94.4494 46.5583 94.6238 46.605 94.7948C46.8586 95.9264 47.3731 96.9831 48.1075 97.8806C48.8419 98.778 49.7759 99.4914 50.835 99.9639C51.6015 100.295 52.423 100.479 53.2574 100.508C54.1191 100.556 54.9817 100.432 55.7954 100.144L56.0435 100.051H56.0774L56.1056 100.068L59.6616 101.873L59.5572 101.963C59.1765 100.784 58.8099 99.6424 58.4546 98.5454V98.5031L58.4856 98.4721C59.3483 97.6032 59.9887 96.5392 60.3525 95.3701C60.682 94.3013 60.7782 93.1742 60.6345 92.0651C60.5067 91.0793 60.1897 90.1275 59.7011 89.262C59.2798 88.5184 58.7364 87.8511 58.0937 87.288C57.5634 86.8422 56.9764 86.4686 56.3481 86.1769C55.8727 85.9718 55.3775 85.8159 54.8704 85.7116L54.3064 85.6185L53.8975 85.5875L53.6493 85.5706H53.5647C53.5929 85.5675 53.6212 85.5675 53.6493 85.5706H53.9003L54.3092 85.5875L54.8732 85.6693C55.3867 85.766 55.8886 85.9163 56.3706 86.1177C57.0098 86.406 57.6073 86.7787 58.1472 87.2259C58.8018 87.7866 59.3568 88.454 59.7885 89.1999C60.291 90.0748 60.6177 91.0395 60.7501 92.0397C60.9057 93.166 60.8163 94.3126 60.4878 95.4011C60.1216 96.5945 59.4714 97.6812 58.5928 98.568L58.6097 98.4947C58.965 99.5916 59.3345 100.734 59.718 101.91L59.7716 102.082L59.6108 102L56.0548 100.198H56.1168L55.863 100.291C55.0337 100.583 54.1551 100.709 53.2771 100.663C52.4248 100.631 51.5861 100.44 50.804 100.099C49.3121 99.4603 48.0709 98.3498 47.2705 96.938C46.9022 96.286 46.6332 95.5826 46.4724 94.8512C46.4284 94.6758 46.3955 94.4978 46.3737 94.3182C46.3512 94.1406 46.3145 93.9657 46.3061 93.7909C46.2297 92.7875 46.3358 91.7786 46.6191 90.813C46.7972 90.2328 47.0443 89.6761 47.3551 89.1548C47.8813 88.2512 48.5936 87.4697 49.4447 86.8622C50.0876 86.4076 50.8013 86.0626 51.5569 85.8413L51.9996 85.7285C52.13 85.6983 52.2617 85.6748 52.3944 85.658C52.6002 85.6199 52.8085 85.5973 53.0177 85.5903L53.404 85.5762C53.4479 85.5703 53.4922 85.5675 53.5365 85.5678Z" fill="#F54A4A"/>
<path d="M55.1439 92.144H54.6222L53.4942 90.5591V89.5186C53.4942 89.5186 52.6877 89.4678 52.7836 90.8299C52.8795 92.1919 52.7836 91.8451 52.7836 91.8451C52.7836 91.8451 51.0719 91.8451 50.9309 92.0002C50.7899 92.1553 50.7814 93.8078 50.7617 94.7299C50.7509 94.9522 50.8146 95.1717 50.9429 95.3536C51.0711 95.5355 51.2565 95.6693 51.4695 95.7338C51.5292 95.7504 51.5908 95.7589 51.6528 95.7592C52.0814 95.7592 54.2613 95.4124 54.2613 95.4124H55.1609L55.1439 92.144Z" fill="#F54A4A"/>
<path d="M56.6357 91.8648L56.3142 95.4293H55.4231V91.9381L56.6357 91.8648Z" fill="#F54A4A"/>
<path d="M67.2643 164.432V162.021L62.9412 161.99L62.9046 165.636L63.1725 165.656C64.3653 165.732 69.2411 165.845 70.042 165.597C70.9331 165.32 67.2643 164.432 67.2643 164.432Z" fill="#F54A4A"/>
<path d="M70.1435 165.371C70.1435 165.41 68.5248 165.444 66.5311 165.444C64.5374 165.444 62.9187 165.41 62.9187 165.371C62.9187 165.332 64.5374 165.298 66.5311 165.298C68.5248 165.298 70.1435 165.332 70.1435 165.371Z" fill="#263238"/>
<path d="M67.3404 164.925C67.3038 164.906 67.3404 164.779 67.4279 164.643C67.5153 164.508 67.6337 164.452 67.6619 164.48C67.6901 164.508 67.6309 164.615 67.5463 164.731C67.4617 164.847 67.3771 164.945 67.3404 164.925Z" fill="#263238"/>
<path d="M67.6168 165.083C67.5773 165.083 67.5971 164.925 67.6817 164.776C67.7663 164.626 67.8791 164.536 67.9101 164.559C67.9411 164.581 67.8903 164.708 67.8114 164.841C67.7324 164.973 67.6535 165.097 67.6168 165.083Z" fill="#263238"/>
<path d="M64.2215 165.36C64.2046 165.36 64.1397 165.309 64.0467 165.202C63.9331 165.064 63.8065 164.937 63.6688 164.824C63.5333 164.716 63.372 164.645 63.2007 164.618C63.0681 164.601 62.9835 164.618 62.9751 164.601C62.9666 164.584 63.0484 164.525 63.2035 164.514C63.4082 164.509 63.6079 164.577 63.7675 164.705C63.9171 164.827 64.0432 164.975 64.1397 165.143C64.2046 165.267 64.2384 165.348 64.2215 165.36Z" fill="#263238"/>
<path d="M67.3545 164.471C67.3743 164.505 67.301 164.59 67.1769 164.635C67.0528 164.68 66.9428 164.663 66.9372 164.635C66.9315 164.607 67.019 164.548 67.1261 164.508C67.2333 164.469 67.332 164.438 67.3545 164.471Z" fill="#263238"/>
<path d="M67.2869 164.237C67.2869 164.28 67.1741 164.313 67.0274 164.316C66.8808 164.319 66.7652 164.285 66.768 164.246C66.7708 164.206 66.8864 164.17 67.0274 164.167C67.1684 164.164 67.2812 164.198 67.2869 164.237Z" fill="#263238"/>
<path d="M77.9098 164.432V162.021L73.5867 161.99L73.5501 165.599L73.818 165.619C75.0108 165.695 79.8894 165.845 80.6875 165.597C81.5786 165.32 77.9098 164.432 77.9098 164.432Z" fill="#F54A4A"/>
<path d="M80.789 165.377C80.789 165.416 79.1732 165.45 77.1766 165.45C75.18 165.45 73.567 165.416 73.567 165.377C73.567 165.337 75.1829 165.303 77.1766 165.303C79.1703 165.303 80.789 165.337 80.789 165.377Z" fill="#263238"/>
<path d="M77.9859 164.925C77.9521 164.906 77.9859 164.779 78.0734 164.643C78.1608 164.508 78.2792 164.452 78.3074 164.48C78.3356 164.508 78.2764 164.615 78.1918 164.731C78.1072 164.847 78.0226 164.945 77.9859 164.925Z" fill="#263238"/>
<path d="M78.2623 165.083C78.2256 165.083 78.2426 164.925 78.33 164.776C78.4174 164.626 78.5274 164.536 78.5584 164.559C78.5894 164.581 78.5358 164.708 78.4569 164.841C78.3779 164.973 78.3018 165.097 78.2623 165.083Z" fill="#263238"/>
<path d="M74.867 165.36C74.8501 165.36 74.7881 165.309 74.6922 165.202C74.5786 165.064 74.452 164.937 74.3143 164.824C74.1788 164.716 74.0175 164.645 73.8462 164.618C73.7165 164.601 73.629 164.618 73.6206 164.601C73.6121 164.584 73.6939 164.525 73.849 164.514C74.0537 164.509 74.2534 164.577 74.413 164.705C74.5633 164.827 74.6896 164.975 74.7852 165.143C74.8501 165.267 74.8839 165.348 74.867 165.36Z" fill="#263238"/>
<path d="M78 164.471C78.0198 164.505 77.9465 164.59 77.8224 164.635C77.6983 164.68 77.5883 164.663 77.5827 164.635C77.577 164.607 77.6645 164.548 77.7716 164.508C77.8788 164.469 77.9775 164.438 78 164.471Z" fill="#263238"/>
<path d="M77.938 164.237C77.938 164.28 77.8252 164.313 77.6786 164.316C77.5319 164.319 77.4191 164.285 77.4219 164.246C77.4248 164.206 77.5376 164.17 77.6786 164.167C77.8196 164.164 77.938 164.198 77.938 164.237Z" fill="#263238"/>
<path d="M93.8371 92.8321C93.7243 92.7165 93.4452 92.7729 93.4452 92.7729C93.4732 92.6105 93.4732 92.4446 93.4452 92.2822C93.3944 92.1243 93.0391 92.1553 93.0391 92.1553C93.0227 92.0223 93.0227 91.8879 93.0391 91.7549C93.0419 91.7254 93.0356 91.6958 93.021 91.67C93.0063 91.6443 92.9841 91.6237 92.9573 91.6111C92.7892 91.5425 92.6086 91.5099 92.4271 91.5152C92.21 91.3601 93.0899 90.1277 93.417 89.7329C93.7441 89.3381 93.6849 89.0308 93.3944 89.0308C93.1942 89.0308 92.1677 90.2152 91.8519 90.6128C91.536 91.0104 90.6985 92.1158 90.6703 91.2332C90.6421 90.3505 90.2868 89.685 90.064 89.5722C89.8412 89.4594 89.6043 89.7245 89.7256 89.9698C89.8321 90.2485 89.8986 90.541 89.923 90.8384C89.9536 91.0753 89.9431 91.3157 89.892 91.549C89.7985 91.9832 89.6712 92.4094 89.5113 92.8237H89.4887C89.4887 92.8237 83.3355 98.7259 82.8899 99.1461C82.4923 99.524 74.4948 98.6977 72.8902 98.5285C72.3449 98.4487 71.7944 98.411 71.2433 98.4157C70.5468 98.4467 70.4227 98.5454 69.729 98.5539C67.977 98.5734 66.2292 98.727 64.5007 99.0136C63.718 99.1466 62.987 99.4921 62.3872 100.012C61.7875 100.532 61.3422 101.207 61.0998 101.963C59.4839 107.011 55.8236 118.959 55.1778 125.671C54.6898 126.556 54.2493 127.466 53.858 128.398C53.404 129.633 53.514 129.675 53.6663 129.704C54.078 129.78 54.5461 127.563 54.7209 128.099C54.8958 128.635 53.8326 130.741 54.2641 130.803C54.8281 130.882 55.2765 128.547 55.3301 128.361C55.3836 128.175 55.6628 128.234 55.6121 128.409C55.5303 128.657 54.7379 131.288 55.2906 131.373C55.5951 131.418 55.629 130.863 55.629 130.863C55.629 130.863 56.193 128.344 56.4496 128.395C56.7062 128.446 56.4327 129.932 56.303 130.428C56.1732 130.925 56.3537 131.176 56.6188 131.054C56.7993 130.97 57.2307 129.461 57.3492 128.97C57.4676 128.48 57.7637 127.121 58.1613 127.907C58.559 128.694 59.1624 129.151 59.4106 129.162C59.4665 129.156 59.5192 129.133 59.5619 129.096C59.6047 129.059 59.6354 129.011 59.6503 128.957C59.6652 128.902 59.6634 128.845 59.6453 128.791C59.6272 128.738 59.5936 128.691 59.5488 128.657C59.3353 128.449 59.1521 128.212 59.0045 127.952C58.873 127.75 58.7775 127.527 58.7225 127.293C58.6089 126.825 58.5427 126.347 58.5251 125.866L58.48 125.584C59.1117 122.456 60.9306 113.277 63.556 107.414L64.6332 109.631L65.1014 111.272L62.2306 118.359L74.475 118.198L72.6477 111.165L74.867 103.833C77.2668 103.887 83.4285 103.977 84.455 103.511C85.7466 102.947 92.4271 94.51 92.4271 94.51C92.8626 94.1716 93.2796 93.8102 93.6764 93.4271C93.6764 93.4271 94.0825 93.0859 93.8371 92.8321Z" fill="#FFBE9D"/>
<path d="M61.692 113.122C62.0473 111.909 63.8718 105.914 63.8718 105.914C63.8718 105.914 64.7686 110.801 64.5317 111.391C64.3138 111.895 64.0564 112.382 63.7619 112.846C61.692 115.996 61.9627 117.572 61.9627 117.572L74.4694 117.191C74.4976 115.443 73.4627 111.376 73.2483 110.728C73.034 110.079 73.7475 107.956 73.7475 107.956C73.7475 107.956 75.1575 106.52 75.1067 105.782C75.0799 105.118 74.9979 104.458 74.8614 103.808L82.4754 104.09L82.2357 98.9289L71.2997 97.8348C70.919 98.9092 67.4758 98.3819 67.4758 98.3819C63.759 98.5059 63.5278 99.1884 61.9824 100.39C60.4371 101.591 57.8793 111.901 57.8793 111.901L61.692 113.122Z" fill="#F54A4A"/>
<path d="M69.086 111.901C68.8693 111.94 68.6485 111.951 68.429 111.935C68.0201 111.935 67.4589 111.907 66.8413 111.845C66.2237 111.783 65.6654 111.695 65.2677 111.616C65.0485 111.588 64.8335 111.533 64.6276 111.453C64.8481 111.453 65.0681 111.473 65.2847 111.515C65.6851 111.565 66.2406 111.636 66.8554 111.698C67.4702 111.76 68.0285 111.802 68.4318 111.83C68.6516 111.833 68.8707 111.857 69.086 111.901V111.901Z" fill="#263238"/>
<path d="M69.9433 110.838C69.7265 110.944 69.4972 111.023 69.2609 111.072C68.1358 111.368 66.975 111.505 65.812 111.481C65.5713 111.489 65.3307 111.466 65.0957 111.413C65.3332 111.383 65.5727 111.371 65.812 111.376C66.2547 111.362 66.8639 111.331 67.535 111.252C68.2062 111.173 68.804 111.061 69.227 110.97C69.462 110.908 69.7015 110.863 69.9433 110.838V110.838Z" fill="#263238"/>
<path d="M74.1507 106.095C74.145 106.31 74.1157 106.523 74.0633 106.732C73.99 107.124 73.8772 107.66 73.7334 108.246C73.5896 108.833 73.4514 109.374 73.3273 109.741C73.2774 109.951 73.2036 110.154 73.1073 110.347C73.123 110.133 73.1628 109.921 73.2258 109.715C73.3329 109.276 73.4542 108.768 73.5896 108.212C73.7249 107.657 73.8546 107.149 73.9618 106.709C74 106.498 74.0634 106.291 74.1507 106.095V106.095Z" fill="#263238"/>
<path d="M61.8245 112.403C61.1721 112.302 60.5283 112.152 59.8985 111.955C59.2549 111.804 58.6234 111.606 58.0091 111.362C58.6611 111.465 59.3049 111.615 59.9351 111.811C60.5788 111.961 61.2104 112.159 61.8245 112.403V112.403Z" fill="#263238"/>
<path d="M74.9967 103.746C74.8904 103.764 74.7816 103.764 74.6753 103.746C74.3807 103.715 74.0915 103.646 73.8152 103.54C73.3538 103.366 72.9339 103.098 72.5823 102.753C72.2306 102.408 71.9552 101.993 71.7735 101.535C71.5727 101.031 71.4869 100.488 71.5225 99.947C71.5351 99.5005 71.6686 99.0658 71.9088 98.6893C72.0778 98.4356 72.3302 98.2491 72.6223 98.1619C72.7003 98.1404 72.781 98.13 72.862 98.1309C72.9184 98.1309 72.9466 98.1309 72.9466 98.1309C72.9466 98.1309 72.8282 98.1309 72.6392 98.2071C72.3713 98.3061 72.144 98.4916 71.9934 98.7344C71.6099 99.3379 71.5028 100.441 71.9117 101.47C72.102 101.955 72.3999 102.391 72.783 102.744C73.097 103.034 73.4586 103.266 73.8518 103.433C74.2209 103.578 74.6048 103.683 74.9967 103.746V103.746Z" fill="#263238"/>
<path d="M81.5702 103.988C81.4996 103.123 81.477 102.255 81.5025 101.388C81.4804 100.521 81.5067 99.6544 81.5814 98.7908C81.652 99.6546 81.6746 100.522 81.6491 101.388C81.6728 102.255 81.6465 103.124 81.5702 103.988V103.988Z" fill="#263238"/>
<path d="M71.2264 98.1506C71.2574 97.5217 71.3223 96.8111 71.3223 96.8111C71.3223 96.8111 72.8789 96.6391 72.972 95.0317C73.065 93.4243 72.972 89.716 72.972 89.716L70.152 88.2722L67.0218 90.734L67.504 98.771L70.3748 98.9543C70.5942 98.9604 70.8071 98.8792 70.9667 98.7285C71.1264 98.5779 71.2198 98.37 71.2264 98.1506V98.1506Z" fill="#FFBE9D"/>
<path d="M71.5056 93.7599C71.5056 93.7599 71.5056 93.7909 71.4802 93.8275C71.4592 93.8541 71.4321 93.8752 71.4011 93.889C71.3702 93.9027 71.3363 93.9087 71.3025 93.9065C71.1221 93.9065 70.9472 93.6978 70.8852 93.4553C70.8557 93.3377 70.8557 93.2147 70.8852 93.0972C70.891 93.0459 70.9095 92.9968 70.939 92.9544C70.9686 92.9121 71.0082 92.8778 71.0544 92.8546C71.0923 92.839 71.1349 92.839 71.1728 92.8546C71.2009 92.8686 71.2237 92.8914 71.2377 92.9195C71.2574 92.9674 71.2377 92.9985 71.2377 92.9956C71.2377 92.9928 71.2377 92.9674 71.2095 92.9392C71.1947 92.919 71.1731 92.905 71.1486 92.8998C71.1242 92.8946 71.0986 92.8986 71.0769 92.911C71.0424 92.932 71.0136 92.9613 70.9934 92.9963C70.9732 93.0313 70.9621 93.0708 70.9613 93.1113C70.9376 93.2162 70.9376 93.325 70.9613 93.4299C71.0177 93.6499 71.17 93.8275 71.3054 93.8445C71.3318 93.8481 71.3588 93.8462 71.3845 93.8389C71.4102 93.8316 71.4342 93.8191 71.4548 93.8022C71.4887 93.7796 71.5 93.757 71.5056 93.7599Z" fill="#EB996E"/>
<path d="M73.9392 88.8475C73.7221 88.1086 72.9353 87.742 72.219 87.539C71.1277 87.2288 69.9489 87.0934 68.883 87.4854C67.817 87.8774 66.5367 88.5655 66.5367 89.7414C65.9079 89.6906 65.5469 90.2405 65.2988 90.923C65.1401 91.3387 65.045 91.7761 65.0168 92.2202V92.2202C64.9378 93.7599 64.5063 95.8862 63.5081 97.0142C62.9441 97.643 62.1629 98.0773 61.8414 98.8613C61.5594 99.5409 61.7061 100.347 61.4438 101.036C61.2098 101.642 60.6937 102.073 60.3158 102.601C59.9308 103.199 59.7043 103.885 59.6574 104.595C59.6105 105.305 59.7449 106.015 60.0479 106.659C60.3531 107.286 60.7827 107.844 61.3107 108.3C61.8387 108.756 62.4539 109.099 63.1189 109.309C64.4361 109.71 65.8408 109.724 67.1656 109.349C68.1599 109.111 69.0874 108.651 69.8784 108.004C70.6879 107.343 71.2438 106.422 71.452 105.398C71.6522 104.247 71.3307 103.077 71.091 101.932C70.3409 98.3142 70.5552 98.1253 71.5028 94.7666C71.5253 94.7074 71.5366 94.6454 71.5535 94.5862C71.5704 94.5269 71.5789 94.4987 71.5902 94.4536C71.6171 94.3209 71.6313 94.1858 71.6325 94.0504C71.4941 94.1018 71.3439 94.1127 71.1995 94.0817C71.0551 94.0508 70.9226 93.9792 70.8175 93.8755C70.7122 93.7649 70.6387 93.6279 70.6049 93.479C70.5712 93.33 70.5784 93.1747 70.6257 93.0295C70.6923 92.8707 70.7914 92.7277 70.9167 92.6096C71.0421 92.4916 71.1908 92.4012 71.3533 92.3443C71.6663 92.2145 72.0019 92.1469 72.3093 92.003C72.9607 91.6928 73.4119 91.0499 73.7193 90.3759C73.972 89.9088 74.05 89.3669 73.9392 88.8475V88.8475Z" fill="#263238"/>
<path d="M71.6184 93.8361C71.678 93.9241 71.7272 94.0187 71.765 94.1181C71.8496 94.2957 71.9624 94.5467 72.0865 94.8372L72.1091 94.8907H72.0498L71.7678 94.9161C71.5733 94.9161 71.4097 94.9528 71.2179 94.9499C71.2012 94.9462 71.1858 94.9383 71.1729 94.9269C71.1601 94.9156 71.1504 94.9012 71.1446 94.8851C71.1362 94.8594 71.1362 94.8318 71.1446 94.8061C71.1511 94.7681 71.1596 94.7305 71.17 94.6933L71.2208 94.4931C71.2463 94.3595 71.286 94.2291 71.3392 94.104C71.3339 94.2401 71.3141 94.3753 71.28 94.5072L71.2405 94.7074C71.2264 94.7751 71.201 94.8795 71.2405 94.871C71.3815 94.871 71.5817 94.84 71.7678 94.8287L72.0498 94.8033L72.0132 94.8653C71.8919 94.5834 71.7904 94.3183 71.7312 94.135C71.6792 94.0414 71.6412 93.9407 71.6184 93.8361V93.8361Z" fill="#F54A4A"/>
<path d="M61.9627 117.572L74.4694 117.191L79.912 138.437L78.9109 162.808H72.298L73.1073 138.956L68.271 124.165L69.0155 163.752L62.3321 163.851L61.6299 126.641C61.5989 125.606 61.2605 123.274 61.3874 122.248L61.9627 117.572Z" fill="#263238"/>
<path d="M69.9348 124.467C69.7301 124.48 69.5246 124.467 69.3229 124.43C68.945 124.385 68.429 124.306 67.8621 124.193C67.2953 124.081 66.7877 123.951 66.4211 123.846C66.2251 123.803 66.0356 123.735 65.8571 123.643C65.8571 123.601 66.7764 123.821 67.9044 124.05C69.0324 124.278 69.9405 124.425 69.9348 124.467Z" fill="#455A64"/>
<path d="M78.8432 161.471C78.8432 161.51 77.3458 161.544 75.4987 161.544C73.6516 161.544 72.1514 161.51 72.1514 161.471C72.1514 161.431 73.6488 161.398 75.4987 161.398C77.3486 161.398 78.8432 161.429 78.8432 161.471Z" fill="#455A64"/>
<path d="M68.9563 162.723C68.9563 162.765 67.5012 162.796 65.7077 162.796C63.9141 162.796 62.4618 162.765 62.4618 162.723C62.4618 162.681 63.917 162.65 65.7077 162.65C67.4984 162.65 68.9563 162.683 68.9563 162.723Z" fill="#455A64"/>
<path d="M68.0934 162.621C68.0539 162.621 67.8791 153.973 67.7014 143.304C67.5237 132.636 67.4194 123.982 67.4561 123.982C67.4927 123.982 67.6732 132.628 67.848 143.302C68.0229 153.975 68.1357 162.621 68.0934 162.621Z" fill="#455A64"/>
<path d="M77.9549 161.471C77.9518 161.432 77.9518 161.394 77.9549 161.355V161.017C77.9549 160.712 77.9775 160.275 77.9944 159.72C78.0339 158.592 78.0903 156.953 78.1608 154.945C78.3131 150.907 78.5274 145.341 78.7614 139.196C78.7614 139.137 78.7614 139.08 78.7614 139.029V139.049C77.2809 133.127 75.9414 127.752 74.9685 123.863L73.8405 119.264C73.7108 118.725 73.6121 118.305 73.5416 118.012C73.5078 117.874 73.4852 117.767 73.4655 117.685C73.4545 117.648 73.4479 117.61 73.4457 117.572C73.4604 117.608 73.4717 117.644 73.4796 117.682C73.5021 117.761 73.5303 117.868 73.5698 118.003C73.646 118.285 73.7559 118.714 73.8969 119.25C74.1789 120.338 74.5766 121.906 75.0729 123.838C76.0542 127.724 77.4078 133.085 78.9081 139.015V139.035C78.9081 139.086 78.9081 139.145 78.9081 139.201C78.6571 145.346 78.4287 150.91 78.2623 154.948C78.1749 156.959 78.1016 158.586 78.0508 159.72C78.0226 160.284 78 160.712 77.9859 161.017C77.9859 161.161 77.969 161.274 77.9662 161.355C77.9666 161.394 77.9628 161.433 77.9549 161.471V161.471Z" fill="#455A64"/>
<path d="M75.7976 138.533C75.3226 138.689 74.8333 138.798 74.3369 138.857C73.7277 138.962 73.2089 139.035 72.9748 139.046V138.99C73.0509 139.012 73.0904 139.027 73.0904 139.038C73.0904 139.049 73.0425 139.038 72.9635 139.038H72.7943L72.9635 138.987C73.1835 138.922 73.7024 138.815 74.3115 138.705C74.8 138.599 75.2978 138.541 75.7976 138.533Z" fill="#455A64"/>
<path d="M75.682 139.342C75.2421 139.363 74.8013 139.343 74.3651 139.283C73.9246 139.274 73.4857 139.226 73.0538 139.139C73.9351 139.067 74.8222 139.136 75.682 139.342V139.342Z" fill="#455A64"/>
<path opacity="0.2" d="M61.9091 118.02C62.0572 118.211 62.2438 118.367 62.4566 118.481C62.6695 118.594 62.9038 118.661 63.1443 118.677C63.648 118.737 64.1575 118.728 64.6586 118.649C67.8875 118.291 71.3082 117.961 74.4694 117.191C70.3776 117.42 66.0545 117.344 61.9627 117.572L61.9204 117.922" fill="black"/>
<g opacity="0.2">
<path opacity="0.2" d="M66.125 123.787L68.4318 132.738L68.271 124.165L66.125 123.787Z" fill="black"/>
</g>
</svg>
