<svg width="414" height="339" viewBox="0 0 414 339" fill="none" xmlns="http://www.w3.org/2000/svg">
<path d="M411.057 338.707V283.701H387.118V226.932H383.742V259.469H374.539V250.469H357.963V219.31H354.892V181.237H352.441V218.615H346.604V274.006H335.56V218.615H315.608V265.465H294.667V208.684H291.291V241.233H282.087V232.233H265.512V201.074H262.44V162.988H259.99V200.379H254.152V255.77H243.109V200.379H223.156V253.957H209.704V222.798H206.633V184.725H204.182V222.103H198.355V277.494H187.301V222.103H167.349V277.494H157.536V283.701H140.329V226.932H136.953V259.469H127.75V250.469H111.174V219.31H108.102V181.237H105.652V218.615H100.298V215.499H80.346V218.615H69.3023V215.499H63.465V178.121H61.0143V216.194H57.9432V247.353H41.3671V256.353H32.1641V223.804H28.7879V280.585H4.84941V338.707H411.057Z" fill="#E0E0E0"/>
<path d="M91.5225 236.811H72.5442V301.408H91.5225V236.811Z" fill="#407BFF"/>
<path d="M148.747 248.968H129.769V301.397H148.747V248.968Z" fill="#407BFF"/>
<g opacity="0.7">
<path opacity="0.7" d="M91.5225 236.811H72.5442V301.408H91.5225V236.811Z" fill="white"/>
</g>
<path d="M120.492 257.268H101.514V301.408H120.492V257.268Z" fill="#407BFF"/>
<g opacity="0.7">
<path opacity="0.7" d="M148.747 248.968H129.769V301.397H148.747V248.968Z" fill="white"/>
</g>
<g opacity="0.7">
<path opacity="0.7" d="M120.492 257.268H101.514V301.408H120.492V257.268Z" fill="white"/>
</g>
<g opacity="0.2">
<path opacity="0.2" d="M91.5225 241.231H72.5442V241.782H91.5225V241.231Z" fill="black"/>
<path opacity="0.2" d="M91.5225 245.65H72.5442V246.201H91.5225V245.65Z" fill="black"/>
<path opacity="0.2" d="M91.5225 250.081H72.5442V250.632H91.5225V250.081Z" fill="black"/>
<path opacity="0.2" d="M91.5225 254.501H72.5442V255.052H91.5225V254.501Z" fill="black"/>
<path opacity="0.2" d="M91.5225 258.921H72.5442V259.472H91.5225V258.921Z" fill="black"/>
<path opacity="0.2" d="M91.5225 263.34H72.5442V263.892H91.5225V263.34Z" fill="black"/>
<path opacity="0.2" d="M91.5225 267.771H72.5442V268.322H91.5225V267.771Z" fill="black"/>
<path opacity="0.2" d="M91.5225 272.191H72.5442V272.742H91.5225V272.191Z" fill="black"/>
<path opacity="0.2" d="M91.5225 276.611H72.5442V277.162H91.5225V276.611Z" fill="black"/>
<path opacity="0.2" d="M91.5225 281.03H72.5442V281.581H91.5225V281.03Z" fill="black"/>
<path opacity="0.2" d="M91.5225 285.461H72.5442V286.012H91.5225V285.461Z" fill="black"/>
<path opacity="0.2" d="M91.5225 289.881H72.5442V290.432H91.5225V289.881Z" fill="black"/>
<path opacity="0.2" d="M91.5225 294.301H72.5442V294.852H91.5225V294.301Z" fill="black"/>
<path opacity="0.2" d="M91.5225 298.72H72.5442V299.272H91.5225V298.72Z" fill="black"/>
<path opacity="0.2" d="M120.492 274.958H101.514V275.509H120.492V274.958Z" fill="black"/>
<path opacity="0.2" d="M120.492 261.687H101.514V262.238H120.492V261.687Z" fill="black"/>
<path opacity="0.2" d="M120.492 266.107H101.514V266.658H120.492V266.107Z" fill="black"/>
<path opacity="0.2" d="M120.492 270.538H101.514V271.089H120.492V270.538Z" fill="black"/>
<path opacity="0.2" d="M120.492 279.377H101.514V279.928H120.492V279.377Z" fill="black"/>
<path opacity="0.2" d="M120.492 283.797H101.514V284.348H120.492V283.797Z" fill="black"/>
<path opacity="0.2" d="M120.492 288.228H101.514V288.779H120.492V288.228Z" fill="black"/>
<path opacity="0.2" d="M120.492 292.648H101.514V293.199H120.492V292.648Z" fill="black"/>
<path opacity="0.2" d="M120.492 297.067H101.514V297.618H120.492V297.067Z" fill="black"/>
<path opacity="0.2" d="M148.747 253.399H129.769V253.95H148.747V253.399Z" fill="black"/>
<path opacity="0.2" d="M148.747 257.819H129.769V258.37H148.747V257.819Z" fill="black"/>
<path opacity="0.2" d="M148.747 262.238H129.769V262.789H148.747V262.238Z" fill="black"/>
<path opacity="0.2" d="M148.747 266.658H129.769V267.209H148.747V266.658Z" fill="black"/>
<path opacity="0.2" d="M148.747 271.089H129.769V271.64H148.747V271.089Z" fill="black"/>
<path opacity="0.2" d="M148.747 275.509H129.769V276.06H148.747V275.509Z" fill="black"/>
<path opacity="0.2" d="M148.747 279.928H129.769V280.479H148.747V279.928Z" fill="black"/>
<path opacity="0.2" d="M148.747 284.348H129.769V284.899H148.747V284.348Z" fill="black"/>
<path opacity="0.2" d="M148.747 288.779H129.769V289.33H148.747V288.779Z" fill="black"/>
<path opacity="0.2" d="M148.747 293.199H129.769V293.75H148.747V293.199Z" fill="black"/>
<path opacity="0.2" d="M148.747 297.618H129.769V298.169H148.747V297.618Z" fill="black"/>
</g>
<path d="M58.9718 248.968H39.9935V301.397H58.9718V248.968Z" fill="#407BFF"/>
<path d="M27.8207 257.268H8.84241V301.408H27.8207V257.268Z" fill="#407BFF"/>
<g opacity="0.7">
<path opacity="0.7" d="M58.9718 248.968H39.9935V301.397H58.9718V248.968Z" fill="white"/>
</g>
<g opacity="0.7">
<path opacity="0.7" d="M27.8207 257.268H8.84241V301.408H27.8207V257.268Z" fill="white"/>
</g>
<g opacity="0.2">
<path opacity="0.2" d="M27.8207 274.958H8.84241V275.509H27.8207V274.958Z" fill="black"/>
<path opacity="0.2" d="M27.8207 261.687H8.84241V262.238H27.8207V261.687Z" fill="black"/>
<path opacity="0.2" d="M27.8207 266.107H8.84241V266.658H27.8207V266.107Z" fill="black"/>
<path opacity="0.2" d="M27.8207 270.538H8.84241V271.089H27.8207V270.538Z" fill="black"/>
<path opacity="0.2" d="M27.8207 279.377H8.84241V279.928H27.8207V279.377Z" fill="black"/>
<path opacity="0.2" d="M27.8207 283.797H8.84241V284.348H27.8207V283.797Z" fill="black"/>
<path opacity="0.2" d="M27.8207 288.228H8.84241V288.779H27.8207V288.228Z" fill="black"/>
<path opacity="0.2" d="M27.8207 292.648H8.84241V293.199H27.8207V292.648Z" fill="black"/>
<path opacity="0.2" d="M27.8207 297.067H8.84241V297.618H27.8207V297.067Z" fill="black"/>
</g>
<g opacity="0.2">
<path opacity="0.2" d="M58.9718 253.399H39.9935V253.95H58.9718V253.399Z" fill="black"/>
<path opacity="0.2" d="M58.9718 257.819H39.9935V258.37H58.9718V257.819Z" fill="black"/>
<path opacity="0.2" d="M58.9718 262.238H39.9935V262.789H58.9718V262.238Z" fill="black"/>
<path opacity="0.2" d="M58.9718 266.658H39.9935V267.209H58.9718V266.658Z" fill="black"/>
<path opacity="0.2" d="M58.9718 271.089H39.9935V271.64H58.9718V271.089Z" fill="black"/>
<path opacity="0.2" d="M58.9718 275.509H39.9935V276.06H58.9718V275.509Z" fill="black"/>
<path opacity="0.2" d="M58.9718 279.928H39.9935V280.479H58.9718V279.928Z" fill="black"/>
<path opacity="0.2" d="M58.9718 284.348H39.9935V284.899H58.9718V284.348Z" fill="black"/>
<path opacity="0.2" d="M58.9718 288.779H39.9935V289.33H58.9718V288.779Z" fill="black"/>
<path opacity="0.2" d="M58.9718 293.199H39.9935V293.75H58.9718V293.199Z" fill="black"/>
<path opacity="0.2" d="M58.9718 297.618H39.9935V298.169H58.9718V297.618Z" fill="black"/>
</g>
<path d="M299.068 235.686H280.089V300.284H299.068V235.686Z" fill="#407BFF"/>
<g opacity="0.7">
<path opacity="0.7" d="M299.068 235.686H280.089V300.284H299.068V235.686Z" fill="white"/>
</g>
<path d="M330.933 256.143H311.955V300.284H330.933V256.143Z" fill="#407BFF"/>
<g opacity="0.7">
<path opacity="0.7" d="M330.933 256.143H311.955V300.284H330.933V256.143Z" fill="white"/>
</g>
<g opacity="0.2">
<path opacity="0.2" d="M299.068 240.106H280.089V240.657H299.068V240.106Z" fill="black"/>
<path opacity="0.2" d="M299.068 244.526H280.089V245.077H299.068V244.526Z" fill="black"/>
<path opacity="0.2" d="M299.068 248.957H280.089V249.508H299.068V248.957Z" fill="black"/>
<path opacity="0.2" d="M299.068 253.376H280.089V253.928H299.068V253.376Z" fill="black"/>
<path opacity="0.2" d="M299.068 257.796H280.089V258.347H299.068V257.796Z" fill="black"/>
<path opacity="0.2" d="M299.068 262.216H280.089V262.767H299.068V262.216Z" fill="black"/>
<path opacity="0.2" d="M299.068 266.647H280.089V267.198H299.068V266.647Z" fill="black"/>
<path opacity="0.2" d="M299.068 271.066H280.089V271.618H299.068V271.066Z" fill="black"/>
<path opacity="0.2" d="M299.068 275.486H280.089V276.037H299.068V275.486Z" fill="black"/>
<path opacity="0.2" d="M299.068 279.906H280.089V280.457H299.068V279.906Z" fill="black"/>
<path opacity="0.2" d="M299.068 284.337H280.089V284.888H299.068V284.337Z" fill="black"/>
<path opacity="0.2" d="M299.068 288.756H280.089V289.308H299.068V288.756Z" fill="black"/>
<path opacity="0.2" d="M299.068 293.176H280.089V293.727H299.068V293.176Z" fill="black"/>
<path opacity="0.2" d="M299.068 297.596H280.089V298.147H299.068V297.596Z" fill="black"/>
<path opacity="0.2" d="M330.933 273.833H311.955V274.384H330.933V273.833Z" fill="black"/>
<path opacity="0.2" d="M330.933 260.563H311.955V261.114H330.933V260.563Z" fill="black"/>
<path opacity="0.2" d="M330.933 264.982H311.955V265.533H330.933V264.982Z" fill="black"/>
<path opacity="0.2" d="M330.933 269.413H311.955V269.964H330.933V269.413Z" fill="black"/>
<path opacity="0.2" d="M330.933 278.253H311.955V278.804H330.933V278.253Z" fill="black"/>
<path opacity="0.2" d="M330.933 282.672H311.955V283.223H330.933V282.672Z" fill="black"/>
<path opacity="0.2" d="M330.933 287.103H311.955V287.654H330.933V287.103Z" fill="black"/>
<path opacity="0.2" d="M330.933 291.523H311.955V292.074H330.933V291.523Z" fill="black"/>
<path opacity="0.2" d="M330.933 295.943H311.955V296.494H330.933V295.943Z" fill="black"/>
</g>
<path d="M393.94 248.968H374.962V301.397H393.94V248.968Z" fill="#407BFF"/>
<g opacity="0.7">
<path opacity="0.7" d="M393.94 248.968H374.962V301.397H393.94V248.968Z" fill="white"/>
</g>
<g opacity="0.2">
<path opacity="0.2" d="M393.94 253.399H374.962V253.95H393.94V253.399Z" fill="black"/>
<path opacity="0.2" d="M393.94 257.819H374.962V258.37H393.94V257.819Z" fill="black"/>
<path opacity="0.2" d="M393.94 262.238H374.962V262.789H393.94V262.238Z" fill="black"/>
<path opacity="0.2" d="M393.94 266.658H374.962V267.209H393.94V266.658Z" fill="black"/>
<path opacity="0.2" d="M393.94 271.089H374.962V271.64H393.94V271.089Z" fill="black"/>
<path opacity="0.2" d="M393.94 275.509H374.962V276.06H393.94V275.509Z" fill="black"/>
<path opacity="0.2" d="M393.94 279.928H374.962V280.479H393.94V279.928Z" fill="black"/>
<path opacity="0.2" d="M393.94 284.348H374.962V284.899H393.94V284.348Z" fill="black"/>
<path opacity="0.2" d="M393.94 288.779H374.962V289.33H393.94V288.779Z" fill="black"/>
<path opacity="0.2" d="M393.94 293.199H374.962V293.75H393.94V293.199Z" fill="black"/>
<path opacity="0.2" d="M393.94 297.618H374.962V298.169H393.94V297.618Z" fill="black"/>
</g>
<path d="M393.843 297.877H9.36366C7.69103 297.874 6.08361 298.633 4.88455 299.991L0 305.513H403.207L398.323 299.991C397.123 298.633 395.516 297.874 393.843 297.877Z" fill="#407BFF"/>
<path opacity="0.15" d="M393.843 297.877H9.36366C7.69103 297.874 6.08361 298.633 4.88455 299.991L0 305.513H403.207L398.323 299.991C397.123 298.633 395.516 297.874 393.843 297.877Z" fill="white"/>
<path d="M388.971 339V112.663L384.927 109.919C384.927 109.919 381.595 290.698 375 339H388.971Z" fill="#407BFF"/>
<path d="M403.213 339C396.583 290.698 393.252 109.919 393.252 109.919L389.208 112.663V339H403.213Z" fill="#407BFF"/>
<g opacity="0.2">
<path opacity="0.2" d="M388.971 339V112.663L384.927 109.919C384.927 109.919 381.595 290.698 375 339H388.971Z" fill="white"/>
<path opacity="0.2" d="M403.213 339C396.583 290.698 393.252 109.919 393.252 109.919L389.208 112.663V339H403.213Z" fill="white"/>
</g>
<g opacity="0.2">
<path opacity="0.2" d="M388.174 339V112.663L385.97 109.919C385.97 109.919 384.164 290.698 380.553 339H388.174Z" fill="black"/>
<path opacity="0.2" d="M395.931 339C392.319 290.698 390.505 109.919 390.505 109.919L388.309 112.663V339H395.931Z" fill="black"/>
</g>
<path d="M391.387 108.153H386.8V339H391.387V108.153Z" fill="#407BFF"/>
<path opacity="0.3" d="M391.387 108.153H386.8V339H391.387V108.153Z" fill="white"/>
<path d="M389.513 0H388.657V28.25H389.513V0Z" fill="#407BFF"/>
<path opacity="0.2" d="M389.513 0H388.657V28.25H389.513V0Z" fill="white"/>
<path d="M389.946 22.492H388.225V44.2868H389.946V22.492Z" fill="#407BFF"/>
<path opacity="0.2" d="M389.946 22.492H388.225V44.2868H389.946V22.492Z" fill="white"/>
<path d="M390.573 33.7381H387.597V55.5329H390.573V33.7381Z" fill="#407BFF"/>
<path opacity="0.2" d="M390.573 33.7381H387.597V55.5329H390.573V33.7381Z" fill="white"/>
<path d="M391.209 59.2778H386.97V91.4751H391.209V59.2778Z" fill="#407BFF"/>
<path opacity="0.2" d="M391.209 59.2778H386.97V91.4751H391.209V59.2778Z" fill="white"/>
<path opacity="0.2" d="M389.946 72.7055H388.225V80.1166H389.946V72.7055Z" fill="black"/>
<path d="M388.25 83.1756H386.071V92.0712H388.25V83.1756Z" fill="#407BFF"/>
<path opacity="0.3" d="M388.25 83.1756H386.071V92.0712H388.25V83.1756Z" fill="white"/>
<path d="M387.886 82.512H386.046C385.845 82.512 385.681 82.7285 385.681 82.9956V85.436C385.681 85.7031 385.845 85.9196 386.046 85.9196H387.886C388.087 85.9196 388.25 85.7031 388.25 85.436V82.9956C388.25 82.7285 388.087 82.512 387.886 82.512Z" fill="#407BFF"/>
<path opacity="0.4" d="M387.886 82.512H386.046C385.845 82.512 385.681 82.7285 385.681 82.9956V85.436C385.681 85.7031 385.845 85.9196 386.046 85.9196H387.886C388.087 85.9196 388.25 85.7031 388.25 85.436V82.9956C388.25 82.7285 388.087 82.512 387.886 82.512Z" fill="white"/>
<path d="M389.929 92.0824H392.107V83.1868H389.929V92.0824Z" fill="#407BFF"/>
<path opacity="0.3" d="M389.929 92.0824H392.107V83.1868H389.929V92.0824Z" fill="white"/>
<path d="M390.293 85.9196H392.133C392.334 85.9196 392.497 85.7031 392.497 85.436V82.9956C392.497 82.7286 392.334 82.512 392.133 82.512H390.293C390.092 82.512 389.929 82.7286 389.929 82.9956V85.436C389.929 85.7031 390.092 85.9196 390.293 85.9196Z" fill="#407BFF"/>
<path opacity="0.4" d="M390.293 85.9196H392.133C392.334 85.9196 392.497 85.7031 392.497 85.436V82.9956C392.497 82.7286 392.334 82.512 392.133 82.512H390.293C390.092 82.512 389.929 82.7286 389.929 82.9956V85.436C389.929 85.7031 390.092 85.9196 390.293 85.9196Z" fill="white"/>
<path d="M401.594 95.4449L401.432 96.9632L401.017 100.933L400.805 102.856L400.661 104.251L400.424 106.421H377.755L377.518 104.251L377.374 102.856L377.17 100.933L376.746 96.9632L376.585 95.4449H401.594Z" fill="#407BFF"/>
<path d="M397.245 96.086H380.934L381.477 90.0469C381.495 89.8382 381.571 89.646 381.69 89.507C381.809 89.368 381.962 89.2919 382.121 89.2934H396.058C396.216 89.2944 396.368 89.3712 396.486 89.5098C396.605 89.6483 396.681 89.8392 396.702 90.0469L397.245 96.086Z" fill="#407BFF"/>
<path opacity="0.4" d="M397.245 96.086H380.934L381.477 90.0469C381.495 89.8382 381.571 89.646 381.69 89.507C381.809 89.368 381.962 89.2919 382.121 89.2934H396.058C396.216 89.2944 396.368 89.3712 396.486 89.5098C396.605 89.6483 396.681 89.8392 396.702 90.0469L397.245 96.086Z" fill="white"/>
<path opacity="0.2" d="M384.376 96.0748H393.803L393.565 91.4751H384.613L384.376 96.0748Z" fill="black"/>
<g opacity="0.2">
<path opacity="0.2" d="M383.104 96.0748H380.934L381.349 91.4751H383.41L383.104 96.0748Z" fill="black"/>
<path opacity="0.2" d="M397.245 96.0748H395.074L394.769 91.4751H396.829L397.245 96.0748Z" fill="black"/>
</g>
<path d="M402.263 95.445H375.916L376.382 93.938C376.494 93.565 376.688 93.2454 376.939 93.0208C377.19 92.7962 377.486 92.6769 377.789 92.6785H400.432C400.735 92.6769 401.031 92.7962 401.282 93.0208C401.533 93.2454 401.727 93.565 401.839 93.938L402.263 95.445Z" fill="#407BFF"/>
<path opacity="0.2" d="M402.263 95.445H375.916L376.382 93.938C376.494 93.565 376.688 93.2454 376.939 93.0208C377.19 92.7962 377.486 92.6769 377.789 92.6785H400.432C400.735 92.6769 401.031 92.7962 401.282 93.0208C401.533 93.2454 401.727 93.565 401.839 93.938L402.263 95.445Z" fill="black"/>
<path d="M398.584 109.874H379.595L377.213 106.421H400.966L398.584 109.874Z" fill="#407BFF"/>
<path opacity="0.2" d="M398.584 109.874H379.595L377.213 106.421H400.966L398.584 109.874Z" fill="black"/>
<path opacity="0.4" d="M387.165 109.874H386.69L386.088 106.421H386.673L387.165 109.874Z" fill="white"/>
<path opacity="0.4" d="M391.488 109.874H391.014L391.497 106.421H392.09L391.488 109.874Z" fill="white"/>
<path opacity="0.4" d="M383.85 109.874H383.384L381.951 106.421H382.536L383.85 109.874Z" fill="white"/>
<path opacity="0.4" d="M394.795 109.874H394.328L395.642 106.421H396.227L394.795 109.874Z" fill="white"/>
<path opacity="0.4" d="M380.883 109.874H380.417L378.238 106.421H378.823L380.883 109.874Z" fill="white"/>
<path opacity="0.4" d="M397.762 109.874H397.295L399.355 106.421H399.94L397.762 109.874Z" fill="white"/>
<path d="M376.933 104.251H401.237L400.992 106.421H377.179L376.933 104.251Z" fill="#407BFF"/>
<path d="M401.61 100.933L401.39 102.856H376.78L376.568 100.933H401.61Z" fill="#407BFF"/>
<path d="M402.221 95.4449L402.051 96.9632H376.119L375.949 95.4449H402.221Z" fill="#407BFF"/>
<path opacity="0.4" d="M376.933 104.251H401.237L400.992 106.421H377.179L376.933 104.251Z" fill="white"/>
<path opacity="0.4" d="M401.61 100.933L401.39 102.856H376.78L376.568 100.933H401.61Z" fill="white"/>
<path opacity="0.4" d="M402.221 95.4449L402.051 96.9632H376.119L375.949 95.4449H402.221Z" fill="white"/>
<path d="M395.71 115.879H382.46C381.655 115.88 380.869 115.545 380.215 114.922C379.561 114.298 379.071 113.417 378.815 112.404L378.323 110.47C378.287 110.328 378.277 110.177 378.293 110.029C378.309 109.881 378.352 109.74 378.417 109.618C378.483 109.496 378.569 109.397 378.669 109.328C378.769 109.259 378.88 109.222 378.993 109.221H399.177C399.291 109.221 399.403 109.256 399.504 109.324C399.605 109.392 399.693 109.492 399.759 109.614C399.825 109.736 399.869 109.877 399.886 110.026C399.902 110.175 399.892 110.327 399.856 110.47L399.364 112.404C399.106 113.418 398.615 114.299 397.959 114.923C397.304 115.546 396.517 115.881 395.71 115.879Z" fill="#407BFF"/>
<path opacity="0.4" d="M395.71 115.879H382.46C381.655 115.88 380.869 115.545 380.215 114.922C379.561 114.298 379.071 113.417 378.815 112.404L378.323 110.47C378.287 110.328 378.277 110.177 378.293 110.029C378.309 109.881 378.352 109.74 378.417 109.618C378.483 109.496 378.569 109.397 378.669 109.328C378.769 109.259 378.88 109.222 378.993 109.221H399.177C399.291 109.221 399.403 109.256 399.504 109.324C399.605 109.392 399.693 109.492 399.759 109.614C399.825 109.736 399.869 109.877 399.886 110.026C399.902 110.175 399.892 110.327 399.856 110.47L399.364 112.404C399.106 113.418 398.615 114.299 397.959 114.923C397.304 115.546 396.517 115.881 395.71 115.879Z" fill="white"/>
<path d="M392.294 58.0632H385.885L386.733 60.4249H391.446L392.294 58.0632Z" fill="#407BFF"/>
<path d="M392.285 56.2751H385.885V58.0632H392.285V56.2751Z" fill="#407BFF"/>
<path opacity="0.4" d="M392.285 56.2751H385.885V58.0632H392.285V56.2751Z" fill="white"/>
<path d="M390.598 52.6651H387.58L385.885 56.2751H392.294L390.598 52.6651Z" fill="#407BFF"/>
<path opacity="0.5" d="M390.598 52.6651H387.58L385.885 56.2751H392.294L390.598 52.6651Z" fill="white"/>
<path d="M368.986 326.755C368.986 326.755 371.972 317.556 365.939 315.723C359.907 313.89 356.309 309.594 356.517 304.735C356.725 299.877 350.399 295.143 345.589 299.697C340.78 304.252 341.453 296.2 335.102 294.243C328.751 292.286 323.355 297.032 325.093 301.373C326.83 305.714 320.565 308.435 313.051 304.747C305.538 301.058 297.278 307.772 298.869 313.035C300.46 318.298 299.15 318.872 294.402 317.117C289.654 315.363 281.137 320.334 284.123 326.766C287.109 333.199 368.986 326.755 368.986 326.755Z" fill="#407BFF"/>
<path opacity="0.3" d="M368.986 326.755C368.986 326.755 371.972 317.556 365.939 315.723C359.907 313.89 356.309 309.594 356.517 304.735C356.725 299.877 350.399 295.143 345.589 299.697C340.78 304.252 341.453 296.2 335.102 294.243C328.751 292.286 323.355 297.032 325.093 301.373C326.83 305.714 320.565 308.435 313.051 304.747C305.538 301.058 297.278 307.772 298.869 313.035C300.46 318.298 299.15 318.872 294.402 317.117C289.654 315.363 281.137 320.334 284.123 326.766C287.109 333.199 368.986 326.755 368.986 326.755Z" fill="white"/>
<path d="M126.022 326.272C131.394 321.335 126.561 312.956 121.201 311.978C115.841 311 110.445 302.318 110.188 296.796C109.931 291.274 100.276 274.304 85.2609 284.785C70.2462 295.266 74.8106 286.326 63.9442 283.379C53.0778 280.433 46.2373 288.912 50.9975 295.266C50.9975 295.266 40.0822 292.758 35.5912 302.115C31.1003 311.472 35.5912 317.297 35.5912 317.297C35.5912 317.297 15.0821 316.78 16.9299 328.408C18.7777 340.037 126.022 326.272 126.022 326.272Z" fill="#407BFF"/>
<path opacity="0.3" d="M126.022 326.272C131.394 321.335 126.561 312.956 121.201 311.978C115.841 311 110.445 302.318 110.188 296.796C109.931 291.274 100.276 274.304 85.2609 284.785C70.2462 295.266 74.8106 286.326 63.9442 283.379C53.0778 280.433 46.2373 288.912 50.9975 295.266C50.9975 295.266 40.0822 292.758 35.5912 302.115C31.1003 311.472 35.5912 317.297 35.5912 317.297C35.5912 317.297 15.0821 316.78 16.9299 328.408C18.7777 340.037 126.022 326.272 126.022 326.272Z" fill="white"/>
<path d="M413.994 325.574V339.07H0.00619298V325.574C-0.025181 325.033 0.0628834 324.491 0.265109 323.981C0.467335 323.471 0.779553 323.005 1.183 322.609C1.58645 322.213 2.07281 321.896 2.61288 321.677C3.15295 321.458 3.7356 321.341 4.32583 321.335H409.662C410.253 321.34 410.837 321.455 411.379 321.673C411.92 321.892 412.408 322.208 412.813 322.605C413.218 323.001 413.531 323.468 413.734 323.978C413.937 324.489 414.025 325.032 413.994 325.574V325.574Z" fill="#263238"/>
<path d="M49.3333 321.335H23.599V339.081H49.3333V321.335Z" fill="#407BFF"/>
<path d="M97.6079 321.335H72.9383V339.081H97.6079V321.335Z" fill="#407BFF"/>
<path d="M146.935 321.335H121.201V339.081H146.935V321.335Z" fill="#407BFF"/>
<path d="M195.21 321.335H170.54V339.081H195.21V321.335Z" fill="#407BFF"/>
<path d="M243.472 321.335H218.802V339.081H243.472V321.335Z" fill="#407BFF"/>
<path d="M292.799 321.335H267.065V339.081H292.799V321.335Z" fill="#407BFF"/>
<path d="M341.074 321.335H316.404V339.081H341.074V321.335Z" fill="#407BFF"/>
<path d="M390.401 321.335H364.667V339.081H390.401V321.335Z" fill="#407BFF"/>
<g opacity="0.6">
<path opacity="0.6" d="M49.3333 321.335H23.599V339.081H49.3333V321.335Z" fill="white"/>
<path opacity="0.6" d="M97.6079 321.335H72.9383V339.081H97.6079V321.335Z" fill="white"/>
<path opacity="0.6" d="M146.935 321.335H121.201V339.081H146.935V321.335Z" fill="white"/>
<path opacity="0.6" d="M195.21 321.335H170.54V339.081H195.21V321.335Z" fill="white"/>
<path opacity="0.6" d="M243.472 321.335H218.802V339.081H243.472V321.335Z" fill="white"/>
<path opacity="0.6" d="M292.799 321.335H267.065V339.081H292.799V321.335Z" fill="white"/>
<path opacity="0.6" d="M341.074 321.335H316.404V339.081H341.074V321.335Z" fill="white"/>
<path opacity="0.6" d="M390.401 321.335H364.667V339.081H390.401V321.335Z" fill="white"/>
</g>
<path opacity="0.1" d="M413.994 325.574V339.07H0.00619298V325.574C-0.025181 325.033 0.0628834 324.491 0.265109 323.981C0.467335 323.471 0.779553 323.005 1.183 322.609C1.58645 322.213 2.07281 321.896 2.61288 321.677C3.15295 321.458 3.7356 321.341 4.32583 321.335H409.662C410.253 321.34 410.837 321.455 411.379 321.673C411.92 321.892 412.408 322.208 412.813 322.605C413.218 323.001 413.531 323.468 413.734 323.978C413.937 324.489 414.025 325.032 413.994 325.574V325.574Z" fill="white"/>
<path d="M282.352 296.519C282.352 282.214 250.46 250.197 211.142 250.197C171.824 250.197 139.932 282.214 139.932 296.519C139.932 310.824 171.824 321.26 211.142 321.26C250.46 321.26 282.352 310.79 282.352 296.519Z" fill="#407BFF"/>
<path opacity="0.3" d="M282.352 296.519C282.352 282.214 250.46 250.197 211.142 250.197C171.824 250.197 139.932 282.214 139.932 296.519C139.932 310.824 171.824 321.26 211.142 321.26C250.46 321.26 282.352 310.79 282.352 296.519Z" fill="white"/>
<path d="M282.979 288.962H268.127V321.261H282.979V288.962Z" fill="#407BFF"/>
<path d="M154.123 288.962H139.271V321.261H154.123V288.962Z" fill="#407BFF"/>
<path d="M270.483 296.834C270.483 285.802 243.907 261.117 211.142 261.117C178.377 261.117 151.8 285.858 151.8 296.834C151.8 307.81 178.377 316.807 211.142 316.807C243.907 316.807 270.483 307.867 270.483 296.834Z" fill="#407BFF"/>
<path opacity="0.5" d="M270.483 296.834C270.483 285.802 243.907 261.117 211.142 261.117C178.377 261.117 151.8 285.858 151.8 296.834C151.8 307.81 178.377 316.807 211.142 316.807C243.907 316.807 270.483 307.867 270.483 296.834Z" fill="white"/>
<path d="M270.475 296.373H151.758V321.26H270.475V296.373Z" fill="#407BFF"/>
<path opacity="0.3" d="M270.475 296.373H151.758V321.26H270.475V296.373Z" fill="white"/>
<path opacity="0.2" d="M239.125 296.373H183.116V321.26H239.125V296.373Z" fill="white"/>
<path opacity="0.2" d="M206.165 305.494H199.121V321.261H206.165V305.494Z" fill="black"/>
<path opacity="0.2" d="M214.643 305.494H207.598V321.261H214.643V305.494Z" fill="black"/>
<path opacity="0.2" d="M223.12 305.494H216.076V321.261H223.12V305.494Z" fill="black"/>
<path opacity="0.2" d="M251.943 305.494H244.899V321.261H251.943V305.494Z" fill="black"/>
<path opacity="0.2" d="M260.421 305.494H253.376V321.261H260.421V305.494Z" fill="black"/>
<path opacity="0.2" d="M268.898 305.494H261.853V321.261H268.898V305.494Z" fill="black"/>
<path opacity="0.2" d="M160.388 305.494H153.343V321.261H160.388V305.494Z" fill="black"/>
<path opacity="0.2" d="M168.865 305.494H161.82V321.261H168.865V305.494Z" fill="black"/>
<path opacity="0.2" d="M177.342 305.494H170.298V321.261H177.342V305.494Z" fill="black"/>
</svg>
